<svg xmlns="http://www.w3.org/2000/svg" xmlns:xlink="http://www.w3.org/1999/xlink" width="500" zoomAndPan="magnify" viewBox="0 0 375 374.999991" height="500" preserveAspectRatio="xMidYMid meet" version="1.0"><defs><clipPath id="ed0cb90bd4"><path d="M 20.878906 21.003906 L 67.121094 21.003906 L 67.121094 67.246094 L 20.878906 67.246094 Z M 20.878906 21.003906 " clip-rule="nonzero"/></clipPath><clipPath id="112fac73e5"><path d="M 44 21.003906 C 31.230469 21.003906 20.878906 31.355469 20.878906 44.125 C 20.878906 56.894531 31.230469 67.246094 44 67.246094 C 56.769531 67.246094 67.121094 56.894531 67.121094 44.125 C 67.121094 31.355469 56.769531 21.003906 44 21.003906 " clip-rule="nonzero"/></clipPath><clipPath id="5841761872"><path d="M 36 54 L 51 54 L 51 59.96875 L 36 59.96875 Z M 36 54 " clip-rule="nonzero"/></clipPath><clipPath id="a98a1e8339"><path d="M 32 41 L 61.402344 41 L 61.402344 52 L 32 52 Z M 32 41 " clip-rule="nonzero"/></clipPath><clipPath id="86614daaca"><path d="M 38 48 L 61.402344 48 L 61.402344 59.96875 L 38 59.96875 Z M 38 48 " clip-rule="nonzero"/></clipPath><clipPath id="790a8b291b"><path d="M 29 28.238281 L 51 28.238281 L 51 52 L 29 52 Z M 29 28.238281 " clip-rule="nonzero"/></clipPath><clipPath id="c451d2321f"><path d="M 27.742188 32 L 50 32 L 50 57 L 27.742188 57 Z M 27.742188 32 " clip-rule="nonzero"/></clipPath><clipPath id="0de85cfa31"><path d="M 29 33 L 61.402344 33 L 61.402344 59 L 29 59 Z M 29 33 " clip-rule="nonzero"/></clipPath><clipPath id="25778edfe5"><path d="M 28 30 L 49 30 L 49 59.96875 L 28 59.96875 Z M 28 30 " clip-rule="nonzero"/></clipPath><clipPath id="802cf66c32"><path d="M 28 30 L 55 30 L 55 59.96875 L 28 59.96875 Z M 28 30 " clip-rule="nonzero"/></clipPath></defs><g clip-path="url(#ed0cb90bd4)"><g clip-path="url(#112fac73e5)"><path fill="#fcc0c5" d="M 20.878906 21.003906 L 67.121094 21.003906 L 67.121094 67.246094 L 20.878906 67.246094 Z M 20.878906 21.003906 " fill-opacity="1" fill-rule="nonzero"/></g></g><path fill="#8fcdb6" d="M 29.128906 50.710938 C 29.128906 50.710938 29.855469 50.328125 31.492188 50.972656 C 32.628906 51.414062 36.867188 50.21875 37.703125 50.554688 C 38.179688 50.648438 38.605469 51.132812 38.777344 51.53125 C 38.839844 51.65625 39.828125 52.484375 39.828125 52.578125 C 39.828125 52.617188 38.746094 51.96875 38.507812 52.019531 C 36.800781 52.398438 29.527344 52.929688 29.296875 52.234375 C 29.035156 51.449219 29.128906 50.710938 29.128906 50.710938 Z M 29.128906 50.710938 " fill-opacity="1" fill-rule="nonzero"/><g clip-path="url(#5841761872)"><path fill="#260e0d" d="M 49.472656 54.285156 C 49.472656 54.285156 49.800781 54.664062 49.847656 54.84375 C 49.894531 55.027344 49.746094 55.589844 49.847656 55.886719 C 49.949219 56.183594 50.3125 56.726562 50.324219 56.996094 C 50.414062 58.113281 49.566406 59.652344 48.636719 59.335938 C 47.707031 59.019531 47.769531 57.667969 47.949219 57.171875 C 46.492188 58.421875 45.488281 57.246094 45.636719 56.902344 C 45.785156 56.558594 46.429688 55.886719 46.429688 55.886719 Z M 39.101562 55.085938 C 38.96875 55.253906 38.90625 55.65625 38.90625 55.65625 L 38.785156 55.449219 C 38.730469 55.355469 38.636719 55.207031 38.582031 55.113281 C 38.5625 55.078125 38.542969 55.039062 38.515625 55.011719 C 38.484375 54.972656 38.433594 54.953125 38.394531 54.917969 C 38.289062 54.835938 38.226562 54.710938 38.152344 54.601562 C 38.078125 54.496094 37.964844 54.386719 37.828125 54.378906 C 37.78125 54.378906 37.734375 54.394531 37.6875 54.40625 C 37.472656 54.472656 37.296875 54.601562 37.128906 54.742188 C 37.128906 54.742188 36.660156 55.207031 36.617188 55.609375 C 36.617188 55.609375 39.324219 58.375 39.59375 58.253906 C 39.792969 58.164062 39.863281 57.414062 39.648438 57.050781 C 40.023438 56.882812 41.855469 58.253906 41.933594 58.171875 C 42.015625 58.089844 42.097656 57.285156 41.632812 56.855469 C 41.167969 56.425781 40.824219 55.75 40.777344 55.449219 C 40.515625 54.640625 39.234375 54.917969 39.101562 55.085938 Z M 39.101562 55.085938 " fill-opacity="1" fill-rule="nonzero"/></g><path fill="#de7760" d="M 55.265625 35.730469 L 55.265625 42.582031 L 53.851562 42.582031 L 53.851562 38.675781 L 49.820312 38.675781 L 49.820312 37.667969 L 53.851562 37.667969 L 53.851562 36.101562 L 54.183594 35.730469 Z M 44.679688 56.425781 L 45.546875 56.425781 L 46.09375 55.859375 L 46.09375 48.71875 L 44.679688 48.71875 Z M 43.085938 58.46875 L 43.953125 58.46875 L 44.5 57.902344 L 44.5 50.757812 L 43.085938 50.757812 Z M 52.265625 58.46875 L 53.132812 58.46875 L 53.675781 57.902344 L 53.675781 50.757812 L 52.265625 50.757812 Z M 53.851562 56.425781 L 54.71875 56.425781 L 55.265625 55.859375 L 55.265625 48.71875 L 53.851562 48.71875 Z M 47.789062 50.554688 C 47.777344 50.582031 47.753906 50.804688 47.726562 51.121094 C 47.191406 51.195312 46.101562 51.582031 46.101562 51.582031 C 46.101562 51.582031 47 53.015625 47.5 54.0625 C 47.398438 54.46875 47.128906 55.160156 46.421875 55.894531 C 46.394531 56.304688 47.386719 56.632812 48.003906 55.96875 C 48.050781 56.429688 48.066406 56.839844 48.09375 57.089844 C 48.140625 57.539062 48.171875 57.992188 48.683594 57.992188 C 49.195312 57.992188 49.644531 57.585938 49.398438 56.316406 C 49.148438 55.046875 49.464844 54.285156 49.464844 54.285156 C 49.417969 54.234375 49.355469 54.160156 49.296875 54.078125 C 49.261719 53.464844 49.195312 52.0625 49.539062 51.105469 C 49.902344 50.089844 47.835938 50.460938 47.789062 50.554688 Z M 47.789062 50.554688 " fill-opacity="1" fill-rule="nonzero"/><g clip-path="url(#a98a1e8339)"><path fill="#a44c3d" d="M 32.898438 49.128906 L 32.574219 43.074219 L 35.980469 41.007812 L 61.394531 41.007812 L 61.394531 49.871094 L 59.175781 51.8125 L 39.890625 51.542969 Z M 32.898438 49.128906 " fill-opacity="1" fill-rule="nonzero"/></g><path fill="#de7760" d="M 41.140625 51.199219 C 41.078125 51.503906 41.027344 51.878906 40.972656 52.28125 C 38.90625 54.226562 37.398438 53.027344 37.371094 52.792969 C 37.367188 52.714844 37.359375 52.660156 37.359375 52.660156 C 37.359375 52.660156 37.433594 52.632812 37.902344 52.257812 C 38.273438 52.113281 38.871094 51.867188 38.871094 51.867188 C 38.871094 51.820312 38.867188 51.777344 38.859375 51.738281 C 40.078125 50.058594 40.265625 49.714844 40.710938 48.371094 C 40.925781 48.4375 41.394531 49.902344 41.140625 51.199219 Z M 41.140625 51.199219 " fill-opacity="1" fill-rule="nonzero"/><g clip-path="url(#86614daaca)"><path fill="#a44c3d" d="M 38.726562 51.511719 C 39.457031 50.769531 40.257812 49.714844 40.703125 48.371094 C 40.738281 48.378906 40.480469 49.949219 38.851562 51.738281 C 38.832031 51.652344 38.792969 51.578125 38.726562 51.511719 Z M 59.175781 51.476562 L 57.761719 51.476562 L 57.761719 59.179688 L 58.628906 59.179688 L 59.175781 58.617188 Z M 61.394531 48.410156 L 59.980469 48.410156 L 59.980469 56.113281 L 60.851562 56.113281 L 61.394531 55.550781 Z M 61.394531 48.410156 " fill-opacity="1" fill-rule="nonzero"/></g><path fill="#260e0d" d="M 48.003906 55.960938 C 47.921875 56.046875 47.835938 56.121094 47.742188 56.175781 C 47.714844 55.730469 47.628906 55.003906 47.378906 54.433594 C 47.433594 54.292969 47.472656 54.164062 47.5 54.058594 C 47.507812 54.058594 48.105469 55.207031 48.003906 55.960938 Z M 47.363281 43.367188 C 47.363281 43.367188 48.171875 43.242188 49.128906 43.207031 C 50.082031 43.171875 53.023438 43.207031 53.917969 41.492188 C 53.988281 41.316406 54.007812 41.15625 54 41.015625 L 48.382812 41.015625 Z M 47.363281 43.367188 " fill-opacity="0.2471" fill-rule="nonzero"/><path fill="#a44c3d" d="M 39.113281 56.230469 C 39.835938 56.019531 40.277344 56.402344 40.710938 56.859375 C 41.140625 57.316406 41.785156 57.601562 41.914062 57.929688 C 42.042969 58.257812 41.679688 58.722656 41.078125 58.300781 C 40.480469 57.875 39.382812 56.847656 39.109375 56.640625 C 38.765625 56.371094 39.113281 56.230469 39.113281 56.230469 Z M 38.347656 57.890625 C 39.027344 58.433594 39.605469 58.433594 39.648438 58.144531 C 39.6875 57.855469 39.089844 57.445312 38.496094 56.660156 C 37.902344 55.867188 36.707031 55.339844 36.617188 55.609375 C 36.457031 56.09375 37.042969 56.835938 38.347656 57.890625 Z M 54.765625 36.195312 C 54.765625 36.195312 54.808594 40.960938 54.886719 40.886719 C 54.96875 40.8125 54.886719 36.175781 54.886719 36.175781 C 54.886719 36.175781 55.210938 35.859375 55.164062 35.847656 C 55.117188 35.832031 54.867188 36.09375 54.773438 36.09375 C 54.679688 36.09375 54 36.09375 54 36.09375 C 53.867188 36.175781 54.765625 36.195312 54.765625 36.195312 Z M 53.730469 37.660156 L 53.730469 38.667969 L 53.851562 38.667969 C 53.851562 38.667969 53.859375 37.6875 53.851562 37.660156 Z M 53.730469 37.660156 " fill-opacity="1" fill-rule="nonzero"/><g clip-path="url(#790a8b291b)"><path fill="#260e0d" d="M 50.472656 34.097656 C 50.453125 34.179688 50.371094 34.234375 50.285156 34.246094 C 50.203125 34.265625 50.117188 34.253906 50.035156 34.238281 C 49.699219 34.191406 49.363281 34.164062 49.027344 34.152344 C 48.71875 34.144531 48.386719 34.144531 48.117188 33.984375 C 47.976562 33.894531 47.871094 33.773438 47.742188 33.667969 C 47.621094 33.558594 47.472656 33.464844 47.304688 33.464844 C 47.121094 33.460938 46.953125 33.566406 46.785156 33.640625 C 46.457031 33.773438 46.046875 33.769531 45.757812 33.554688 C 45.640625 33.472656 45.546875 33.359375 45.453125 33.257812 C 45.183594 32.960938 44.910156 32.6875 44.585938 32.445312 C 44.585938 32.445312 43.878906 31.710938 44.230469 30.207031 C 44.574219 29.070312 45.40625 28.691406 45.601562 28.714844 C 46.320312 28.417969 47.675781 28.257812 48.460938 29.511719 C 49.25 30.769531 48.785156 32.355469 48.785156 32.355469 C 48.785156 32.355469 48.71875 32.613281 48.933594 32.679688 C 49.148438 32.746094 50.070312 32.960938 50.394531 33.808594 C 50.433594 33.910156 50.507812 33.996094 50.472656 34.097656 Z M 31.503906 51.207031 C 33.496094 51.523438 36.167969 50.964844 37.277344 51.050781 C 38.03125 51.113281 38.503906 51.28125 38.71875 51.515625 C 39.546875 50.683594 40.460938 49.453125 40.859375 47.847656 C 40.328125 47.867188 39.894531 47.28125 38.460938 47.347656 C 38.460938 47.347656 38.019531 47.09375 37.367188 47.148438 C 36.710938 47.199219 35.136719 47.300781 34.640625 47.476562 L 29.613281 48.503906 C 29.621094 48.503906 29.605469 50.40625 31.503906 51.207031 Z M 31.503906 51.207031 " fill-opacity="1" fill-rule="nonzero"/></g><path fill="#8fcdb6" d="M 49.605469 33.726562 C 51.804688 34.125 52.257812 34.542969 52.976562 35.980469 C 53.785156 37.949219 54.09375 41.078125 53.824219 41.484375 C 52.4375 43.429688 49.417969 42.84375 48.480469 43 C 48.480469 43 44.445312 42.21875 44.34375 40.09375 C 44.242188 37.96875 44.894531 35.71875 45.21875 35.167969 C 45.542969 34.617188 46.496094 34.347656 46.496094 34.347656 L 47.109375 34.207031 Z M 49.605469 33.726562 " fill-opacity="1" fill-rule="nonzero"/><g clip-path="url(#c451d2321f)"><path fill="#efd9c2" d="M 48.777344 32.390625 C 48.777344 32.390625 48.925781 32.578125 48.933594 32.679688 C 48.933594 32.679688 48.777344 33.078125 48.636719 33.125 C 48.488281 33.171875 48.433594 32.941406 48.433594 32.941406 C 48.433594 32.941406 48.757812 32.492188 48.777344 32.390625 Z M 46.878906 33.902344 C 46.878906 33.929688 46.496094 34.355469 46.496094 34.355469 C 46.496094 34.355469 46.195312 35.066406 46.804688 36.039062 C 47.007812 36.324219 47.035156 37.566406 46.980469 37.847656 C 46.925781 38.132812 46.925781 39.027344 47.265625 39.851562 C 47.605469 40.679688 48.011719 41.800781 48.011719 41.800781 C 48.011719 41.800781 48.871094 41.828125 49.472656 41.304688 C 49.472656 41.304688 48.691406 39.460938 48.5625 38.648438 C 48.433594 37.84375 48.636719 36.066406 48.746094 35.960938 C 48.851562 35.851562 49.714844 34.644531 49.597656 33.726562 C 49.597656 33.726562 49.066406 33.386719 48.992188 33.332031 C 48.917969 33.277344 48.683594 33.203125 48.683594 33.203125 Z M 47.828125 42.441406 L 46.792969 41.902344 L 45.972656 39.316406 C 45.945312 39.234375 45.878906 39.1875 45.796875 39.1875 L 40.199219 39.1875 C 39.996094 39.1875 39.847656 39.390625 39.914062 39.582031 L 41.054688 43.066406 C 41.113281 43.253906 41.289062 43.375 41.484375 43.375 L 47.378906 43.375 L 48.03125 43.078125 Z M 36.082031 43.597656 C 35.917969 42.589844 35.300781 40.847656 35.0625 40.546875 C 34.828125 40.242188 33.765625 39.664062 33.765625 39.664062 C 33.765625 39.664062 33.671875 39.550781 33.617188 39.503906 C 33.5625 39.457031 33.050781 39.273438 33.050781 39.273438 C 33.050781 39.273438 31.773438 38.738281 31.484375 38.789062 C 31.195312 38.84375 31.011719 38.859375 30.960938 39.261719 C 30.960938 39.261719 29.996094 39.617188 29.742188 39.824219 L 29.675781 40.035156 C 29.675781 40.035156 29.0625 40.402344 28.894531 40.707031 C 28.730469 41.003906 27.816406 43.832031 27.742188 44.613281 C 27.742188 44.613281 28.242188 45.050781 29.164062 45.257812 L 29.613281 48.511719 C 29.613281 48.511719 33.335938 50.425781 35.433594 47.542969 C 35.433594 47.046875 34.855469 44.613281 34.855469 44.613281 Z M 40.972656 52.28125 C 40.796875 52.214844 40.601562 52.1875 40.414062 52.175781 C 39.820312 52.140625 39.183594 52.269531 38.757812 52.6875 C 38.683594 52.761719 38.617188 52.835938 38.53125 52.886719 C 38.253906 53.035156 37.929688 52.855469 37.621094 52.808594 C 37.539062 52.792969 37.460938 52.792969 37.378906 52.800781 C 37.40625 53.042969 37.453125 53.558594 37.425781 53.957031 C 37.40625 54.246094 37.128906 54.75 37.128906 54.75 C 37.128906 54.75 37.445312 54.738281 37.777344 54.761719 C 38.105469 54.789062 38.785156 55.457031 38.785156 55.457031 C 38.710938 54.972656 39.101562 53.949219 39.101562 53.949219 C 39.1875 54.238281 39.101562 55.09375 39.101562 55.09375 C 39.101562 55.09375 39.355469 55.003906 39.734375 55.003906 C 40.109375 55.003906 40.777344 55.457031 40.777344 55.457031 C 40.714844 55.171875 40.8125 53.59375 40.972656 52.28125 Z M 38.988281 56.019531 C 38.988281 56.019531 39.410156 55.851562 39.746094 55.953125 L 39.746094 55.597656 C 39.746094 55.597656 39.082031 55.441406 39.019531 55.710938 C 39.015625 55.765625 38.972656 55.96875 38.988281 56.019531 Z M 37.164062 55.449219 L 37.292969 55.214844 C 37.292969 55.214844 37.027344 55.132812 36.800781 55.148438 C 36.746094 55.226562 36.699219 55.316406 36.664062 55.402344 C 36.726562 55.375 36.953125 55.300781 37.164062 55.449219 Z M 37.164062 55.449219 " fill-opacity="1" fill-rule="nonzero"/></g><path fill="#260e0d" d="M 32.203125 39.140625 C 32.183594 39.234375 31.949219 39.457031 31.929688 39.449219 C 31.90625 39.441406 31.867188 39.148438 31.867188 39.148438 C 31.867188 39.148438 31.765625 39.460938 31.71875 39.457031 C 31.671875 39.449219 31.660156 39.1875 31.660156 39.1875 C 31.660156 39.1875 31.429688 39.511719 31.398438 39.496094 C 31.363281 39.484375 31.363281 39.167969 31.363281 39.167969 C 31.363281 39.167969 31.167969 39.515625 31.148438 39.496094 C 31.128906 39.484375 31.148438 39.292969 31.074219 39.027344 C 31.074219 39.027344 31.027344 39.402344 30.984375 39.355469 C 30.933594 38.90625 30.46875 38.535156 30.46875 38.535156 C 30.46875 38.535156 30.460938 38.730469 30.441406 38.730469 C 30.421875 38.730469 30.394531 38.460938 30.265625 38.347656 C 30.136719 38.234375 28.875 37.339844 29.351562 35.765625 C 29.828125 34.191406 31.445312 33.882812 31.71875 34.113281 C 32.394531 33.6875 33.921875 34.171875 34.054688 35.027344 C 34.1875 35.878906 33.871094 36.230469 33.871094 36.230469 " fill-opacity="1" fill-rule="nonzero"/><g clip-path="url(#0de85cfa31)"><path fill="#260e0d" d="M 51.308594 39.242188 C 51.347656 38.722656 51.273438 38.171875 50.992188 37.21875 C 50.925781 36.976562 51.132812 37.21875 51.335938 37.722656 C 51.515625 38.171875 51.792969 39.746094 51.847656 40.074219 C 52.628906 40.039062 52.722656 40.296875 52.648438 40.28125 C 52.566406 40.269531 52.167969 40.121094 51.523438 40.242188 C 50.882812 40.371094 49.472656 41.3125 49.472656 41.3125 C 49.390625 41.378906 49.308594 41.4375 49.222656 41.492188 C 48.933594 40.660156 48.71875 39.5625 48.609375 38.917969 C 48.792969 39.652344 49.257812 40.808594 49.410156 41.183594 C 49.410156 41.183594 50.136719 40.660156 50.878906 40.328125 C 50.917969 39.953125 51.269531 39.757812 51.308594 39.242188 Z M 51.195312 35 C 51.242188 34.898438 51.28125 34.789062 51.328125 34.691406 C 51.394531 34.546875 51.496094 34.421875 51.617188 34.320312 C 51.5625 34.292969 51.511719 34.257812 51.449219 34.234375 C 51.273438 34.460938 51.167969 34.742188 51.132812 35.027344 C 51.160156 35.046875 51.179688 35.019531 51.195312 35 Z M 48.894531 36.417969 C 48.792969 36.53125 49.035156 36.5 49.296875 36.160156 C 49.558594 35.824219 49.941406 35.382812 50.0625 34.730469 C 50.183594 34.078125 50.082031 33.890625 50.0625 34.03125 C 50.0625 34.039062 49.949219 35.625 48.894531 36.417969 Z M 49.027344 36.101562 C 49.035156 36.082031 49.035156 36.0625 49.019531 36.039062 C 49.007812 36.019531 48.992188 36.007812 48.980469 35.992188 C 48.953125 35.96875 48.925781 35.941406 48.894531 35.917969 C 48.824219 35.972656 49.027344 36.101562 49.027344 36.101562 Z M 49.277344 35.441406 C 49.296875 35.515625 49.4375 35.550781 49.503906 35.550781 C 49.5 35.523438 49.472656 35.503906 49.445312 35.484375 C 49.410156 35.460938 49.257812 35.347656 49.277344 35.441406 Z M 49.652344 35.066406 C 49.667969 35.058594 49.671875 35.046875 49.667969 35.03125 C 49.660156 35.019531 49.652344 35.011719 49.640625 35 C 49.59375 34.957031 49.523438 34.933594 49.457031 34.945312 L 49.457031 34.957031 C 49.503906 35 49.558594 35.039062 49.621094 35.058594 C 49.632812 35.066406 49.644531 35.074219 49.652344 35.066406 Z M 49.800781 34.46875 C 49.816406 34.460938 49.828125 34.449219 49.820312 34.433594 C 49.820312 34.425781 49.808594 34.414062 49.800781 34.414062 C 49.753906 34.378906 49.6875 34.375 49.632812 34.40625 L 49.625 34.421875 C 49.667969 34.449219 49.707031 34.460938 49.753906 34.472656 C 49.773438 34.472656 49.789062 34.472656 49.800781 34.46875 Z M 49.296875 35.066406 C 49.328125 35 49.355469 34.933594 49.390625 34.859375 C 49.195312 34.980469 48.636719 35.316406 48.628906 35.363281 C 48.628906 35.402344 49.074219 35.179688 49.296875 35.066406 Z M 48.699219 36.113281 C 48.710938 36.054688 48.722656 36.015625 48.738281 35.988281 C 48.722656 36.015625 47.753906 36.753906 47.753906 36.800781 C 47.753906 36.839844 48.46875 36.289062 48.699219 36.113281 Z M 47.585938 36.800781 C 47.601562 36.765625 46.867188 36.160156 46.847656 36.101562 C 46.867188 36.148438 46.894531 36.214844 46.90625 36.289062 C 47.144531 36.476562 47.582031 36.828125 47.585938 36.800781 Z M 46.429688 36.136719 C 46.058594 35.46875 46.222656 34.453125 46.222656 34.453125 L 46.078125 34.515625 C 46.078125 34.515625 46.039062 34.925781 46.132812 35.550781 C 46.222656 36.167969 46.484375 36.257812 46.429688 36.136719 Z M 45.339844 37.238281 C 45.386719 37.296875 45.460938 37.464844 45.527344 37.492188 C 45.527344 37.4375 45.496094 37.386719 45.460938 37.339844 C 45.359375 37.183594 45.257812 37.035156 45.144531 36.894531 C 45.132812 36.882812 45.117188 36.859375 45.089844 36.859375 C 45.089844 36.902344 45.109375 36.933594 45.132812 36.96875 C 45.203125 37.054688 45.273438 37.144531 45.339844 37.238281 Z M 45.40625 38.226562 C 45.347656 38.527344 45.3125 38.945312 45.386719 39.1875 L 45.722656 39.1875 C 45.601562 38.832031 45.519531 38.292969 45.648438 37.910156 C 45.8125 37.433594 45.835938 36.652344 45.804688 36.449219 C 45.757812 36.328125 45.710938 36.351562 45.722656 36.828125 C 45.742188 37.304688 45.527344 37.628906 45.40625 38.226562 Z M 45.589844 39.335938 C 45.59375 39.382812 46.726562 43.246094 46.855469 43.308594 C 46.980469 43.367188 46.839844 43.078125 46.839844 43.078125 C 46.839844 43.078125 45.667969 39.429688 45.648438 39.335938 C 45.636719 39.242188 45.5625 39.1875 45.589844 39.335938 Z M 33.765625 39.65625 C 33.765625 39.65625 33.691406 41.789062 33.617188 41.894531 C 32.292969 42.378906 29.773438 41.882812 29.753906 41.84375 C 29.734375 41.800781 29.675781 40.027344 29.675781 40.027344 C 29.675781 40.027344 29.640625 40.046875 29.578125 40.089844 C 29.578125 40.089844 29.585938 41.824219 29.714844 41.996094 C 30.816406 42.542969 33.382812 42.320312 33.726562 42.171875 C 33.90625 41.863281 33.921875 40.351562 33.921875 39.746094 C 33.824219 39.691406 33.765625 39.65625 33.765625 39.65625 Z M 31.613281 50.972656 C 31.203125 50.832031 30.300781 51.195312 30.40625 51.246094 C 30.515625 51.292969 30.953125 51.148438 31.503906 51.214844 C 31.503906 51.207031 32.023438 51.113281 31.613281 50.972656 Z M 39.203125 56.707031 C 39.027344 56.558594 38.972656 56.476562 38.972656 56.476562 C 38.796875 56.296875 38.90625 55.652344 38.90625 55.652344 L 38.871094 55.589844 L 38.871094 56.539062 C 39.101562 56.835938 39.527344 57.183594 39.753906 57.359375 C 39.742188 57.277344 39.714844 57.195312 39.6875 57.128906 C 39.679688 57.128906 39.382812 56.859375 39.203125 56.707031 Z M 38.871094 53.023438 L 38.871094 53.855469 L 38.980469 54.304688 C 39.046875 54.097656 39.101562 53.949219 39.101562 53.949219 C 39.035156 53.363281 38.945312 52.785156 38.871094 52.324219 Z M 39.296875 54.609375 C 39.304688 54.574219 39.304688 54.273438 39.308594 54.179688 C 39.308594 54.023438 39.308594 53.871094 39.304688 53.714844 C 39.296875 53.414062 39.296875 53.097656 39.25 52.800781 C 39.089844 52.753906 39.214844 53.304688 39.222656 53.414062 C 39.242188 53.679688 39.25 53.957031 39.234375 54.226562 C 39.230469 54.359375 39.234375 54.636719 39.296875 54.609375 Z M 39.679688 54.386719 C 39.679688 54.449219 39.6875 54.589844 39.726562 54.546875 C 39.726562 53.9375 39.722656 53.324219 39.699219 52.714844 C 39.699219 52.671875 39.695312 52.632812 39.667969 52.605469 C 39.539062 52.484375 39.621094 52.820312 39.625 52.847656 C 39.648438 52.996094 39.652344 53.144531 39.652344 53.292969 C 39.667969 53.652344 39.671875 54.015625 39.679688 54.386719 Z M 40.238281 52.53125 C 40.183594 52.546875 40.207031 52.699219 40.207031 52.734375 C 40.207031 52.90625 40.207031 53.082031 40.207031 53.257812 C 40.207031 53.605469 40.210938 53.964844 40.210938 54.3125 C 40.210938 54.359375 40.199219 54.460938 40.230469 54.441406 C 40.265625 54.425781 40.265625 54.378906 40.265625 54.347656 C 40.273438 53.789062 40.277344 53.222656 40.285156 52.667969 C 40.292969 52.625 40.292969 52.519531 40.238281 52.53125 Z M 29.191406 42.191406 C 29.117188 42.191406 29.128906 43.207031 29.128906 43.207031 L 29.335938 43.207031 C 29.335938 43.207031 29.261719 42.191406 29.191406 42.191406 Z M 33.996094 42.757812 C 33.945312 42.761719 34.054688 43.414062 34.054688 43.414062 L 34.15625 43.308594 C 34.148438 43.308594 34.042969 42.742188 33.996094 42.757812 Z M 34.867188 40.617188 C 34.867188 40.617188 34.214844 40.800781 34.054688 41.621094 C 34.066406 41.761719 34.136719 41.484375 34.210938 41.367188 C 34.285156 41.246094 34.390625 40.902344 34.671875 40.78125 C 34.957031 40.660156 34.941406 40.585938 34.867188 40.617188 Z M 48.535156 38.367188 Z M 48.449219 41.929688 C 48.449219 41.9375 48.460938 41.9375 48.46875 41.9375 C 48.535156 41.945312 48.609375 41.9375 48.671875 41.910156 C 48.683594 41.902344 48.699219 41.894531 48.703125 41.882812 C 48.628906 41.847656 48.535156 41.875 48.460938 41.902344 C 48.457031 41.917969 48.449219 41.921875 48.449219 41.929688 Z M 48.582031 42.199219 C 48.628906 42.191406 48.675781 42.179688 48.722656 42.152344 C 48.765625 42.125 48.757812 42.089844 48.71875 42.085938 C 48.671875 42.078125 48.597656 42.113281 48.5625 42.136719 C 48.550781 42.144531 48.527344 42.164062 48.535156 42.179688 C 48.535156 42.199219 48.5625 42.199219 48.582031 42.199219 Z M 48.597656 42.546875 C 48.628906 42.554688 48.851562 42.535156 48.792969 42.46875 C 48.75 42.421875 48.597656 42.46875 48.570312 42.507812 C 48.5625 42.515625 48.5625 42.527344 48.570312 42.535156 C 48.582031 42.546875 48.589844 42.546875 48.597656 42.546875 Z M 48.636719 42.871094 C 48.671875 42.878906 48.867188 42.871094 48.832031 42.8125 C 48.804688 42.75 48.664062 42.804688 48.628906 42.824219 C 48.617188 42.832031 48.601562 42.84375 48.609375 42.859375 C 48.609375 42.863281 48.625 42.871094 48.636719 42.871094 Z M 49.109375 42.65625 C 49.136719 42.640625 49.136719 42.609375 49.136719 42.582031 C 49.128906 42.320312 49.054688 42.070312 48.988281 41.816406 C 48.964844 41.753906 48.953125 41.6875 48.917969 41.632812 C 48.90625 41.640625 48.796875 41.675781 48.796875 41.675781 C 48.988281 41.921875 49.035156 42.238281 49.074219 42.546875 C 49.082031 42.589844 49.085938 42.621094 49.109375 42.65625 Z M 43.132812 41.125 C 43.097656 41.144531 43.066406 41.171875 43.039062 41.195312 C 42.945312 41.296875 42.898438 41.445312 42.917969 41.585938 C 42.9375 41.722656 43.003906 41.84375 43.117188 41.917969 C 43.234375 41.992188 43.382812 42.003906 43.503906 41.949219 C 43.535156 41.929688 43.570312 41.910156 43.597656 41.882812 C 43.722656 41.769531 43.792969 41.585938 43.765625 41.417969 C 43.730469 41.21875 43.5625 41.082031 43.382812 41.070312 C 43.375 40.929688 43.402344 40.792969 43.433594 40.644531 C 43.410156 40.613281 43.359375 40.605469 43.320312 40.605469 C 43.273438 40.667969 43.261719 40.738281 43.253906 40.8125 C 43.253906 40.875 43.253906 40.929688 43.261719 40.988281 C 43.226562 40.949219 43.1875 40.921875 43.140625 40.902344 C 43.066406 40.867188 42.976562 40.867188 42.902344 40.902344 C 42.945312 41.007812 43.03125 41.089844 43.132812 41.125 Z M 47.808594 37.855469 C 47.871094 37.855469 47.902344 37.796875 47.917969 37.734375 C 47.9375 37.648438 47.921875 37.492188 47.808594 37.480469 C 47.675781 37.464844 47.703125 37.640625 47.714844 37.726562 C 47.714844 37.78125 47.75 37.847656 47.808594 37.855469 Z M 47.816406 38.964844 C 47.695312 38.957031 47.769531 39.207031 47.796875 39.261719 C 47.808594 39.28125 47.824219 39.300781 47.84375 39.316406 C 47.863281 39.328125 47.890625 39.335938 47.910156 39.320312 C 47.9375 39.308594 47.945312 39.273438 47.949219 39.246094 C 47.957031 39.179688 47.917969 38.980469 47.816406 38.964844 Z M 48.132812 40.4375 C 48.042969 40.472656 48.125 40.644531 48.152344 40.691406 C 48.171875 40.734375 48.214844 40.773438 48.253906 40.773438 C 48.285156 40.734375 48.300781 40.671875 48.292969 40.617188 C 48.285156 40.558594 48.214844 40.402344 48.132812 40.4375 Z M 61.195312 41.238281 C 60.992188 41.269531 58.792969 43.917969 58.792969 43.917969 C 58.792969 43.917969 39.667969 43.917969 39.457031 43.917969 C 39.25 43.917969 39.296875 44.148438 39.976562 44.148438 C 40.65625 44.148438 58.421875 44.128906 58.710938 44.148438 C 58.710938 44.148438 58.5625 58.664062 58.574219 58.835938 C 58.589844 59.011719 58.710938 58.890625 58.710938 58.75 C 58.710938 58.601562 58.933594 44.15625 58.933594 44.15625 C 58.933594 44.15625 61.394531 41.203125 61.195312 41.238281 Z M 39.484375 43.75 C 39.511719 43.726562 39.539062 43.703125 39.574219 43.683594 C 39.625 43.664062 39.679688 43.664062 39.742188 43.664062 C 39.820312 43.664062 40.136719 43.652344 40.164062 43.550781 C 40.164062 43.542969 40.164062 43.535156 40.164062 43.53125 C 40.042969 43.53125 39.875 43.449219 39.78125 43.429688 C 39.648438 43.402344 39.558594 43.488281 39.558594 43.488281 C 39.164062 44.128906 38.777344 44.355469 38.570312 44.1875 C 38.214844 44.398438 37.292969 46.160156 36.09375 46.125 C 36.121094 46.21875 36.148438 46.3125 36.207031 46.386719 C 36.355469 46.570312 36.640625 46.769531 36.867188 46.75 C 37.296875 46.710938 38.050781 46.449219 38.515625 44.957031 C 38.570312 44.792969 38.617188 44.617188 38.757812 44.519531 C 38.8125 44.476562 38.878906 44.457031 38.933594 44.429688 C 39.195312 44.296875 39.277344 43.960938 39.484375 43.75 Z M 60.929688 50.28125 L 60.769531 50.421875 L 59.980469 51.113281 L 60.722656 51.027344 C 60.703125 53.015625 60.757812 55.925781 60.832031 55.90625 C 60.890625 55.820312 60.878906 53.660156 60.890625 53.3125 C 60.898438 53.125 60.929688 51.925781 60.9375 50.871094 L 61.402344 50.273438 L 61.402344 49.871094 Z M 60.929688 50.28125 " fill-opacity="0.2471" fill-rule="nonzero"/></g><g clip-path="url(#25778edfe5)"><path fill="#de7760" d="M 46.8125 33.773438 C 45.574219 34.347656 44.59375 32.445312 44.59375 32.445312 C 44.699219 32.316406 44.382812 30.621094 44.875 30.5 C 45.5625 31.269531 47.613281 31.578125 47.964844 30.675781 C 48.347656 30.683594 48.523438 31.171875 48.160156 31.578125 C 48.238281 32.929688 48.925781 33.390625 48.925781 33.6875 C 48.40625 34.292969 47.753906 36.511719 47.753906 36.511719 C 47.753906 36.511719 47.3125 35.703125 47.117188 35.199219 C 46.925781 34.691406 47.046875 34.339844 46.8125 33.773438 Z M 47.195312 41.65625 C 47.0625 41.679688 46.785156 41.902344 46.785156 41.902344 L 47.175781 43.003906 C 47.175781 43.003906 47.398438 42.816406 47.460938 42.871094 C 47.667969 43.074219 48.125 43.140625 48.480469 43.003906 C 48.542969 42.507812 48.28125 41.800781 48.28125 41.800781 C 48.042969 41.816406 47.339844 41.621094 47.195312 41.65625 Z M 40.277344 43.488281 C 40.179688 43.617188 39.910156 43.460938 39.773438 43.4375 C 39.640625 43.410156 39.550781 43.496094 39.550781 43.496094 C 39.15625 44.136719 38.773438 44.363281 38.5625 44.195312 C 38.199219 44.410156 37.222656 46.285156 35.964844 46.125 C 35.574219 46.078125 35.265625 45.882812 35.023438 45.648438 L 35.023438 51.867188 L 38.867188 51.867188 L 38.867188 58.878906 L 38.503906 59.132812 L 37.78125 59.132812 L 37.78125 53.015625 L 35.015625 53.015625 L 35.015625 59.699219 L 34.652344 59.953125 L 33.941406 59.953125 L 33.941406 53.023438 L 33.460938 53.023438 L 33.460938 58.878906 L 33.097656 59.132812 L 32.378906 59.132812 L 32.378906 53.015625 L 29.621094 53.015625 L 29.621094 59.699219 L 29.257812 59.953125 L 28.535156 59.953125 L 28.535156 43.460938 L 28.875 43.207031 L 29.613281 43.207031 L 29.613281 44.8125 C 29.613281 44.8125 33.261719 44.8125 33.941406 44.8125 L 33.941406 43.460938 L 34.277344 43.207031 L 35.015625 43.207031 L 35.015625 44.160156 C 35.582031 43.941406 36.074219 43.597656 36.074219 43.597656 L 36.242188 44.074219 C 36.417969 43.871094 37.480469 43.746094 37.769531 43.441406 C 37.863281 43.339844 38.300781 42.761719 38.429688 42.609375 C 38.5625 42.453125 38.75 42.507812 38.847656 42.523438 C 38.941406 42.527344 39.089844 42.535156 39.140625 42.609375 C 39.1875 42.683594 39.269531 42.636719 39.382812 42.710938 C 39.5 42.785156 39.835938 43.027344 39.890625 43.078125 C 39.949219 43.132812 40.328125 43.390625 40.277344 43.488281 Z M 33.941406 48.449219 L 29.621094 48.449219 L 29.621094 51.867188 L 33.941406 51.867188 Z M 33.941406 45.890625 L 29.621094 45.890625 L 29.621094 47.375 C 29.621094 47.375 33.265625 47.375 33.945312 47.375 L 33.945312 45.890625 Z M 32.546875 37.621094 C 32.546875 37.621094 32.445312 37.78125 32.277344 37.808594 C 32.324219 38.710938 32.203125 39.132812 32.203125 39.132812 C 32.648438 39.132812 33.058594 39.269531 33.058594 39.269531 L 33.058594 38.644531 C 33.058594 38.644531 33.273438 38.664062 33.558594 38.621094 C 34.210938 38.546875 33.933594 37.996094 34.035156 37.902344 C 34.136719 37.800781 34.035156 37.703125 34.035156 37.703125 C 34.214844 37.539062 33.960938 37.425781 33.980469 37.191406 C 34.164062 37.15625 34.34375 36.886719 34.242188 36.765625 C 34.140625 36.644531 33.792969 36.34375 33.792969 35.824219 C 33.710938 36.089844 33.382812 36.503906 33.316406 36.570312 C 33.253906 36.644531 33.121094 36.714844 33.160156 36.652344 C 33.375 36.390625 33.386719 35.726562 33.386719 35.726562 C 32.984375 37.144531 32.164062 36.960938 32.0625 36.789062 C 31.960938 36.613281 31.449219 36.558594 31.492188 37.023438 C 31.53125 37.484375 32.035156 37.6875 32.546875 37.621094 Z M 32.546875 37.621094 " fill-opacity="1" fill-rule="nonzero"/></g><g clip-path="url(#802cf66c32)"><path fill="#a44c3d" d="M 45.589844 53.621094 C 45.574219 53.96875 45.589844 56.128906 45.527344 56.214844 C 45.421875 56.242188 45.347656 49.675781 45.527344 49.507812 C 45.710938 49.339844 45.601562 53.269531 45.589844 53.621094 Z M 48.515625 51.914062 C 48.367188 51.582031 48.261719 51.46875 48.28125 51.652344 C 48.308594 51.832031 48.625 52.558594 48.730469 52.980469 C 48.839844 53.414062 49.148438 53.984375 49.296875 54.078125 C 49.5 54.097656 49.109375 53.605469 48.988281 53.433594 C 48.867188 53.265625 48.65625 52.234375 48.515625 51.914062 Z M 47.40625 33.339844 C 47.359375 33.351562 47.257812 33.582031 46.8125 33.78125 C 46.867188 33.902344 46.902344 34.015625 46.925781 34.125 C 47.269531 33.992188 47.445312 33.324219 47.40625 33.339844 Z M 48.125 30.890625 C 47.996094 30.964844 47.9375 31.246094 47.996094 31.382812 C 48.039062 31.429688 48.03125 31.347656 48.039062 31.253906 C 48.039062 31.214844 48.078125 31.003906 48.125 30.957031 C 48.160156 30.925781 48.179688 30.878906 48.125 30.890625 Z M 47.089844 42.292969 C 47.074219 42.285156 47.007812 42.339844 46.960938 42.378906 L 46.980469 42.441406 C 47.054688 42.386719 47.128906 42.304688 47.089844 42.292969 Z M 47.082031 42.714844 L 47.101562 42.769531 C 47.15625 42.703125 47.195312 42.648438 47.183594 42.640625 C 47.164062 42.636719 47.121094 42.667969 47.082031 42.714844 Z M 46.980469 41.976562 C 46.949219 41.964844 46.855469 42.085938 46.855469 42.085938 L 46.867188 42.132812 C 46.933594 42.058594 46.996094 41.984375 46.980469 41.976562 Z M 47.332031 42.546875 C 47.3125 42.546875 47.292969 42.5625 47.285156 42.582031 C 47.285156 42.589844 47.277344 42.59375 47.277344 42.601562 C 47.277344 42.609375 47.285156 42.617188 47.292969 42.617188 C 47.296875 42.617188 47.304688 42.617188 47.3125 42.617188 C 47.324219 42.609375 47.34375 42.601562 47.351562 42.589844 C 47.359375 42.582031 47.359375 42.582031 47.359375 42.574219 C 47.359375 42.570312 47.351562 42.5625 47.34375 42.554688 C 47.351562 42.546875 47.34375 42.546875 47.332031 42.546875 Z M 47.316406 42.246094 C 47.304688 42.234375 47.285156 42.226562 47.265625 42.234375 C 47.242188 42.234375 47.222656 42.246094 47.210938 42.257812 C 47.203125 42.265625 47.203125 42.273438 47.210938 42.28125 C 47.210938 42.285156 47.21875 42.285156 47.222656 42.285156 C 47.257812 42.292969 47.296875 42.273438 47.316406 42.246094 Z M 47.183594 41.894531 Z M 47.164062 41.902344 L 47.183594 41.902344 C 47.175781 41.894531 47.171875 41.894531 47.164062 41.902344 Z M 47.183594 41.894531 C 47.148438 41.894531 47.109375 41.921875 47.101562 41.957031 C 47.117188 41.964844 47.136719 41.964844 47.15625 41.957031 C 47.171875 41.957031 47.183594 41.949219 47.191406 41.9375 C 47.195312 41.921875 47.203125 41.910156 47.195312 41.894531 C 47.195312 41.902344 47.191406 41.894531 47.183594 41.894531 Z M 34.910156 43.347656 C 34.863281 43.339844 34.746094 43.484375 34.585938 43.515625 C 34.425781 43.550781 34.082031 43.496094 34.082031 43.496094 C 33.96875 43.511719 34.308594 43.65625 34.566406 43.628906 C 34.566406 44.503906 34.601562 59.605469 34.613281 59.757812 C 34.625 59.914062 34.699219 59.785156 34.714844 59.691406 C 34.726562 59.597656 34.722656 44.34375 34.722656 43.597656 C 34.882812 43.511719 34.941406 43.355469 34.910156 43.347656 Z M 33.804688 44.996094 C 33.066406 44.988281 29.574219 44.976562 29.5 45.050781 C 29.484375 45.089844 33.058594 45.136719 33.804688 45.148438 L 33.804688 45.894531 L 33.941406 45.894531 L 33.941406 44.820312 L 33.804688 44.820312 Z M 29.621094 48.449219 L 29.371094 48.449219 L 29.371094 47.558594 L 29.621094 47.367188 C 29.621094 47.292969 29.359375 47.496094 29.296875 47.542969 C 29.296875 46.945312 29.296875 46.378906 29.296875 45.882812 C 29.324219 45.929688 29.621094 46.339844 29.621094 46.339844 L 29.621094 45.890625 L 29.371094 45.890625 L 29.371094 44.996094 L 29.621094 44.808594 C 29.660156 44.660156 29.296875 44.980469 29.296875 44.980469 C 29.296875 44.980469 29.296875 44.988281 29.296875 44.996094 C 29.296875 44.195312 29.296875 43.664062 29.296875 43.542969 C 29.464844 43.460938 29.527344 43.308594 29.492188 43.300781 C 29.445312 43.292969 29.332031 43.4375 29.167969 43.46875 C 29.007812 43.503906 28.664062 43.449219 28.664062 43.449219 C 28.550781 43.460938 28.894531 43.609375 29.148438 43.582031 C 29.148438 44.457031 29.183594 59.558594 29.195312 59.710938 C 29.210938 59.867188 29.285156 59.738281 29.296875 59.644531 C 29.304688 59.582031 29.304688 53.191406 29.304688 48.476562 C 29.390625 48.753906 29.648438 48.980469 29.625 48.921875 L 29.625 48.449219 Z M 33.804688 47.5625 C 33.078125 47.5625 29.679688 47.570312 29.585938 47.5625 C 29.484375 47.558594 29.578125 47.636719 29.773438 47.652344 C 29.949219 47.65625 33.105469 47.691406 33.804688 47.703125 L 33.804688 48.457031 L 33.941406 48.457031 L 33.941406 47.375 L 33.804688 47.375 Z M 38.429688 53.023438 L 37.789062 53.023438 L 37.789062 53.191406 L 38.429688 53.191406 C 38.433594 56.644531 38.449219 58.871094 38.457031 58.9375 C 38.46875 59.09375 38.542969 58.964844 38.554688 58.871094 C 38.5625 58.832031 38.5625 56.632812 38.5625 53.191406 L 38.871094 53.191406 L 38.871094 53.023438 Z M 32.378906 53.25 L 33.019531 53.25 C 33.023438 56.679688 33.039062 58.871094 33.046875 58.9375 C 33.058594 59.09375 33.132812 58.964844 33.144531 58.871094 C 33.152344 58.832031 33.152344 56.671875 33.152344 53.257812 L 33.460938 53.257812 L 33.460938 53.027344 L 32.378906 53.027344 Z M 43.933594 51.550781 C 43.75 51.71875 43.824219 58.28125 43.933594 58.257812 C 43.992188 58.171875 43.980469 56.015625 43.992188 55.664062 C 44.007812 55.308594 44.113281 51.382812 43.933594 51.550781 Z M 53.105469 51.550781 C 52.921875 51.71875 52.996094 58.28125 53.105469 58.257812 C 53.164062 58.171875 53.152344 56.015625 53.164062 55.664062 C 53.1875 55.308594 53.292969 51.382812 53.105469 51.550781 Z M 54.699219 49.507812 C 54.519531 49.675781 54.59375 56.234375 54.699219 56.214844 C 54.761719 56.128906 54.746094 53.96875 54.761719 53.621094 C 54.773438 53.269531 54.882812 49.339844 54.699219 49.507812 Z M 31.792969 37.054688 C 31.859375 37.078125 31.921875 37.125 31.96875 37.183594 C 31.988281 37.21875 32.007812 37.25 32.035156 37.277344 C 32.042969 37.292969 32.054688 37.296875 32.070312 37.292969 C 32.082031 37.285156 32.082031 37.277344 32.078125 37.265625 C 32.054688 37.191406 32.015625 37.125 31.957031 37.070312 C 31.894531 37.023438 31.820312 36.988281 31.738281 36.988281 C 31.726562 36.996094 31.738281 37.027344 31.753906 37.042969 C 31.761719 37.050781 31.773438 37.050781 31.792969 37.054688 Z M 36.25 44.074219 C 36.296875 44.230469 36.308594 44.519531 36.347656 44.53125 C 36.382812 44.546875 36.410156 44.207031 36.390625 43.980469 C 36.324219 44.015625 36.273438 44.039062 36.25 44.074219 Z M 38.710938 44.113281 C 38.683594 44.113281 38.570312 44.195312 38.570312 44.195312 C 38.597656 44.214844 38.625 44.230469 38.652344 44.234375 C 38.683594 44.183594 38.730469 44.113281 38.710938 44.113281 Z M 39.742188 43.308594 C 39.726562 43.316406 39.632812 43.429688 39.578125 43.484375 C 39.605469 43.460938 39.652344 43.4375 39.714844 43.429688 C 39.726562 43.367188 39.746094 43.300781 39.742188 43.308594 Z M 39.914062 43.484375 C 39.929688 43.488281 39.949219 43.496094 39.964844 43.503906 C 39.988281 43.460938 40.003906 43.4375 39.988281 43.4375 C 39.984375 43.4375 39.949219 43.457031 39.914062 43.484375 Z M 33.058594 38.992188 L 33.058594 38.648438 C 32.804688 38.617188 32.695312 38.488281 32.648438 38.515625 C 32.609375 38.535156 32.824219 38.863281 33.058594 38.992188 Z M 33.058594 38.992188 " fill-opacity="1" fill-rule="nonzero"/></g><path fill="#260e0d" d="M 45.804688 32.835938 C 45.488281 32.894531 45.425781 32.558594 45.421875 32.355469 C 45.414062 32.222656 45.320312 32.140625 45.320312 32.140625 C 45.265625 32.089844 45.339844 32.0625 45.414062 32.160156 C 45.488281 32.261719 45.453125 32.429688 45.515625 32.605469 C 45.574219 32.78125 45.714844 32.792969 45.769531 32.792969 C 45.816406 32.78125 45.890625 32.8125 45.804688 32.835938 Z M 46.222656 32.828125 C 46.179688 32.933594 45.992188 33.007812 45.980469 33.015625 C 45.953125 33.027344 45.964844 33.054688 46.011719 33.050781 C 46.058594 33.035156 46.152344 32.996094 46.222656 32.914062 C 46.269531 32.96875 46.308594 33.117188 46.246094 33.144531 C 46.1875 33.175781 46.179688 33.21875 46.246094 33.210938 C 46.449219 33.148438 46.222656 32.828125 46.222656 32.828125 Z M 46.019531 32.089844 C 46.074219 32.054688 46.066406 31.960938 46.011719 31.871094 C 45.957031 31.792969 45.871094 31.746094 45.816406 31.777344 C 45.761719 31.8125 45.769531 31.90625 45.824219 31.992188 C 45.878906 32.082031 45.964844 32.121094 46.019531 32.089844 Z M 44.957031 32.222656 C 44.910156 32.25 44.914062 32.328125 44.960938 32.402344 C 45.011719 32.476562 45.082031 32.511719 45.125 32.484375 C 45.171875 32.457031 45.164062 32.378906 45.117188 32.304688 C 45.070312 32.230469 45.003906 32.195312 44.957031 32.222656 Z M 45.609375 31.644531 C 45.664062 31.628906 46.039062 31.460938 46.09375 31.390625 C 46.167969 31.289062 45.601562 31.429688 45.519531 31.503906 C 45.488281 31.535156 45.554688 31.65625 45.609375 31.644531 Z M 44.875 31.785156 C 44.808594 31.800781 44.679688 32.035156 44.644531 32.148438 C 44.621094 32.261719 44.667969 32.289062 44.679688 32.257812 C 44.6875 32.242188 44.800781 32.027344 44.976562 31.945312 C 45.015625 31.898438 44.941406 31.773438 44.875 31.785156 Z M 33.617188 36.410156 C 33.558594 36.410156 33.507812 36.5 33.507812 36.605469 C 33.507812 36.714844 33.558594 36.800781 33.617188 36.800781 C 33.679688 36.800781 33.726562 36.714844 33.726562 36.605469 C 33.726562 36.5 33.679688 36.410156 33.617188 36.410156 Z M 33.773438 37.703125 C 33.75 37.714844 33.914062 37.800781 34.074219 37.761719 C 34.0625 37.722656 34.035156 37.703125 34.035156 37.703125 C 33.925781 37.742188 33.800781 37.6875 33.773438 37.703125 Z M 33.773438 37.703125 " fill-opacity="1" fill-rule="nonzero"/></svg>