<svg xmlns="http://www.w3.org/2000/svg" xmlns:xlink="http://www.w3.org/1999/xlink" width="108px" zoomAndPan="magnify" viewBox="0 0 108 108" height="108px" version="1.0"><defs><clipPath id="176aa0e88e"><path d="M 20.878906 21.003906 L 169.839844 21.003906 L 169.839844 169.964844 L 20.878906 169.964844 Z M 20.878906 21.003906 " clip-rule="nonzero"/></clipPath><clipPath id="3a7e88c76c"><path d="M 95.359375 21.003906 C 54.226562 21.003906 20.878906 54.351562 20.878906 95.484375 C 20.878906 136.621094 54.226562 169.964844 95.359375 169.964844 C 136.492188 169.964844 169.839844 136.621094 169.839844 95.484375 C 169.839844 54.351562 136.492188 21.003906 95.359375 21.003906 " clip-rule="nonzero"/></clipPath><clipPath id="4962445a7f"><path d="M 58 85 L 151.417969 85 L 151.417969 121 L 58 121 Z M 58 85 " clip-rule="nonzero"/></clipPath><clipPath id="ce0b8b722e"><path d="M 78 109 L 151.417969 109 L 151.417969 144 L 78 144 Z M 78 109 " clip-rule="nonzero"/></clipPath><clipPath id="cbe13355e6"><path d="M 42.988281 57 L 114 57 L 114 134 L 42.988281 134 Z M 42.988281 57 " clip-rule="nonzero"/></clipPath><clipPath id="030f70f4c1"><path d="M 47 62 L 151.417969 62 L 151.417969 144 L 47 144 Z M 47 62 " clip-rule="nonzero"/></clipPath><clipPath id="2c820bf7cb"><path d="M 45 51 L 112 51 L 112 146.523438 L 45 146.523438 Z M 45 51 " clip-rule="nonzero"/></clipPath><clipPath id="c9f8034155"><path d="M 45 52 L 131 52 L 131 146.523438 L 45 146.523438 Z M 45 52 " clip-rule="nonzero"/></clipPath></defs><g clip-path="url(#176aa0e88e)"><g clip-path="url(#3a7e88c76c)"><path fill="#fcc0c5" d="M 20.878906 21.003906 L 169.839844 21.003906 L 169.839844 169.964844 L 20.878906 169.964844 Z M 20.878906 21.003906 " fill-opacity="1" fill-rule="nonzero"/></g></g><path fill="#8fcdb6" d="M 47.457031 116.691406 C 47.457031 116.691406 49.796875 115.457031 55.0625 117.535156 C 58.726562 118.964844 72.382812 115.109375 75.070312 116.195312 C 76.609375 116.496094 77.976562 118.054688 78.539062 119.335938 C 78.734375 119.746094 81.921875 122.410156 81.921875 122.710938 C 81.921875 122.84375 78.429688 120.742188 77.671875 120.914062 C 72.167969 122.128906 48.734375 123.839844 47.996094 121.609375 C 47.152344 119.074219 47.457031 116.691406 47.457031 116.691406 Z M 47.457031 116.691406 " fill-opacity="1" fill-rule="nonzero"/><path fill="#260e0d" d="M 112.984375 128.214844 C 112.984375 128.214844 114.046875 129.425781 114.199219 130.011719 C 114.347656 130.59375 113.871094 132.414062 114.199219 133.367188 C 114.523438 134.320312 115.691406 136.074219 115.738281 136.941406 C 116.019531 140.535156 113.289062 145.496094 110.296875 144.476562 C 107.304688 143.457031 107.5 139.105469 108.085938 137.503906 C 103.382812 141.53125 100.152344 137.742188 100.628906 136.636719 C 101.105469 135.53125 103.1875 133.367188 103.1875 133.367188 Z M 79.578125 130.789062 C 79.144531 131.332031 78.953125 132.628906 78.953125 132.628906 L 78.5625 131.960938 C 78.386719 131.65625 78.085938 131.179688 77.910156 130.875 C 77.847656 130.769531 77.78125 130.636719 77.695312 130.550781 C 77.585938 130.421875 77.433594 130.355469 77.304688 130.25 C 76.957031 129.988281 76.761719 129.578125 76.523438 129.230469 C 76.285156 128.882812 75.917969 128.539062 75.484375 128.515625 C 75.332031 128.515625 75.179688 128.558594 75.027344 128.601562 C 74.335938 128.820312 73.769531 129.230469 73.230469 129.6875 C 73.230469 129.6875 71.710938 131.179688 71.582031 132.480469 C 71.582031 132.480469 80.296875 141.378906 81.164062 140.988281 C 81.8125 140.707031 82.03125 138.28125 81.335938 137.113281 C 82.550781 136.570312 88.445312 140.988281 88.707031 140.730469 C 88.964844 140.46875 89.226562 137.871094 87.730469 136.484375 C 86.234375 135.097656 85.128906 132.933594 84.976562 131.960938 C 84.132812 129.359375 80.011719 130.25 79.578125 130.789062 Z M 79.578125 130.789062 " fill-opacity="1" fill-rule="nonzero"/><path fill="#de7760" d="M 131.648438 68.445312 L 131.648438 90.511719 L 127.09375 90.511719 L 127.09375 77.929688 L 114.109375 77.929688 L 114.109375 74.679688 L 127.09375 74.679688 L 127.09375 69.632812 L 128.15625 68.445312 Z M 97.550781 135.097656 L 100.347656 135.097656 L 102.101562 133.28125 L 102.101562 110.28125 L 97.550781 110.28125 Z M 92.414062 141.683594 L 95.207031 141.683594 L 96.964844 139.863281 L 96.964844 116.84375 L 92.414062 116.84375 Z M 121.980469 141.683594 L 124.777344 141.683594 L 126.53125 139.863281 L 126.53125 116.84375 L 121.980469 116.84375 Z M 127.09375 135.097656 L 129.890625 135.097656 L 131.648438 133.28125 L 131.648438 110.28125 L 127.09375 110.28125 Z M 107.566406 116.195312 C 107.519531 116.28125 107.457031 116.996094 107.371094 118.011719 C 105.636719 118.25 102.125 119.507812 102.125 119.507812 C 102.125 119.507812 105.027344 124.121094 106.632812 127.5 C 106.308594 128.796875 105.441406 131.027344 103.164062 133.386719 C 103.078125 134.710938 106.265625 135.769531 108.257812 133.625 C 108.410156 135.121094 108.453125 136.441406 108.539062 137.242188 C 108.691406 138.695312 108.800781 140.144531 110.449219 140.144531 C 112.09375 140.144531 113.546875 138.847656 112.746094 134.753906 C 111.941406 130.660156 112.960938 128.214844 112.960938 128.214844 C 112.808594 128.039062 112.613281 127.800781 112.421875 127.542969 C 112.3125 125.570312 112.09375 121.046875 113.199219 117.96875 C 114.371094 114.699219 107.714844 115.890625 107.566406 116.195312 Z M 107.566406 116.195312 " fill-opacity="1" fill-rule="nonzero"/><g clip-path="url(#4962445a7f)"><path fill="#a44c3d" d="M 59.59375 111.601562 L 58.554688 92.089844 L 69.523438 85.441406 L 151.394531 85.441406 L 151.394531 113.984375 L 144.242188 120.242188 L 82.117188 119.378906 Z M 59.59375 111.601562 " fill-opacity="1" fill-rule="nonzero"/></g><path fill="#de7760" d="M 86.148438 118.273438 C 85.953125 119.246094 85.78125 120.460938 85.605469 121.757812 C 78.953125 128.019531 74.097656 124.164062 74.007812 123.40625 C 73.988281 123.144531 73.964844 122.972656 73.964844 122.972656 C 73.964844 122.972656 74.203125 122.886719 75.722656 121.671875 C 76.914062 121.21875 78.84375 120.417969 78.84375 120.417969 C 78.84375 120.265625 78.820312 120.136719 78.800781 120.003906 C 82.722656 114.589844 83.328125 113.488281 84.761719 109.15625 C 85.453125 109.371094 86.972656 114.09375 86.148438 118.273438 Z M 86.148438 118.273438 " fill-opacity="1" fill-rule="nonzero"/><g clip-path="url(#ce0b8b722e)"><path fill="#a44c3d" d="M 78.367188 119.269531 C 80.730469 116.886719 83.308594 113.488281 84.738281 109.15625 C 84.847656 109.175781 84.023438 114.246094 78.777344 120.003906 C 78.710938 119.722656 78.582031 119.484375 78.367188 119.269531 Z M 144.242188 119.160156 L 139.6875 119.160156 L 139.6875 143.976562 L 142.484375 143.976562 L 144.242188 142.160156 Z M 151.394531 109.285156 L 146.84375 109.285156 L 146.84375 134.101562 L 149.640625 134.101562 L 151.394531 132.285156 Z M 151.394531 109.285156 " fill-opacity="1" fill-rule="nonzero"/></g><path fill="#260e0d" d="M 108.257812 133.605469 C 108 133.886719 107.714844 134.125 107.414062 134.296875 C 107.324219 132.867188 107.042969 130.53125 106.242188 128.6875 C 106.414062 128.234375 106.546875 127.824219 106.632812 127.476562 C 106.652344 127.476562 108.582031 131.179688 108.257812 133.605469 Z M 106.199219 93.042969 C 106.199219 93.042969 108.800781 92.632812 111.878906 92.523438 C 114.957031 92.417969 124.429688 92.523438 127.3125 87.003906 C 127.527344 86.4375 127.59375 85.917969 127.570312 85.464844 L 109.472656 85.464844 Z M 106.199219 93.042969 " fill-opacity="0.2471" fill-rule="nonzero"/><path fill="#a44c3d" d="M 79.625 134.472656 C 81.941406 133.800781 83.375 135.035156 84.761719 136.507812 C 86.148438 137.980469 88.230469 138.890625 88.640625 139.949219 C 89.050781 141.011719 87.882812 142.503906 85.953125 141.140625 C 84.023438 139.777344 80.492188 136.464844 79.601562 135.792969 C 78.496094 134.925781 79.625 134.472656 79.625 134.472656 Z M 77.152344 139.820312 C 79.339844 141.574219 81.207031 141.574219 81.335938 140.644531 C 81.464844 139.710938 79.535156 138.390625 77.628906 135.855469 C 75.722656 133.300781 71.863281 131.613281 71.582031 132.480469 C 71.0625 134.039062 72.945312 136.421875 77.152344 139.820312 Z M 130.042969 69.9375 C 130.042969 69.9375 130.171875 85.292969 130.433594 85.054688 C 130.695312 84.816406 130.433594 69.871094 130.433594 69.871094 C 130.433594 69.871094 131.472656 68.855469 131.320312 68.8125 C 131.171875 68.769531 130.367188 69.613281 130.066406 69.613281 C 129.761719 69.613281 127.570312 69.613281 127.570312 69.613281 C 127.136719 69.871094 130.042969 69.9375 130.042969 69.9375 Z M 126.703125 74.660156 L 126.703125 77.90625 L 127.09375 77.90625 C 127.09375 77.90625 127.117188 74.746094 127.09375 74.660156 Z M 126.703125 74.660156 " fill-opacity="1" fill-rule="nonzero"/><path fill="#260e0d" d="M 116.214844 63.179688 C 116.148438 63.441406 115.886719 63.613281 115.605469 63.65625 C 115.347656 63.722656 115.066406 63.679688 114.804688 63.636719 C 113.71875 63.484375 112.636719 63.398438 111.554688 63.355469 C 110.554688 63.332031 109.492188 63.332031 108.625 62.8125 C 108.171875 62.53125 107.824219 62.140625 107.414062 61.796875 C 107.023438 61.449219 106.546875 61.144531 106.003906 61.144531 C 105.417969 61.125 104.875 61.46875 104.335938 61.707031 C 103.273438 62.140625 101.949219 62.121094 101.019531 61.425781 C 100.648438 61.167969 100.347656 60.800781 100.042969 60.472656 C 99.175781 59.519531 98.285156 58.632812 97.246094 57.855469 C 97.246094 57.855469 94.96875 55.492188 96.097656 50.640625 C 97.203125 46.984375 99.890625 45.769531 100.519531 45.835938 C 102.839844 44.882812 107.195312 44.363281 109.730469 48.410156 C 112.269531 52.460938 110.773438 57.574219 110.773438 57.574219 C 110.773438 57.574219 110.554688 58.394531 111.25 58.613281 C 111.941406 58.828125 114.914062 59.519531 115.953125 62.25 C 116.082031 62.574219 116.320312 62.855469 116.214844 63.179688 Z M 55.105469 118.292969 C 61.523438 119.3125 70.128906 117.515625 73.707031 117.796875 C 76.132812 117.992188 77.652344 118.53125 78.34375 119.289062 C 81.011719 116.605469 83.957031 112.640625 85.238281 107.46875 C 83.523438 107.53125 82.136719 105.648438 77.519531 105.863281 C 77.519531 105.863281 76.089844 105.042969 73.988281 105.214844 C 71.882812 105.386719 66.8125 105.710938 65.207031 106.277344 L 49.015625 109.589844 C 49.039062 109.589844 48.996094 115.71875 55.105469 118.292969 Z M 55.105469 118.292969 " fill-opacity="1" fill-rule="nonzero"/><path fill="#8fcdb6" d="M 113.417969 61.988281 C 120.503906 63.269531 121.957031 64.609375 124.277344 69.246094 C 126.878906 75.589844 127.875 85.660156 127.007812 86.980469 C 122.542969 93.238281 112.808594 91.355469 109.796875 91.851562 C 109.796875 91.851562 96.792969 89.339844 96.464844 82.496094 C 96.140625 75.65625 98.242188 68.398438 99.285156 66.625 C 100.324219 64.847656 103.402344 63.980469 103.402344 63.980469 L 105.375 63.527344 Z M 113.417969 61.988281 " fill-opacity="1" fill-rule="nonzero"/><g clip-path="url(#cbe13355e6)"><path fill="#efd9c2" d="M 110.75 57.679688 C 110.75 57.679688 111.226562 58.285156 111.25 58.613281 C 111.25 58.613281 110.75 59.890625 110.296875 60.042969 C 109.820312 60.191406 109.644531 59.457031 109.644531 59.457031 C 109.644531 59.457031 110.6875 58.003906 110.75 57.679688 Z M 104.636719 62.554688 C 104.636719 62.640625 103.402344 64.003906 103.402344 64.003906 C 103.402344 64.003906 102.425781 66.300781 104.398438 69.441406 C 105.050781 70.347656 105.136719 74.355469 104.964844 75.265625 C 104.789062 76.175781 104.789062 79.054688 105.875 81.71875 C 106.980469 84.382812 108.28125 88 108.28125 88 C 108.28125 88 111.054688 88.085938 112.984375 86.394531 C 112.984375 86.394531 110.46875 80.460938 110.058594 77.84375 C 109.644531 75.242188 110.296875 69.527344 110.644531 69.179688 C 110.988281 68.832031 113.765625 64.933594 113.394531 61.988281 C 113.394531 61.988281 111.683594 60.886719 111.445312 60.710938 C 111.207031 60.539062 110.449219 60.300781 110.449219 60.300781 Z M 107.695312 90.054688 L 104.355469 88.324219 L 101.710938 79.984375 C 101.625 79.726562 101.410156 79.574219 101.148438 79.574219 L 83.113281 79.574219 C 82.464844 79.574219 81.984375 80.222656 82.203125 80.851562 L 85.867188 92.070312 C 86.0625 92.675781 86.625 93.066406 87.253906 93.066406 L 106.242188 93.066406 L 108.34375 92.113281 Z M 69.847656 93.78125 C 69.328125 90.53125 67.332031 84.921875 66.574219 83.949219 C 65.816406 82.972656 62.390625 81.113281 62.390625 81.113281 C 62.390625 81.113281 62.085938 80.742188 61.914062 80.59375 C 61.738281 80.441406 60.09375 79.855469 60.09375 79.855469 C 60.09375 79.855469 55.972656 78.125 55.042969 78.296875 C 54.109375 78.46875 53.523438 78.511719 53.351562 79.8125 C 53.351562 79.8125 50.25 80.960938 49.425781 81.632812 L 49.210938 82.304688 C 49.210938 82.304688 47.238281 83.492188 46.695312 84.46875 C 46.175781 85.421875 43.226562 94.539062 42.988281 97.050781 C 42.988281 97.050781 44.59375 98.457031 47.5625 99.128906 L 49.015625 109.609375 C 49.015625 109.609375 61.003906 115.78125 67.765625 106.492188 C 67.765625 104.890625 65.902344 97.050781 65.902344 97.050781 Z M 85.605469 121.757812 C 85.042969 121.542969 84.414062 121.457031 83.808594 121.414062 C 81.898438 121.304688 79.839844 121.714844 78.472656 123.058594 C 78.234375 123.296875 78.019531 123.535156 77.738281 123.707031 C 76.847656 124.183594 75.808594 123.601562 74.8125 123.449219 C 74.550781 123.40625 74.289062 123.40625 74.03125 123.425781 C 74.117188 124.207031 74.269531 125.875 74.183594 127.152344 C 74.117188 128.082031 73.230469 129.707031 73.230469 129.707031 C 73.230469 129.707031 74.246094 129.664062 75.308594 129.75 C 76.371094 129.835938 78.5625 131.980469 78.5625 131.980469 C 78.324219 130.421875 79.578125 127.128906 79.578125 127.128906 C 79.863281 128.0625 79.578125 130.8125 79.578125 130.8125 C 79.578125 130.8125 80.402344 130.53125 81.617188 130.53125 C 82.832031 130.53125 84.976562 131.980469 84.976562 131.980469 C 84.78125 131.070312 85.085938 125.984375 85.605469 121.757812 Z M 79.210938 133.800781 C 79.210938 133.800781 80.578125 133.257812 81.660156 133.582031 L 81.660156 132.4375 C 81.660156 132.4375 79.515625 131.9375 79.320312 132.804688 C 79.296875 132.976562 79.167969 133.625 79.210938 133.800781 Z M 73.335938 131.960938 L 73.75 131.203125 C 73.75 131.203125 72.902344 130.941406 72.167969 130.984375 C 71.992188 131.246094 71.839844 131.527344 71.734375 131.808594 C 71.929688 131.722656 72.664062 131.484375 73.335938 131.960938 Z M 73.335938 131.960938 " fill-opacity="1" fill-rule="nonzero"/></g><path fill="#260e0d" d="M 57.363281 79.421875 C 57.296875 79.726562 56.539062 80.441406 56.472656 80.417969 C 56.40625 80.398438 56.277344 79.445312 56.277344 79.445312 C 56.277344 79.445312 55.953125 80.460938 55.800781 80.441406 C 55.648438 80.417969 55.605469 79.574219 55.605469 79.574219 C 55.605469 79.574219 54.867188 80.613281 54.761719 80.570312 C 54.652344 80.527344 54.652344 79.507812 54.652344 79.507812 C 54.652344 79.507812 54.023438 80.636719 53.957031 80.570312 C 53.894531 80.527344 53.957031 79.921875 53.71875 79.054688 C 53.71875 79.054688 53.566406 80.265625 53.4375 80.117188 C 53.265625 78.664062 51.769531 77.472656 51.769531 77.472656 C 51.769531 77.472656 51.746094 78.101562 51.683594 78.101562 C 51.617188 78.101562 51.53125 77.234375 51.117188 76.867188 C 50.707031 76.5 46.632812 73.617188 48.171875 68.550781 C 49.710938 63.484375 54.910156 62.488281 55.800781 63.222656 C 57.96875 61.859375 62.890625 63.417969 63.324219 66.167969 C 63.757812 68.917969 62.738281 70.046875 62.738281 70.046875 " fill-opacity="1" fill-rule="nonzero"/><g clip-path="url(#030f70f4c1)"><path fill="#260e0d" d="M 118.902344 79.746094 C 119.03125 78.082031 118.792969 76.304688 117.882812 73.230469 C 117.664062 72.449219 118.335938 73.230469 118.988281 74.851562 C 119.574219 76.304688 120.460938 81.371094 120.636719 82.433594 C 123.148438 82.324219 123.453125 83.148438 123.214844 83.105469 C 122.953125 83.0625 121.675781 82.585938 119.59375 82.972656 C 117.535156 83.386719 112.984375 86.417969 112.984375 86.417969 C 112.722656 86.632812 112.464844 86.828125 112.183594 87.003906 C 111.25 84.316406 110.554688 80.789062 110.210938 78.707031 C 110.792969 81.070312 112.289062 84.792969 112.789062 86.007812 C 112.789062 86.007812 115.128906 84.316406 117.515625 83.257812 C 117.644531 82.042969 118.769531 81.414062 118.902344 79.746094 Z M 118.53125 66.082031 C 118.683594 65.757812 118.816406 65.410156 118.964844 65.085938 C 119.183594 64.632812 119.507812 64.21875 119.898438 63.894531 C 119.726562 63.808594 119.550781 63.699219 119.355469 63.613281 C 118.792969 64.351562 118.445312 65.261719 118.335938 66.167969 C 118.425781 66.234375 118.488281 66.148438 118.53125 66.082031 Z M 111.121094 70.652344 C 110.792969 71.019531 111.574219 70.914062 112.421875 69.828125 C 113.265625 68.746094 114.5 67.316406 114.890625 65.214844 C 115.28125 63.117188 114.957031 62.511719 114.890625 62.964844 C 114.890625 62.984375 114.523438 68.097656 111.121094 70.652344 Z M 111.554688 69.632812 C 111.574219 69.570312 111.574219 69.503906 111.53125 69.441406 C 111.488281 69.375 111.445312 69.332031 111.402344 69.289062 C 111.316406 69.203125 111.226562 69.113281 111.121094 69.050781 C 110.902344 69.222656 111.554688 69.632812 111.554688 69.632812 Z M 112.355469 67.511719 C 112.421875 67.75 112.875 67.859375 113.09375 67.859375 C 113.070312 67.773438 112.984375 67.707031 112.898438 67.640625 C 112.789062 67.578125 112.289062 67.210938 112.355469 67.511719 Z M 113.570312 66.300781 C 113.613281 66.277344 113.632812 66.234375 113.613281 66.191406 C 113.589844 66.148438 113.570312 66.125 113.527344 66.082031 C 113.375 65.953125 113.15625 65.867188 112.941406 65.910156 L 112.941406 65.953125 C 113.09375 66.082031 113.265625 66.210938 113.460938 66.277344 C 113.503906 66.300781 113.546875 66.320312 113.570312 66.300781 Z M 114.046875 64.371094 C 114.089844 64.351562 114.132812 64.308594 114.109375 64.265625 C 114.109375 64.242188 114.066406 64.199219 114.046875 64.199219 C 113.894531 64.089844 113.675781 64.070312 113.503906 64.175781 L 113.480469 64.21875 C 113.613281 64.308594 113.742188 64.351562 113.894531 64.394531 C 113.960938 64.394531 114.003906 64.394531 114.046875 64.371094 Z M 112.421875 66.300781 C 112.527344 66.082031 112.613281 65.867188 112.722656 65.628906 C 112.09375 66.019531 110.296875 67.101562 110.273438 67.253906 C 110.273438 67.382812 111.703125 66.667969 112.421875 66.300781 Z M 110.492188 69.679688 C 110.535156 69.484375 110.578125 69.351562 110.621094 69.265625 C 110.578125 69.351562 107.457031 71.734375 107.457031 71.886719 C 107.457031 72.015625 109.753906 70.242188 110.492188 69.679688 Z M 106.914062 71.886719 C 106.957031 71.777344 104.59375 69.828125 104.53125 69.632812 C 104.59375 69.785156 104.679688 70.003906 104.726562 70.242188 C 105.484375 70.847656 106.890625 71.972656 106.914062 71.886719 Z M 103.1875 69.742188 C 101.992188 67.597656 102.515625 64.328125 102.515625 64.328125 L 102.058594 64.523438 C 102.058594 64.523438 101.929688 65.84375 102.230469 67.859375 C 102.515625 69.851562 103.359375 70.132812 103.1875 69.742188 Z M 99.675781 73.292969 C 99.824219 73.488281 100.0625 74.03125 100.28125 74.117188 C 100.28125 73.945312 100.171875 73.769531 100.0625 73.617188 C 99.738281 73.121094 99.414062 72.644531 99.046875 72.191406 C 99.003906 72.148438 98.957031 72.082031 98.871094 72.082031 C 98.871094 72.210938 98.9375 72.320312 99.003906 72.429688 C 99.242188 72.710938 99.457031 72.992188 99.675781 73.292969 Z M 99.890625 76.476562 C 99.695312 77.453125 99.585938 78.792969 99.824219 79.574219 L 100.910156 79.574219 C 100.519531 78.425781 100.257812 76.695312 100.671875 75.460938 C 101.191406 73.921875 101.277344 71.410156 101.167969 70.761719 C 101.019531 70.371094 100.867188 70.4375 100.910156 71.972656 C 100.976562 73.511719 100.28125 74.550781 99.890625 76.476562 Z M 100.476562 80.050781 C 100.496094 80.203125 104.140625 92.65625 104.550781 92.847656 C 104.964844 93.042969 104.507812 92.113281 104.507812 92.113281 C 104.507812 92.113281 100.738281 80.355469 100.671875 80.050781 C 100.628906 79.746094 100.390625 79.574219 100.476562 80.050781 Z M 62.390625 81.089844 C 62.390625 81.089844 62.152344 87.957031 61.914062 88.300781 C 57.644531 89.859375 49.535156 88.257812 49.472656 88.128906 C 49.40625 88 49.210938 82.28125 49.210938 82.28125 C 49.210938 82.28125 49.101562 82.347656 48.90625 82.476562 C 48.90625 82.476562 48.929688 88.0625 49.339844 88.625 C 52.894531 90.378906 61.15625 89.664062 62.261719 89.191406 C 62.84375 88.191406 62.890625 83.320312 62.890625 81.371094 C 62.585938 81.199219 62.390625 81.089844 62.390625 81.089844 Z M 55.453125 117.535156 C 54.132812 117.082031 51.226562 118.25 51.574219 118.425781 C 51.921875 118.578125 53.328125 118.101562 55.105469 118.316406 C 55.105469 118.292969 56.777344 117.992188 55.453125 117.535156 Z M 79.90625 136.007812 C 79.339844 135.53125 79.167969 135.273438 79.167969 135.273438 C 78.605469 134.6875 78.953125 132.609375 78.953125 132.609375 L 78.84375 132.414062 L 78.84375 135.46875 C 79.578125 136.421875 80.945312 137.546875 81.683594 138.109375 C 81.640625 137.851562 81.550781 137.589844 81.464844 137.375 C 81.445312 137.375 80.492188 136.507812 79.90625 136.007812 Z M 78.84375 124.140625 L 78.84375 126.828125 L 79.191406 128.277344 C 79.40625 127.605469 79.578125 127.128906 79.578125 127.128906 C 79.363281 125.246094 79.082031 123.382812 78.84375 121.890625 Z M 80.207031 129.253906 C 80.230469 129.144531 80.230469 128.167969 80.25 127.867188 C 80.25 127.367188 80.25 126.871094 80.230469 126.371094 C 80.207031 125.398438 80.207031 124.378906 80.058594 123.425781 C 79.535156 123.277344 79.949219 125.050781 79.96875 125.398438 C 80.035156 126.265625 80.058594 127.152344 80.011719 128.019531 C 79.992188 128.453125 80.011719 129.339844 80.207031 129.253906 Z M 81.445312 128.539062 C 81.445312 128.734375 81.464844 129.1875 81.597656 129.058594 C 81.597656 127.085938 81.574219 125.117188 81.507812 123.144531 C 81.507812 123.015625 81.488281 122.886719 81.402344 122.800781 C 80.988281 122.410156 81.25 123.492188 81.269531 123.578125 C 81.335938 124.054688 81.355469 124.53125 81.355469 125.007812 C 81.402344 126.175781 81.421875 127.347656 81.445312 128.539062 Z M 83.242188 122.5625 C 83.070312 122.605469 83.136719 123.101562 83.136719 123.210938 C 83.136719 123.773438 83.136719 124.335938 83.136719 124.898438 C 83.136719 126.027344 83.15625 127.171875 83.15625 128.300781 C 83.15625 128.453125 83.113281 128.777344 83.222656 128.710938 C 83.328125 128.667969 83.328125 128.515625 83.328125 128.40625 C 83.351562 126.609375 83.375 124.792969 83.394531 122.992188 C 83.417969 122.863281 83.417969 122.515625 83.242188 122.5625 Z M 47.648438 89.253906 C 47.410156 89.253906 47.457031 92.523438 47.457031 92.523438 L 48.128906 92.523438 C 48.128906 92.523438 47.886719 89.253906 47.648438 89.253906 Z M 63.128906 91.074219 C 62.976562 91.09375 63.324219 93.195312 63.324219 93.195312 L 63.648438 92.847656 C 63.625 92.847656 63.277344 91.03125 63.128906 91.074219 Z M 65.945312 84.1875 C 65.945312 84.1875 63.84375 84.773438 63.324219 87.414062 C 63.367188 87.867188 63.582031 86.980469 63.820312 86.589844 C 64.058594 86.199219 64.40625 85.097656 65.316406 84.707031 C 66.226562 84.316406 66.183594 84.078125 65.945312 84.1875 Z M 109.96875 76.933594 Z M 109.6875 88.410156 C 109.6875 88.429688 109.730469 88.429688 109.753906 88.429688 C 109.96875 88.453125 110.210938 88.429688 110.402344 88.34375 C 110.449219 88.324219 110.492188 88.300781 110.511719 88.257812 C 110.273438 88.148438 109.96875 88.238281 109.730469 88.324219 C 109.710938 88.367188 109.6875 88.386719 109.6875 88.410156 Z M 110.121094 89.277344 C 110.273438 89.253906 110.425781 89.210938 110.578125 89.125 C 110.707031 89.039062 110.6875 88.929688 110.554688 88.90625 C 110.402344 88.886719 110.164062 88.996094 110.058594 89.082031 C 110.015625 89.101562 109.949219 89.167969 109.96875 89.210938 C 109.96875 89.277344 110.058594 89.277344 110.121094 89.277344 Z M 110.164062 90.402344 C 110.273438 90.425781 110.988281 90.359375 110.792969 90.140625 C 110.664062 89.992188 110.164062 90.140625 110.078125 90.273438 C 110.058594 90.292969 110.058594 90.335938 110.078125 90.359375 C 110.121094 90.402344 110.144531 90.402344 110.164062 90.402344 Z M 110.296875 91.441406 C 110.402344 91.464844 111.03125 91.441406 110.925781 91.246094 C 110.835938 91.050781 110.382812 91.226562 110.273438 91.289062 C 110.230469 91.3125 110.1875 91.355469 110.210938 91.398438 C 110.210938 91.421875 110.253906 91.441406 110.296875 91.441406 Z M 111.8125 90.75 C 111.898438 90.707031 111.898438 90.597656 111.898438 90.511719 C 111.878906 89.664062 111.640625 88.863281 111.421875 88.042969 C 111.359375 87.847656 111.316406 87.628906 111.207031 87.457031 C 111.164062 87.480469 110.816406 87.585938 110.816406 87.585938 C 111.421875 88.386719 111.574219 89.40625 111.703125 90.402344 C 111.726562 90.53125 111.75 90.640625 111.8125 90.75 Z M 92.5625 85.8125 C 92.457031 85.875 92.347656 85.960938 92.261719 86.050781 C 91.957031 86.375 91.804688 86.851562 91.871094 87.304688 C 91.9375 87.738281 92.152344 88.128906 92.519531 88.367188 C 92.890625 88.605469 93.367188 88.648438 93.757812 88.476562 C 93.863281 88.410156 93.972656 88.34375 94.058594 88.257812 C 94.472656 87.890625 94.6875 87.304688 94.601562 86.765625 C 94.492188 86.113281 93.953125 85.679688 93.367188 85.636719 C 93.34375 85.183594 93.429688 84.75 93.539062 84.273438 C 93.453125 84.164062 93.300781 84.144531 93.171875 84.144531 C 93.019531 84.339844 92.976562 84.578125 92.953125 84.816406 C 92.953125 85.011719 92.953125 85.183594 92.976562 85.378906 C 92.867188 85.25 92.738281 85.160156 92.585938 85.097656 C 92.347656 84.988281 92.066406 84.988281 91.828125 85.097656 C 91.957031 85.441406 92.238281 85.703125 92.5625 85.8125 Z M 107.628906 75.285156 C 107.824219 75.285156 107.933594 75.089844 107.976562 74.898438 C 108.042969 74.617188 108 74.117188 107.628906 74.074219 C 107.195312 74.03125 107.28125 74.59375 107.324219 74.875 C 107.324219 75.046875 107.433594 75.265625 107.628906 75.285156 Z M 107.652344 78.859375 C 107.261719 78.839844 107.5 79.640625 107.585938 79.8125 C 107.628906 79.878906 107.671875 79.941406 107.738281 79.984375 C 107.804688 80.027344 107.890625 80.050781 107.953125 80.007812 C 108.042969 79.964844 108.0625 79.855469 108.085938 79.769531 C 108.105469 79.554688 107.976562 78.902344 107.652344 78.859375 Z M 108.671875 83.601562 C 108.386719 83.710938 108.648438 84.273438 108.734375 84.425781 C 108.800781 84.554688 108.929688 84.683594 109.058594 84.683594 C 109.167969 84.554688 109.210938 84.359375 109.191406 84.1875 C 109.167969 83.992188 108.929688 83.492188 108.671875 83.601562 Z M 150.746094 86.179688 C 150.09375 86.289062 143.007812 94.820312 143.007812 94.820312 C 143.007812 94.820312 81.402344 94.820312 80.730469 94.820312 C 80.058594 94.820312 80.207031 95.554688 82.398438 95.554688 C 84.585938 95.554688 141.8125 95.492188 142.746094 95.554688 C 142.746094 95.554688 142.269531 142.3125 142.3125 142.875 C 142.355469 143.4375 142.746094 143.046875 142.746094 142.59375 C 142.746094 142.117188 143.460938 95.578125 143.460938 95.578125 C 143.460938 95.578125 151.394531 86.070312 150.746094 86.179688 Z M 80.816406 94.277344 C 80.902344 94.191406 80.988281 94.128906 81.097656 94.0625 C 81.269531 93.996094 81.445312 93.996094 81.640625 93.996094 C 81.898438 93.996094 82.917969 93.953125 83.003906 93.628906 C 83.003906 93.605469 83.003906 93.585938 83.003906 93.5625 C 82.613281 93.5625 82.074219 93.304688 81.769531 93.238281 C 81.335938 93.152344 81.054688 93.433594 81.054688 93.433594 C 79.773438 95.492188 78.539062 96.226562 77.867188 95.6875 C 76.71875 96.359375 73.75 102.03125 69.890625 101.921875 C 69.976562 102.226562 70.0625 102.53125 70.257812 102.769531 C 70.734375 103.351562 71.644531 104.003906 72.382812 103.9375 C 73.769531 103.808594 76.199219 102.960938 77.695312 98.15625 C 77.867188 97.636719 78.019531 97.070312 78.472656 96.746094 C 78.648438 96.617188 78.863281 96.550781 79.039062 96.464844 C 79.882812 96.03125 80.144531 94.949219 80.816406 94.277344 Z M 149.898438 115.304688 L 149.378906 115.761719 L 146.84375 117.992188 L 149.226562 117.710938 C 149.160156 124.121094 149.335938 133.496094 149.574219 133.433594 C 149.769531 133.152344 149.726562 126.199219 149.769531 125.074219 C 149.789062 124.464844 149.898438 120.613281 149.921875 117.210938 L 151.417969 115.285156 L 151.417969 113.984375 Z M 149.898438 115.304688 " fill-opacity="0.2471" fill-rule="nonzero"/></g><g clip-path="url(#2c820bf7cb)"><path fill="#de7760" d="M 104.421875 62.140625 C 100.433594 63.980469 97.269531 57.855469 97.269531 57.855469 C 97.613281 57.441406 96.597656 51.984375 98.179688 51.59375 C 100.390625 54.0625 107 55.058594 108.128906 52.160156 C 109.363281 52.179688 109.925781 53.761719 108.757812 55.058594 C 109.015625 59.414062 111.226562 60.90625 111.226562 61.859375 C 109.558594 63.808594 107.457031 70.957031 107.457031 70.957031 C 107.457031 70.957031 106.027344 68.355469 105.398438 66.734375 C 104.789062 65.085938 105.179688 63.960938 104.421875 62.140625 Z M 105.65625 87.523438 C 105.222656 87.609375 104.335938 88.324219 104.335938 88.324219 L 105.59375 91.875 C 105.59375 91.875 106.308594 91.269531 106.503906 91.441406 C 107.175781 92.089844 108.648438 92.308594 109.796875 91.875 C 109.992188 90.273438 109.148438 88 109.148438 88 C 108.386719 88.042969 106.113281 87.414062 105.65625 87.523438 Z M 83.375 93.433594 C 83.046875 93.84375 82.179688 93.347656 81.746094 93.261719 C 81.3125 93.175781 81.03125 93.457031 81.03125 93.457031 C 79.753906 95.511719 78.519531 96.25 77.847656 95.707031 C 76.675781 96.402344 73.53125 102.441406 69.480469 101.921875 C 68.222656 101.769531 67.222656 101.144531 66.445312 100.386719 L 66.445312 120.417969 L 78.820312 120.417969 L 78.820312 143.003906 L 77.652344 143.828125 L 75.332031 143.828125 L 75.332031 124.121094 L 66.421875 124.121094 L 66.421875 145.644531 L 65.25 146.46875 L 62.953125 146.46875 L 62.953125 124.140625 L 61.414062 124.140625 L 61.414062 143.003906 L 60.246094 143.828125 L 57.925781 143.828125 L 57.925781 124.121094 L 49.039062 124.121094 L 49.039062 145.644531 L 47.867188 146.46875 L 45.546875 146.46875 L 45.546875 93.347656 L 46.632812 92.523438 L 49.015625 92.523438 L 49.015625 97.699219 C 49.015625 97.699219 60.765625 97.699219 62.953125 97.699219 L 62.953125 93.347656 L 64.039062 92.523438 L 66.421875 92.523438 L 66.421875 95.597656 C 68.242188 94.886719 69.824219 93.78125 69.824219 93.78125 L 70.367188 95.316406 C 70.929688 94.667969 74.355469 94.257812 75.289062 93.28125 C 75.589844 92.957031 77 91.09375 77.414062 90.597656 C 77.847656 90.097656 78.453125 90.273438 78.757812 90.316406 C 79.058594 90.335938 79.535156 90.359375 79.710938 90.597656 C 79.863281 90.835938 80.121094 90.683594 80.492188 90.921875 C 80.859375 91.160156 81.941406 91.941406 82.117188 92.113281 C 82.3125 92.285156 83.523438 93.109375 83.375 93.433594 Z M 62.953125 109.414062 L 49.039062 109.414062 L 49.039062 120.417969 L 62.953125 120.417969 Z M 62.953125 101.164062 L 49.039062 101.164062 L 49.039062 105.949219 C 49.039062 105.949219 60.785156 105.949219 62.976562 105.949219 L 62.976562 101.164062 Z M 58.46875 74.527344 C 58.46875 74.527344 58.140625 75.046875 57.601562 75.136719 C 57.75 78.035156 57.363281 79.402344 57.363281 79.402344 C 58.792969 79.402344 60.113281 79.835938 60.113281 79.835938 L 60.113281 77.820312 C 60.113281 77.820312 60.808594 77.886719 61.71875 77.753906 C 63.820312 77.515625 62.933594 75.742188 63.257812 75.4375 C 63.582031 75.113281 63.257812 74.789062 63.257812 74.789062 C 63.84375 74.269531 63.019531 73.902344 63.085938 73.144531 C 63.667969 73.035156 64.253906 72.167969 63.929688 71.777344 C 63.605469 71.386719 62.476562 70.414062 62.476562 68.746094 C 62.21875 69.589844 61.15625 70.933594 60.9375 71.148438 C 60.742188 71.386719 60.308594 71.605469 60.4375 71.410156 C 61.132812 70.566406 61.175781 68.421875 61.175781 68.421875 C 59.875 72.992188 57.230469 72.40625 56.90625 71.84375 C 56.582031 71.28125 54.933594 71.105469 55.0625 72.601562 C 55.195312 74.09375 56.820312 74.746094 58.46875 74.527344 Z M 58.46875 74.527344 " fill-opacity="1" fill-rule="nonzero"/></g><g clip-path="url(#c9f8034155)"><path fill="#a44c3d" d="M 100.476562 126.070312 C 100.433594 127.195312 100.476562 134.148438 100.28125 134.429688 C 99.933594 134.515625 99.695312 113.355469 100.28125 112.816406 C 100.867188 112.273438 100.519531 124.941406 100.476562 126.070312 Z M 109.90625 120.570312 C 109.429688 119.507812 109.082031 119.140625 109.148438 119.722656 C 109.234375 120.308594 110.253906 122.648438 110.597656 124.011719 C 110.945312 125.398438 111.941406 127.238281 112.421875 127.542969 C 113.070312 127.605469 111.8125 126.027344 111.421875 125.460938 C 111.03125 124.921875 110.359375 121.609375 109.90625 120.570312 Z M 106.328125 60.734375 C 106.175781 60.777344 105.851562 61.511719 104.421875 62.164062 C 104.59375 62.554688 104.703125 62.921875 104.789062 63.269531 C 105.894531 62.835938 106.460938 60.691406 106.328125 60.734375 Z M 108.648438 52.851562 C 108.238281 53.089844 108.042969 54 108.238281 54.433594 C 108.367188 54.582031 108.34375 54.324219 108.367188 54.019531 C 108.367188 53.890625 108.496094 53.21875 108.648438 53.066406 C 108.757812 52.960938 108.820312 52.808594 108.648438 52.851562 Z M 105.308594 89.578125 C 105.265625 89.558594 105.050781 89.730469 104.898438 89.859375 L 104.964844 90.054688 C 105.203125 89.882812 105.441406 89.621094 105.308594 89.578125 Z M 105.289062 90.945312 L 105.351562 91.117188 C 105.527344 90.898438 105.65625 90.726562 105.613281 90.707031 C 105.546875 90.683594 105.417969 90.792969 105.289062 90.945312 Z M 104.964844 88.5625 C 104.855469 88.519531 104.550781 88.90625 104.550781 88.90625 L 104.59375 89.058594 C 104.8125 88.820312 105.007812 88.582031 104.964844 88.5625 Z M 106.089844 90.402344 C 106.027344 90.402344 105.960938 90.445312 105.9375 90.511719 C 105.9375 90.53125 105.917969 90.554688 105.917969 90.574219 C 105.917969 90.597656 105.9375 90.617188 105.960938 90.617188 C 105.980469 90.617188 106.003906 90.617188 106.027344 90.617188 C 106.070312 90.597656 106.132812 90.574219 106.15625 90.53125 C 106.175781 90.511719 106.175781 90.511719 106.175781 90.488281 C 106.175781 90.46875 106.15625 90.445312 106.132812 90.425781 C 106.15625 90.402344 106.132812 90.402344 106.089844 90.402344 Z M 106.046875 89.425781 C 106.003906 89.382812 105.9375 89.363281 105.875 89.382812 C 105.808594 89.382812 105.742188 89.425781 105.699219 89.472656 C 105.679688 89.492188 105.679688 89.515625 105.699219 89.535156 C 105.699219 89.558594 105.722656 89.558594 105.742188 89.558594 C 105.851562 89.578125 105.980469 89.515625 106.046875 89.425781 Z M 105.613281 88.300781 Z M 105.546875 88.324219 L 105.613281 88.324219 C 105.59375 88.300781 105.570312 88.300781 105.546875 88.324219 Z M 105.613281 88.300781 C 105.503906 88.300781 105.375 88.386719 105.351562 88.496094 C 105.398438 88.519531 105.460938 88.519531 105.527344 88.496094 C 105.570312 88.496094 105.613281 88.476562 105.636719 88.429688 C 105.65625 88.386719 105.679688 88.34375 105.65625 88.300781 C 105.65625 88.324219 105.636719 88.300781 105.613281 88.300781 Z M 66.074219 92.980469 C 65.921875 92.957031 65.554688 93.414062 65.035156 93.519531 C 64.515625 93.628906 63.410156 93.457031 63.410156 93.457031 C 63.039062 93.5 64.144531 93.976562 64.96875 93.890625 C 64.96875 96.703125 65.078125 145.34375 65.121094 145.839844 C 65.164062 146.339844 65.402344 145.925781 65.445312 145.625 C 65.488281 145.320312 65.46875 96.183594 65.46875 93.78125 C 65.988281 93.5 66.183594 93 66.074219 92.980469 Z M 62.519531 98.285156 C 60.136719 98.261719 48.886719 98.21875 48.648438 98.457031 C 48.605469 98.589844 60.113281 98.738281 62.519531 98.78125 L 62.519531 101.1875 L 62.953125 101.1875 L 62.953125 97.722656 L 62.519531 97.722656 Z M 49.039062 109.414062 L 48.234375 109.414062 L 48.234375 106.535156 L 49.039062 105.929688 C 49.039062 105.691406 48.191406 106.339844 47.996094 106.492188 C 47.996094 104.566406 47.996094 102.746094 47.996094 101.144531 C 48.082031 101.296875 49.039062 102.617188 49.039062 102.617188 L 49.039062 101.164062 L 48.234375 101.164062 L 48.234375 98.285156 L 49.039062 97.679688 C 49.167969 97.203125 47.996094 98.242188 47.996094 98.242188 C 47.996094 98.242188 47.996094 98.261719 47.996094 98.285156 C 47.996094 95.707031 47.996094 93.996094 47.996094 93.605469 C 48.539062 93.347656 48.734375 92.847656 48.625 92.828125 C 48.472656 92.804688 48.105469 93.261719 47.585938 93.367188 C 47.066406 93.476562 45.960938 93.304688 45.960938 93.304688 C 45.589844 93.347656 46.695312 93.824219 47.519531 93.738281 C 47.519531 96.550781 47.628906 145.191406 47.671875 145.6875 C 47.714844 146.1875 47.953125 145.777344 47.996094 145.472656 C 48.019531 145.277344 48.019531 124.683594 48.019531 109.503906 C 48.300781 110.390625 49.125 111.125 49.058594 110.933594 L 49.058594 109.414062 Z M 62.519531 106.558594 C 60.179688 106.558594 49.234375 106.578125 48.929688 106.558594 C 48.605469 106.535156 48.90625 106.796875 49.535156 106.839844 C 50.101562 106.859375 60.265625 106.96875 62.519531 107.011719 L 62.519531 109.4375 L 62.953125 109.4375 L 62.953125 105.949219 L 62.519531 105.949219 Z M 77.414062 124.140625 L 75.351562 124.140625 L 75.351562 124.683594 L 77.414062 124.683594 C 77.433594 135.8125 77.476562 142.980469 77.5 143.199219 C 77.542969 143.695312 77.78125 143.285156 77.824219 142.980469 C 77.847656 142.851562 77.847656 135.769531 77.847656 124.683594 L 78.84375 124.683594 L 78.84375 124.140625 Z M 57.925781 124.878906 L 59.984375 124.878906 C 60.007812 135.921875 60.050781 142.980469 60.070312 143.199219 C 60.113281 143.695312 60.351562 143.285156 60.394531 142.980469 C 60.417969 142.851562 60.417969 135.902344 60.417969 124.898438 L 61.414062 124.898438 L 61.414062 124.164062 L 57.925781 124.164062 Z M 95.144531 119.398438 C 94.558594 119.941406 94.796875 141.078125 95.144531 141.011719 C 95.339844 140.730469 95.296875 133.777344 95.339844 132.652344 C 95.382812 131.503906 95.730469 118.859375 95.144531 119.398438 Z M 124.6875 119.398438 C 124.105469 119.941406 124.34375 141.078125 124.6875 141.011719 C 124.882812 140.730469 124.839844 133.777344 124.882812 132.652344 C 124.949219 131.503906 125.296875 118.859375 124.6875 119.398438 Z M 129.828125 112.816406 C 129.242188 113.355469 129.480469 134.492188 129.828125 134.429688 C 130.023438 134.148438 129.976562 127.195312 130.023438 126.070312 C 130.066406 124.941406 130.410156 112.273438 129.828125 112.816406 Z M 56.039062 72.710938 C 56.253906 72.773438 56.449219 72.925781 56.601562 73.121094 C 56.667969 73.230469 56.734375 73.335938 56.820312 73.425781 C 56.839844 73.46875 56.882812 73.488281 56.929688 73.46875 C 56.972656 73.445312 56.972656 73.425781 56.949219 73.382812 C 56.882812 73.144531 56.753906 72.925781 56.558594 72.753906 C 56.363281 72.601562 56.125 72.492188 55.867188 72.492188 C 55.824219 72.515625 55.867188 72.621094 55.910156 72.667969 C 55.929688 72.6875 55.972656 72.6875 56.039062 72.710938 Z M 70.390625 95.316406 C 70.539062 95.816406 70.585938 96.746094 70.714844 96.789062 C 70.824219 96.832031 70.910156 95.75 70.84375 95.015625 C 70.628906 95.125 70.476562 95.210938 70.390625 95.316406 Z M 78.324219 95.449219 C 78.234375 95.449219 77.867188 95.707031 77.867188 95.707031 C 77.953125 95.773438 78.039062 95.816406 78.128906 95.835938 C 78.234375 95.664062 78.386719 95.449219 78.324219 95.449219 Z M 81.640625 92.847656 C 81.597656 92.871094 81.292969 93.238281 81.117188 93.414062 C 81.207031 93.347656 81.359375 93.261719 81.550781 93.238281 C 81.597656 93.042969 81.660156 92.828125 81.640625 92.847656 Z M 82.203125 93.414062 C 82.246094 93.433594 82.3125 93.457031 82.355469 93.476562 C 82.441406 93.347656 82.484375 93.261719 82.441406 93.261719 C 82.417969 93.261719 82.3125 93.324219 82.203125 93.414062 Z M 60.113281 78.945312 L 60.113281 77.84375 C 59.289062 77.734375 58.945312 77.320312 58.792969 77.410156 C 58.660156 77.472656 59.355469 78.535156 60.113281 78.945312 Z M 60.113281 78.945312 " fill-opacity="1" fill-rule="nonzero"/></g><path fill="#260e0d" d="M 101.167969 59.109375 C 100.152344 59.304688 99.957031 58.222656 99.933594 57.574219 C 99.914062 57.140625 99.609375 56.878906 99.609375 56.878906 C 99.4375 56.707031 99.675781 56.621094 99.914062 56.945312 C 100.152344 57.269531 100.042969 57.808594 100.238281 58.375 C 100.433594 58.9375 100.886719 58.980469 101.0625 58.980469 C 101.214844 58.9375 101.453125 59.042969 101.167969 59.109375 Z M 102.515625 59.089844 C 102.382812 59.433594 101.777344 59.671875 101.734375 59.695312 C 101.648438 59.738281 101.691406 59.824219 101.84375 59.804688 C 101.992188 59.757812 102.296875 59.628906 102.515625 59.371094 C 102.664062 59.542969 102.796875 60.019531 102.601562 60.105469 C 102.40625 60.214844 102.382812 60.34375 102.601562 60.324219 C 103.25 60.128906 102.515625 59.089844 102.515625 59.089844 Z M 101.863281 56.707031 C 102.035156 56.597656 102.015625 56.292969 101.84375 56.011719 C 101.667969 55.753906 101.386719 55.601562 101.214844 55.710938 C 101.039062 55.816406 101.0625 56.121094 101.234375 56.402344 C 101.410156 56.683594 101.691406 56.8125 101.863281 56.707031 Z M 98.4375 57.140625 C 98.285156 57.226562 98.308594 57.484375 98.460938 57.722656 C 98.613281 57.960938 98.851562 58.070312 98.980469 57.984375 C 99.132812 57.898438 99.109375 57.636719 98.957031 57.398438 C 98.808594 57.160156 98.589844 57.050781 98.4375 57.140625 Z M 100.542969 55.277344 C 100.714844 55.234375 101.929688 54.691406 102.101562 54.453125 C 102.339844 54.128906 100.519531 54.582031 100.257812 54.820312 C 100.152344 54.929688 100.367188 55.320312 100.542969 55.277344 Z M 98.179688 55.730469 C 97.960938 55.773438 97.550781 56.53125 97.441406 56.902344 C 97.355469 57.269531 97.507812 57.355469 97.550781 57.246094 C 97.570312 57.203125 97.941406 56.511719 98.503906 56.25 C 98.632812 56.101562 98.394531 55.6875 98.179688 55.730469 Z M 61.914062 70.628906 C 61.71875 70.628906 61.566406 70.914062 61.566406 71.257812 C 61.566406 71.605469 61.71875 71.886719 61.914062 71.886719 C 62.109375 71.886719 62.261719 71.605469 62.261719 71.257812 C 62.261719 70.914062 62.109375 70.628906 61.914062 70.628906 Z M 62.410156 74.789062 C 62.347656 74.832031 62.867188 75.113281 63.386719 74.984375 C 63.34375 74.851562 63.257812 74.789062 63.257812 74.789062 C 62.910156 74.917969 62.5 74.746094 62.410156 74.789062 Z M 62.410156 74.789062 " fill-opacity="1" fill-rule="nonzero"/></svg>