<svg xmlns="http://www.w3.org/2000/svg" xmlns:xlink="http://www.w3.org/1999/xlink" width="816" zoomAndPan="magnify" viewBox="0 0 612 791.999994" height="1056" preserveAspectRatio="xMidYMid meet" version="1.0"><defs><clipPath id="2fea581bac"><path d="M 126.199219 216.199219 L 485.800781 216.199219 L 485.800781 575.800781 L 126.199219 575.800781 Z M 126.199219 216.199219 " clip-rule="nonzero"/></clipPath><clipPath id="18a1d91233"><path d="M 306 216.199219 C 206.699219 216.199219 126.199219 296.699219 126.199219 396 C 126.199219 495.300781 206.699219 575.800781 306 575.800781 C 405.300781 575.800781 485.800781 495.300781 485.800781 396 C 485.800781 296.699219 405.300781 216.199219 306 216.199219 " clip-rule="nonzero"/></clipPath><clipPath id="c3259b67a7"><path d="M 217 371 L 441.328125 371 L 441.328125 456 L 217 456 Z M 217 371 " clip-rule="nonzero"/></clipPath><clipPath id="b13ccc7743"><path d="M 264 429 L 441.328125 429 L 441.328125 514 L 264 514 Z M 264 429 " clip-rule="nonzero"/></clipPath><clipPath id="eb00f9f12d"><path d="M 179.578125 304 L 350 304 L 350 489 L 179.578125 489 Z M 179.578125 304 " clip-rule="nonzero"/></clipPath><clipPath id="81c63d0cc2"><path d="M 190 317 L 441.328125 317 L 441.328125 512 L 190 512 Z M 190 317 " clip-rule="nonzero"/></clipPath><clipPath id="9a6129c0c2"><path d="M 185 290 L 345 290 L 345 519.207031 L 185 519.207031 Z M 185 290 " clip-rule="nonzero"/></clipPath></defs><rect x="-61.2" width="734.4" fill="#ffffff" y="-79.199999" height="950.399992" fill-opacity="1"/><rect x="-61.2" width="734.4" fill="#ffffff" y="-79.199999" height="950.399992" fill-opacity="1"/><rect x="-61.2" width="734.4" fill="#ffffff" y="-79.199999" height="950.399992" fill-opacity="1"/><g clip-path="url(#2fea581bac)"><g clip-path="url(#18a1d91233)"><path fill="#fcc0c5" d="M 126.199219 216.199219 L 485.800781 216.199219 L 485.800781 575.800781 L 126.199219 575.800781 Z M 126.199219 216.199219 " fill-opacity="1" fill-rule="nonzero"/></g></g><path fill="#8fcdb6" d="M 190.355469 447.195312 C 190.355469 447.195312 196.007812 444.214844 208.722656 449.234375 C 217.566406 452.683594 250.535156 443.378906 257.023438 445.992188 C 260.738281 446.722656 264.035156 450.488281 265.394531 453.574219 C 265.867188 454.566406 273.558594 460.996094 273.558594 461.726562 C 273.558594 462.042969 265.136719 456.96875 263.304688 457.390625 C 250.011719 460.316406 193.445312 464.445312 191.664062 459.0625 C 189.625 452.945312 190.355469 447.195312 190.355469 447.195312 Z M 190.355469 447.195312 " fill-opacity="1" fill-rule="nonzero"/><path fill="#260e0d" d="M 348.546875 475.007812 C 348.546875 475.007812 351.113281 477.933594 351.476562 479.347656 C 351.84375 480.757812 350.691406 485.148438 351.476562 487.449219 C 352.261719 489.75 355.089844 493.984375 355.191406 496.074219 C 355.875 504.753906 349.28125 516.726562 342.058594 514.269531 C 334.835938 511.808594 335.308594 501.300781 336.722656 497.433594 C 325.367188 507.15625 317.570312 498.007812 318.71875 495.34375 C 319.871094 492.675781 324.894531 487.449219 324.894531 487.449219 Z M 267.910156 481.226562 C 266.863281 482.535156 266.390625 485.671875 266.390625 485.671875 L 265.449219 484.050781 C 265.03125 483.320312 264.296875 482.167969 263.878906 481.4375 C 263.722656 481.175781 263.566406 480.863281 263.355469 480.652344 C 263.09375 480.339844 262.726562 480.183594 262.414062 479.921875 C 261.578125 479.292969 261.105469 478.300781 260.53125 477.464844 C 259.953125 476.628906 259.066406 475.789062 258.019531 475.738281 C 257.652344 475.738281 257.285156 475.84375 256.917969 475.949219 C 255.246094 476.46875 253.882812 477.464844 252.574219 478.5625 C 252.574219 478.5625 248.914062 482.167969 248.597656 485.304688 C 248.597656 485.304688 269.636719 506.792969 271.726562 505.851562 C 273.296875 505.171875 273.820312 499.316406 272.148438 496.492188 C 275.078125 495.1875 289.3125 505.851562 289.9375 505.222656 C 290.566406 504.597656 291.195312 498.324219 287.585938 494.976562 C 283.972656 491.632812 281.304688 486.402344 280.9375 484.050781 C 278.898438 477.777344 268.953125 479.921875 267.910156 481.226562 Z M 267.910156 481.226562 " fill-opacity="1" fill-rule="nonzero"/><path fill="#de7760" d="M 393.601562 330.71875 L 393.601562 383.988281 L 382.613281 383.988281 L 382.613281 353.617188 L 351.269531 353.617188 L 351.269531 345.773438 L 382.613281 345.773438 L 382.613281 333.59375 L 385.175781 330.71875 Z M 311.289062 491.632812 L 318.039062 491.632812 L 322.277344 487.238281 L 322.277344 431.71875 L 311.289062 431.71875 Z M 298.886719 507.523438 L 305.636719 507.523438 L 309.875 503.132812 L 309.875 447.558594 L 298.886719 447.558594 Z M 370.265625 507.523438 L 377.015625 507.523438 L 381.253906 503.132812 L 381.253906 447.558594 L 370.265625 447.558594 Z M 382.613281 491.632812 L 389.363281 491.632812 L 393.601562 487.238281 L 393.601562 431.71875 L 382.613281 431.71875 Z M 335.464844 445.992188 C 335.359375 446.203125 335.203125 447.925781 334.992188 450.382812 C 330.808594 450.957031 322.332031 453.992188 322.332031 453.992188 C 322.332031 453.992188 329.34375 465.125 333.214844 473.28125 C 332.429688 476.417969 330.335938 481.804688 324.84375 487.5 C 324.632812 490.691406 332.324219 493.25 337.140625 488.078125 C 337.507812 491.683594 337.609375 494.871094 337.820312 496.808594 C 338.1875 500.308594 338.449219 503.8125 342.425781 503.8125 C 346.402344 503.8125 349.90625 500.675781 347.972656 490.792969 C 346.035156 480.914062 348.496094 475.007812 348.496094 475.007812 C 348.128906 474.589844 347.65625 474.011719 347.1875 473.386719 C 346.925781 468.628906 346.402344 457.703125 349.070312 450.277344 C 351.894531 442.386719 335.832031 445.261719 335.464844 445.992188 Z M 335.464844 445.992188 " fill-opacity="1" fill-rule="nonzero"/><g clip-path="url(#c3259b67a7)"><path fill="#a44c3d" d="M 219.660156 434.910156 L 217.148438 387.804688 L 243.628906 371.757812 L 441.273438 371.757812 L 441.273438 440.660156 L 424.007812 455.769531 L 274.03125 453.675781 Z M 219.660156 434.910156 " fill-opacity="1" fill-rule="nonzero"/></g><path fill="#de7760" d="M 283.765625 451.011719 C 283.292969 453.363281 282.875 456.292969 282.457031 459.425781 C 266.390625 474.535156 254.667969 465.230469 254.460938 463.402344 C 254.40625 462.773438 254.355469 462.355469 254.355469 462.355469 C 254.355469 462.355469 254.929688 462.144531 258.59375 459.21875 C 261.472656 458.121094 266.128906 456.1875 266.128906 456.1875 C 266.128906 455.820312 266.078125 455.507812 266.023438 455.191406 C 275.496094 442.125 276.960938 439.457031 280.414062 429 C 282.089844 429.523438 285.753906 440.921875 283.765625 451.011719 Z M 283.765625 451.011719 " fill-opacity="1" fill-rule="nonzero"/><g clip-path="url(#b13ccc7743)"><path fill="#a44c3d" d="M 264.976562 453.414062 C 270.683594 447.664062 276.910156 439.457031 280.363281 429 C 280.625 429.054688 278.636719 441.289062 265.972656 455.191406 C 265.816406 454.511719 265.5 453.9375 264.976562 453.414062 Z M 424.007812 453.15625 L 413.015625 453.15625 L 413.015625 513.066406 L 419.765625 513.066406 L 424.007812 508.675781 Z M 441.273438 429.316406 L 430.285156 429.316406 L 430.285156 489.226562 L 437.035156 489.226562 L 441.273438 484.835938 Z M 441.273438 429.316406 " fill-opacity="1" fill-rule="nonzero"/></g><path fill="#260e0d" d="M 337.140625 488.023438 C 336.511719 488.703125 335.832031 489.277344 335.097656 489.695312 C 334.890625 486.246094 334.210938 480.601562 332.273438 476.15625 C 332.691406 475.058594 333.003906 474.066406 333.214844 473.230469 C 333.265625 473.230469 337.925781 482.167969 337.140625 488.023438 Z M 332.167969 390.105469 C 332.167969 390.105469 338.449219 389.113281 345.878906 388.851562 C 353.308594 388.589844 376.175781 388.851562 383.136719 375.519531 C 383.660156 374.160156 383.816406 372.90625 383.765625 371.808594 L 340.070312 371.808594 Z M 332.167969 390.105469 " fill-opacity="0.2471" fill-rule="nonzero"/><path fill="#a44c3d" d="M 268.011719 490.113281 C 273.613281 488.496094 277.066406 491.472656 280.414062 495.027344 C 283.765625 498.585938 288.789062 500.78125 289.78125 503.339844 C 290.777344 505.902344 287.949219 509.511719 283.292969 506.214844 C 278.636719 502.921875 270.105469 494.925781 267.960938 493.304688 C 265.292969 491.214844 268.011719 490.113281 268.011719 490.113281 Z M 262.046875 503.027344 C 267.332031 507.261719 271.832031 507.261719 272.148438 505.015625 C 272.460938 502.765625 267.804688 499.578125 263.199219 493.460938 C 258.59375 487.292969 249.277344 483.214844 248.597656 485.304688 C 247.34375 489.070312 251.894531 494.820312 262.046875 503.027344 Z M 389.730469 334.324219 C 389.730469 334.324219 390.042969 371.390625 390.671875 370.816406 C 391.300781 370.242188 390.671875 334.167969 390.671875 334.167969 C 390.671875 334.167969 393.183594 331.710938 392.816406 331.605469 C 392.453125 331.503906 390.515625 333.542969 389.78125 333.542969 C 389.050781 333.542969 383.765625 333.542969 383.765625 333.542969 C 382.71875 334.167969 389.730469 334.324219 389.730469 334.324219 Z M 381.671875 345.722656 L 381.671875 353.5625 L 382.613281 353.5625 C 382.613281 353.5625 382.664062 345.929688 382.613281 345.722656 Z M 381.671875 345.722656 " fill-opacity="1" fill-rule="nonzero"/><path fill="#260e0d" d="M 356.34375 318.015625 C 356.1875 318.640625 355.558594 319.058594 354.878906 319.164062 C 354.25 319.320312 353.570312 319.21875 352.941406 319.113281 C 350.328125 318.746094 347.710938 318.539062 345.09375 318.433594 C 342.6875 318.382812 340.121094 318.382812 338.027344 317.125 C 336.929688 316.445312 336.09375 315.503906 335.097656 314.667969 C 334.15625 313.832031 333.003906 313.101562 331.699219 313.101562 C 330.285156 313.046875 328.976562 313.886719 327.667969 314.460938 C 325.105469 315.503906 321.910156 315.453125 319.660156 313.78125 C 318.773438 313.152344 318.039062 312.265625 317.308594 311.480469 C 315.214844 309.179688 313.066406 307.035156 310.554688 305.15625 C 310.554688 305.15625 305.0625 299.457031 307.78125 287.746094 C 310.453125 278.910156 316.941406 275.984375 318.457031 276.140625 C 324.058594 273.839844 334.574219 272.585938 340.699219 282.359375 C 346.820312 292.136719 343.210938 304.476562 343.210938 304.476562 C 343.210938 304.476562 342.6875 306.460938 344.359375 306.984375 C 346.035156 307.507812 353.203125 309.179688 355.714844 315.765625 C 356.03125 316.550781 356.605469 317.230469 356.34375 318.015625 Z M 208.828125 451.0625 C 224.316406 453.519531 245.09375 449.179688 253.726562 449.859375 C 259.589844 450.332031 263.25 451.636719 264.925781 453.46875 C 271.363281 446.984375 278.480469 437.417969 281.566406 424.925781 C 277.433594 425.082031 274.082031 420.53125 262.9375 421.054688 C 262.9375 421.054688 259.484375 419.070312 254.40625 419.488281 C 249.332031 419.90625 237.085938 420.691406 233.214844 422.046875 L 194.125 430.046875 C 194.175781 430.046875 194.070312 444.84375 208.828125 451.0625 Z M 208.828125 451.0625 " fill-opacity="1" fill-rule="nonzero"/><path fill="#8fcdb6" d="M 349.59375 315.140625 C 366.707031 318.222656 370.210938 321.464844 375.8125 332.652344 C 382.089844 347.96875 384.496094 372.28125 382.402344 375.46875 C 371.625 390.578125 348.128906 386.027344 340.855469 387.230469 C 340.855469 387.230469 309.457031 381.167969 308.671875 364.648438 C 307.886719 348.128906 312.964844 330.613281 315.476562 326.328125 C 317.988281 322.039062 325.417969 319.949219 325.417969 319.949219 L 330.179688 318.851562 Z M 349.59375 315.140625 " fill-opacity="1" fill-rule="nonzero"/><g clip-path="url(#eb00f9f12d)"><path fill="#efd9c2" d="M 343.15625 304.734375 C 343.15625 304.734375 344.308594 306.199219 344.359375 306.984375 C 344.359375 306.984375 343.15625 310.070312 342.058594 310.433594 C 340.90625 310.800781 340.488281 309.023438 340.488281 309.023438 C 340.488281 309.023438 343 305.519531 343.15625 304.734375 Z M 328.402344 316.5 C 328.402344 316.707031 325.417969 320 325.417969 320 C 325.417969 320 323.0625 325.542969 327.824219 333.125 C 329.394531 335.320312 329.605469 344.992188 329.1875 347.1875 C 328.765625 349.382812 328.765625 356.335938 331.382812 362.765625 C 334.050781 369.195312 337.191406 377.925781 337.191406 377.925781 C 337.191406 377.925781 343.890625 378.136719 348.546875 374.058594 C 348.546875 374.058594 342.476562 359.734375 341.484375 353.40625 C 340.488281 347.132812 342.058594 333.332031 342.894531 332.496094 C 343.734375 331.660156 350.429688 322.25 349.542969 315.140625 C 349.542969 315.140625 345.40625 312.472656 344.832031 312.054688 C 344.257812 311.636719 342.425781 311.0625 342.425781 311.0625 Z M 335.777344 382.890625 L 327.71875 378.710938 L 321.335938 358.582031 C 321.125 357.957031 320.605469 357.589844 319.976562 357.589844 L 276.4375 357.589844 C 274.867188 357.589844 273.71875 359.15625 274.238281 360.675781 L 283.082031 387.753906 C 283.554688 389.21875 284.914062 390.160156 286.433594 390.160156 L 332.273438 390.160156 L 337.347656 387.859375 Z M 244.414062 391.882812 C 243.15625 384.042969 238.34375 370.503906 236.511719 368.148438 C 234.679688 365.796875 226.410156 361.300781 226.410156 361.300781 C 226.410156 361.300781 225.679688 360.414062 225.261719 360.046875 C 224.839844 359.679688 220.863281 358.269531 220.863281 358.269531 C 220.863281 358.269531 210.921875 354.085938 208.671875 354.503906 C 206.421875 354.921875 205.007812 355.027344 204.589844 358.164062 C 204.589844 358.164062 197.105469 360.933594 195.117188 362.554688 L 194.59375 364.175781 C 194.59375 364.175781 189.832031 367.050781 188.523438 369.40625 C 187.269531 371.703125 180.152344 393.714844 179.578125 399.777344 C 179.578125 399.777344 183.449219 403.175781 190.617188 404.796875 L 194.125 430.097656 C 194.125 430.097656 223.0625 445 239.390625 422.570312 C 239.390625 418.703125 234.886719 399.777344 234.886719 399.777344 Z M 282.457031 459.425781 C 281.09375 458.90625 279.578125 458.695312 278.113281 458.589844 C 273.507812 458.328125 268.535156 459.324219 265.238281 462.5625 C 264.664062 463.140625 264.140625 463.714844 263.460938 464.132812 C 261.316406 465.28125 258.804688 463.871094 256.394531 463.503906 C 255.769531 463.402344 255.140625 463.402344 254.511719 463.453125 C 254.722656 465.335938 255.085938 469.359375 254.878906 472.445312 C 254.722656 474.691406 252.574219 478.613281 252.574219 478.613281 C 252.574219 478.613281 255.035156 478.507812 257.597656 478.71875 C 260.164062 478.925781 265.449219 484.101562 265.449219 484.101562 C 264.875 480.339844 267.910156 472.394531 267.910156 472.394531 C 268.589844 474.640625 267.910156 481.28125 267.910156 481.28125 C 267.910156 481.28125 269.898438 480.601562 272.828125 480.601562 C 275.757812 480.601562 280.9375 484.101562 280.9375 484.101562 C 280.46875 481.90625 281.199219 469.621094 282.457031 459.425781 Z M 267.019531 488.496094 C 267.019531 488.496094 270.316406 487.1875 272.933594 487.972656 L 272.933594 485.199219 C 272.933594 485.199219 267.75 484 267.28125 486.089844 C 267.226562 486.507812 266.914062 488.078125 267.019531 488.496094 Z M 252.835938 484.050781 L 253.832031 482.222656 C 253.832031 482.222656 251.789062 481.59375 250.011719 481.699219 C 249.59375 482.324219 249.226562 483.003906 248.964844 483.683594 C 249.4375 483.476562 251.214844 482.902344 252.835938 484.050781 Z M 252.835938 484.050781 " fill-opacity="1" fill-rule="nonzero"/></g><path fill="#260e0d" d="M 214.269531 357.222656 C 214.113281 357.957031 212.28125 359.679688 212.125 359.628906 C 211.96875 359.578125 211.65625 357.277344 211.65625 357.277344 C 211.65625 357.277344 210.871094 359.734375 210.503906 359.679688 C 210.136719 359.628906 210.03125 357.589844 210.03125 357.589844 C 210.03125 357.589844 208.253906 360.097656 207.992188 359.996094 C 207.730469 359.890625 207.730469 357.433594 207.730469 357.433594 C 207.730469 357.433594 206.210938 360.152344 206.054688 359.996094 C 205.898438 359.890625 206.054688 358.425781 205.480469 356.335938 C 205.480469 356.335938 205.113281 359.261719 204.800781 358.898438 C 204.378906 355.394531 200.769531 352.519531 200.769531 352.519531 C 200.769531 352.519531 200.71875 354.035156 200.5625 354.035156 C 200.402344 354.035156 200.195312 351.945312 199.199219 351.054688 C 198.207031 350.167969 188.367188 343.214844 192.082031 330.980469 C 195.800781 318.746094 208.359375 316.34375 210.503906 318.121094 C 215.734375 314.824219 227.613281 318.589844 228.660156 325.230469 C 229.707031 331.867188 227.25 334.585938 227.25 334.585938 " fill-opacity="1" fill-rule="nonzero"/><g clip-path="url(#81c63d0cc2)"><path fill="#260e0d" d="M 362.832031 358.007812 C 363.148438 353.980469 362.570312 349.695312 360.375 342.273438 C 359.851562 340.390625 361.472656 342.273438 363.042969 346.191406 C 364.457031 349.695312 366.601562 361.929688 367.019531 364.492188 C 373.089844 364.230469 373.824219 366.214844 373.246094 366.109375 C 372.617188 366.007812 369.53125 364.855469 364.507812 365.796875 C 359.535156 366.789062 348.546875 374.109375 348.546875 374.109375 C 347.917969 374.632812 347.292969 375.101562 346.609375 375.519531 C 344.359375 369.039062 342.6875 360.515625 341.847656 355.5 C 343.261719 361.195312 346.871094 370.1875 348.078125 373.117188 C 348.078125 373.117188 353.726562 369.039062 359.484375 366.476562 C 359.796875 363.550781 362.519531 362.035156 362.832031 358.007812 Z M 361.945312 325.019531 C 362.308594 324.234375 362.625 323.398438 362.988281 322.617188 C 363.511719 321.519531 364.296875 320.523438 365.242188 319.738281 C 364.820312 319.53125 364.402344 319.269531 363.933594 319.058594 C 362.570312 320.839844 361.734375 323.035156 361.472656 325.230469 C 361.683594 325.386719 361.839844 325.175781 361.945312 325.019531 Z M 344.046875 336.050781 C 343.261719 336.941406 345.144531 336.679688 347.1875 334.0625 C 349.226562 331.449219 352.210938 328 353.152344 322.929688 C 354.09375 317.859375 353.308594 316.394531 353.152344 317.492188 C 353.152344 317.542969 352.261719 329.882812 344.046875 336.050781 Z M 345.09375 333.59375 C 345.144531 333.4375 345.144531 333.28125 345.042969 333.125 C 344.9375 332.964844 344.832031 332.863281 344.726562 332.757812 C 344.519531 332.546875 344.308594 332.339844 344.046875 332.183594 C 343.523438 332.601562 345.09375 333.59375 345.09375 333.59375 Z M 347.03125 328.46875 C 347.1875 329.046875 348.285156 329.308594 348.808594 329.308594 C 348.757812 329.097656 348.546875 328.941406 348.339844 328.785156 C 348.078125 328.628906 346.871094 327.738281 347.03125 328.46875 Z M 349.960938 325.542969 C 350.066406 325.492188 350.117188 325.386719 350.066406 325.28125 C 350.011719 325.175781 349.960938 325.125 349.855469 325.019531 C 349.488281 324.707031 348.964844 324.496094 348.441406 324.601562 L 348.441406 324.707031 C 348.808594 325.019531 349.226562 325.332031 349.699219 325.492188 C 349.804688 325.542969 349.90625 325.59375 349.960938 325.542969 Z M 351.113281 320.890625 C 351.214844 320.839844 351.320312 320.734375 351.269531 320.628906 C 351.269531 320.578125 351.164062 320.472656 351.113281 320.472656 C 350.746094 320.210938 350.222656 320.160156 349.804688 320.417969 L 349.75 320.523438 C 350.066406 320.734375 350.378906 320.839844 350.746094 320.941406 C 350.902344 320.941406 351.007812 320.941406 351.113281 320.890625 Z M 347.1875 325.542969 C 347.449219 325.019531 347.65625 324.496094 347.917969 323.921875 C 346.402344 324.863281 342.058594 327.476562 342.007812 327.84375 C 342.007812 328.15625 345.460938 326.433594 347.1875 325.542969 Z M 342.53125 333.699219 C 342.632812 333.226562 342.738281 332.914062 342.84375 332.707031 C 342.738281 332.914062 335.203125 338.664062 335.203125 339.03125 C 335.203125 339.34375 340.75 335.058594 342.53125 333.699219 Z M 333.894531 339.03125 C 334 338.769531 328.296875 334.0625 328.140625 333.59375 C 328.296875 333.960938 328.503906 334.484375 328.609375 335.058594 C 330.441406 336.519531 333.84375 339.238281 333.894531 339.03125 Z M 324.894531 333.855469 C 322.015625 328.679688 323.273438 320.785156 323.273438 320.785156 L 322.171875 321.257812 C 322.171875 321.257812 321.859375 324.445312 322.59375 329.308594 C 323.273438 334.117188 325.3125 334.796875 324.894531 333.855469 Z M 316.417969 342.429688 C 316.785156 342.898438 317.359375 344.207031 317.882812 344.414062 C 317.882812 343.996094 317.621094 343.578125 317.359375 343.214844 C 316.574219 342.011719 315.789062 340.859375 314.898438 339.761719 C 314.796875 339.65625 314.691406 339.5 314.480469 339.5 C 314.480469 339.816406 314.636719 340.078125 314.796875 340.335938 C 315.371094 341.015625 315.894531 341.695312 316.417969 342.429688 Z M 316.941406 350.113281 C 316.46875 352.464844 316.207031 355.707031 316.785156 357.589844 L 319.398438 357.589844 C 318.457031 354.820312 317.832031 350.636719 318.824219 347.65625 C 320.082031 343.945312 320.289062 337.878906 320.027344 336.3125 C 319.660156 335.371094 319.296875 335.527344 319.398438 339.238281 C 319.558594 342.953125 317.882812 345.460938 316.941406 350.113281 Z M 318.351562 358.738281 C 318.40625 359.105469 327.195312 389.164062 328.191406 389.636719 C 329.1875 390.105469 328.085938 387.859375 328.085938 387.859375 C 328.085938 387.859375 318.980469 359.472656 318.824219 358.738281 C 318.71875 358.007812 318.144531 357.589844 318.351562 358.738281 Z M 226.410156 361.25 C 226.410156 361.25 225.835938 377.820312 225.261719 378.65625 C 214.953125 382.421875 195.378906 378.554688 195.222656 378.238281 C 195.066406 377.925781 194.59375 364.125 194.59375 364.125 C 194.59375 364.125 194.332031 364.28125 193.863281 364.59375 C 193.863281 364.59375 193.914062 378.082031 194.910156 379.441406 C 203.492188 383.675781 223.429688 381.953125 226.097656 380.800781 C 227.511719 378.394531 227.613281 366.632812 227.613281 361.929688 C 226.882812 361.511719 226.410156 361.25 226.410156 361.25 Z M 209.667969 449.234375 C 206.472656 448.136719 199.460938 450.957031 200.300781 451.375 C 201.136719 451.742188 204.539062 450.59375 208.828125 451.117188 C 208.828125 451.0625 212.859375 450.332031 209.667969 449.234375 Z M 268.691406 493.828125 C 267.332031 492.675781 266.914062 492.050781 266.914062 492.050781 C 265.554688 490.636719 266.390625 485.621094 266.390625 485.621094 L 266.128906 485.148438 L 266.128906 492.519531 C 267.910156 494.820312 271.203125 497.539062 272.984375 498.898438 C 272.878906 498.269531 272.671875 497.644531 272.460938 497.121094 C 272.410156 497.121094 270.105469 495.027344 268.691406 493.828125 Z M 266.128906 465.179688 L 266.128906 471.660156 L 266.964844 475.164062 C 267.488281 473.542969 267.910156 472.394531 267.910156 472.394531 C 267.386719 467.84375 266.703125 463.347656 266.128906 459.742188 Z M 269.425781 477.515625 C 269.476562 477.253906 269.476562 474.902344 269.53125 474.171875 C 269.53125 472.96875 269.53125 471.765625 269.476562 470.5625 C 269.425781 468.210938 269.425781 465.753906 269.058594 463.453125 C 267.804688 463.085938 268.796875 467.375 268.851562 468.210938 C 269.007812 470.300781 269.058594 472.445312 268.953125 474.535156 C 268.902344 475.582031 268.953125 477.726562 269.425781 477.515625 Z M 272.410156 475.789062 C 272.410156 476.261719 272.460938 477.359375 272.773438 477.046875 C 272.773438 472.289062 272.722656 467.53125 272.566406 462.773438 C 272.566406 462.460938 272.511719 462.144531 272.304688 461.9375 C 271.308594 460.996094 271.9375 463.609375 271.988281 463.820312 C 272.148438 464.96875 272.199219 466.121094 272.199219 467.269531 C 272.304688 470.09375 272.355469 472.914062 272.410156 475.789062 Z M 276.75 461.363281 C 276.332031 461.464844 276.492188 462.667969 276.492188 462.929688 C 276.492188 464.289062 276.492188 465.648438 276.492188 467.007812 C 276.492188 469.726562 276.542969 472.496094 276.542969 475.214844 C 276.542969 475.582031 276.4375 476.367188 276.699219 476.210938 C 276.960938 476.105469 276.960938 475.738281 276.960938 475.476562 C 277.011719 471.136719 277.066406 466.746094 277.117188 462.40625 C 277.171875 462.09375 277.171875 461.257812 276.75 461.363281 Z M 190.828125 380.957031 C 190.25 380.957031 190.355469 388.851562 190.355469 388.851562 L 191.980469 388.851562 C 191.980469 388.851562 191.402344 380.957031 190.828125 380.957031 Z M 228.191406 385.347656 C 227.824219 385.402344 228.660156 390.472656 228.660156 390.472656 L 229.445312 389.636719 C 229.394531 389.636719 228.558594 385.246094 228.191406 385.347656 Z M 234.992188 368.726562 C 234.992188 368.726562 229.917969 370.136719 228.660156 376.515625 C 228.765625 377.613281 229.289062 375.46875 229.863281 374.527344 C 230.441406 373.585938 231.277344 370.921875 233.476562 369.980469 C 235.671875 369.039062 235.570312 368.464844 234.992188 368.726562 Z M 341.273438 351.210938 Z M 340.59375 378.917969 C 340.59375 378.972656 340.699219 378.972656 340.75 378.972656 C 341.273438 379.023438 341.847656 378.972656 342.320312 378.761719 C 342.425781 378.710938 342.53125 378.65625 342.582031 378.554688 C 342.007812 378.292969 341.273438 378.5 340.699219 378.710938 C 340.644531 378.816406 340.59375 378.867188 340.59375 378.917969 Z M 341.640625 381.011719 C 342.007812 380.957031 342.371094 380.851562 342.738281 380.644531 C 343.054688 380.433594 343 380.175781 342.6875 380.121094 C 342.320312 380.070312 341.746094 380.332031 341.484375 380.539062 C 341.378906 380.59375 341.222656 380.75 341.273438 380.851562 C 341.273438 381.011719 341.484375 381.011719 341.640625 381.011719 Z M 341.746094 383.730469 C 342.007812 383.78125 343.734375 383.625 343.261719 383.101562 C 342.949219 382.734375 341.746094 383.101562 341.535156 383.414062 C 341.484375 383.46875 341.484375 383.570312 341.535156 383.625 C 341.640625 383.730469 341.691406 383.730469 341.746094 383.730469 Z M 342.058594 386.238281 C 342.320312 386.289062 343.835938 386.238281 343.574219 385.769531 C 343.367188 385.296875 342.269531 385.714844 342.007812 385.871094 C 341.902344 385.925781 341.796875 386.027344 341.847656 386.132812 C 341.847656 386.1875 341.953125 386.238281 342.058594 386.238281 Z M 345.722656 384.566406 C 345.929688 384.460938 345.929688 384.199219 345.929688 383.988281 C 345.878906 381.953125 345.304688 380.015625 344.78125 378.03125 C 344.621094 377.558594 344.519531 377.039062 344.257812 376.617188 C 344.152344 376.671875 343.316406 376.933594 343.316406 376.933594 C 344.78125 378.867188 345.144531 381.324219 345.460938 383.730469 C 345.511719 384.042969 345.566406 384.304688 345.722656 384.566406 Z M 299.253906 372.644531 C 298.992188 372.800781 298.730469 373.011719 298.519531 373.222656 C 297.789062 374.003906 297.421875 375.15625 297.578125 376.253906 C 297.734375 377.296875 298.257812 378.238281 299.148438 378.816406 C 300.039062 379.390625 301.191406 379.496094 302.132812 379.074219 C 302.394531 378.917969 302.65625 378.761719 302.863281 378.554688 C 303.859375 377.664062 304.382812 376.253906 304.171875 374.945312 C 303.910156 373.378906 302.601562 372.332031 301.191406 372.226562 C 301.136719 371.128906 301.347656 370.085938 301.609375 368.933594 C 301.398438 368.671875 301.03125 368.621094 300.71875 368.621094 C 300.351562 369.089844 300.246094 369.664062 300.195312 370.242188 C 300.195312 370.710938 300.195312 371.128906 300.246094 371.601562 C 299.984375 371.285156 299.671875 371.078125 299.304688 370.921875 C 298.730469 370.660156 298.050781 370.660156 297.472656 370.921875 C 297.789062 371.757812 298.46875 372.382812 299.253906 372.644531 Z M 335.621094 347.238281 C 336.09375 347.238281 336.355469 346.769531 336.460938 346.296875 C 336.617188 345.617188 336.511719 344.414062 335.621094 344.3125 C 334.574219 344.207031 334.785156 345.566406 334.890625 346.246094 C 334.890625 346.664062 335.152344 347.1875 335.621094 347.238281 Z M 335.675781 355.863281 C 334.734375 355.8125 335.308594 357.746094 335.515625 358.164062 C 335.621094 358.320312 335.726562 358.476562 335.882812 358.582031 C 336.039062 358.6875 336.25 358.738281 336.40625 358.636719 C 336.617188 358.53125 336.667969 358.269531 336.722656 358.058594 C 336.773438 357.539062 336.460938 355.96875 335.675781 355.863281 Z M 338.132812 367.3125 C 337.453125 367.574219 338.082031 368.933594 338.289062 369.300781 C 338.449219 369.613281 338.761719 369.925781 339.074219 369.925781 C 339.335938 369.613281 339.441406 369.144531 339.390625 368.726562 C 339.335938 368.253906 338.761719 367.050781 338.132812 367.3125 Z M 439.703125 373.535156 C 438.132812 373.796875 421.023438 394.394531 421.023438 394.394531 C 421.023438 394.394531 272.304688 394.394531 270.683594 394.394531 C 269.058594 394.394531 269.425781 396.171875 274.710938 396.171875 C 279.996094 396.171875 418.144531 396.015625 420.394531 396.171875 C 420.394531 396.171875 419.242188 509.039062 419.347656 510.398438 C 419.453125 511.757812 420.394531 510.816406 420.394531 509.71875 C 420.394531 508.570312 422.121094 396.222656 422.121094 396.222656 C 422.121094 396.222656 441.273438 373.273438 439.703125 373.535156 Z M 270.890625 393.085938 C 271.101562 392.878906 271.308594 392.71875 271.570312 392.5625 C 271.988281 392.40625 272.410156 392.40625 272.878906 392.40625 C 273.507812 392.40625 275.96875 392.300781 276.175781 391.519531 C 276.175781 391.464844 276.175781 391.414062 276.175781 391.363281 C 275.234375 391.363281 273.925781 390.734375 273.195312 390.578125 C 272.148438 390.367188 271.464844 391.046875 271.464844 391.046875 C 268.378906 396.015625 265.394531 397.792969 263.773438 396.484375 C 261 398.105469 253.832031 411.800781 244.515625 411.539062 C 244.726562 412.273438 244.9375 413.003906 245.40625 413.578125 C 246.558594 414.992188 248.753906 416.558594 250.535156 416.402344 C 253.882812 416.089844 259.746094 414.050781 263.355469 402.445312 C 263.773438 401.191406 264.140625 399.832031 265.238281 399.046875 C 265.65625 398.734375 266.179688 398.574219 266.601562 398.367188 C 268.640625 397.320312 269.269531 394.707031 270.890625 393.085938 Z M 437.664062 443.847656 L 436.40625 444.945312 L 430.285156 450.332031 L 436.042969 449.652344 C 435.882812 465.125 436.304688 487.761719 436.878906 487.605469 C 437.351562 486.925781 437.246094 470.144531 437.351562 467.425781 C 437.402344 465.960938 437.664062 456.65625 437.714844 448.449219 L 441.328125 443.796875 L 441.328125 440.660156 Z M 437.664062 443.847656 " fill-opacity="0.2471" fill-rule="nonzero"/></g><g clip-path="url(#9a6129c0c2)"><path fill="#de7760" d="M 327.878906 315.503906 C 318.25 319.949219 310.609375 305.15625 310.609375 305.15625 C 311.445312 304.160156 308.988281 290.988281 312.804688 290.046875 C 318.144531 296.003906 334.105469 298.410156 336.824219 291.40625 C 339.808594 291.457031 341.167969 295.273438 338.34375 298.410156 C 338.972656 308.917969 344.308594 312.527344 344.308594 314.824219 C 340.28125 319.53125 335.203125 336.78125 335.203125 336.78125 C 335.203125 336.78125 331.75 330.507812 330.230469 326.589844 C 328.765625 322.617188 329.707031 319.898438 327.878906 315.503906 Z M 330.859375 376.777344 C 329.8125 376.984375 327.667969 378.710938 327.667969 378.710938 L 330.703125 387.285156 C 330.703125 387.285156 332.429688 385.820312 332.902344 386.238281 C 334.523438 387.804688 338.082031 388.328125 340.855469 387.285156 C 341.324219 383.414062 339.285156 377.925781 339.285156 377.925781 C 337.453125 378.03125 331.960938 376.515625 330.859375 376.777344 Z M 277.066406 391.046875 C 276.28125 392.039062 274.1875 390.839844 273.140625 390.628906 C 272.09375 390.421875 271.414062 391.101562 271.414062 391.101562 C 268.328125 396.066406 265.34375 397.84375 263.722656 396.535156 C 260.894531 398.210938 253.308594 412.796875 243.523438 411.539062 C 240.488281 411.175781 238.082031 409.660156 236.195312 407.828125 L 236.195312 456.1875 L 266.078125 456.1875 L 266.078125 510.710938 L 263.25 512.699219 L 257.652344 512.699219 L 257.652344 465.125 L 236.144531 465.125 L 236.144531 517.089844 L 233.320312 519.078125 L 227.773438 519.078125 L 227.773438 465.179688 L 224.054688 465.179688 L 224.054688 510.710938 L 221.230469 512.699219 L 215.632812 512.699219 L 215.632812 465.125 L 194.175781 465.125 L 194.175781 517.089844 L 191.351562 519.078125 L 185.75 519.078125 L 185.75 390.839844 L 188.367188 388.851562 L 194.125 388.851562 L 194.125 401.347656 C 194.125 401.347656 222.488281 401.347656 227.773438 401.347656 L 227.773438 390.839844 L 230.386719 388.851562 L 236.144531 388.851562 L 236.144531 396.277344 C 240.539062 394.550781 244.359375 391.882812 244.359375 391.882812 L 245.667969 395.597656 C 247.027344 394.027344 255.296875 393.035156 257.546875 390.683594 C 258.28125 389.898438 261.679688 385.402344 262.675781 384.199219 C 263.722656 382.996094 265.1875 383.414062 265.917969 383.519531 C 266.652344 383.570312 267.804688 383.625 268.222656 384.199219 C 268.589844 384.773438 269.214844 384.410156 270.105469 384.984375 C 270.996094 385.558594 273.613281 387.441406 274.03125 387.859375 C 274.5 388.277344 277.433594 390.261719 277.066406 391.046875 Z M 227.773438 429.628906 L 194.175781 429.628906 L 194.175781 456.1875 L 227.773438 456.1875 Z M 227.773438 409.710938 L 194.175781 409.710938 L 194.175781 421.265625 C 194.175781 421.265625 222.539062 421.265625 227.824219 421.265625 L 227.824219 409.710938 Z M 216.941406 345.410156 C 216.941406 345.410156 216.15625 346.664062 214.847656 346.871094 C 215.214844 353.878906 214.269531 357.171875 214.269531 357.171875 C 217.726562 357.171875 220.917969 358.21875 220.917969 358.21875 L 220.917969 353.355469 C 220.917969 353.355469 222.589844 353.511719 224.789062 353.199219 C 229.863281 352.625 227.71875 348.335938 228.503906 347.605469 C 229.289062 346.820312 228.503906 346.035156 228.503906 346.035156 C 229.917969 344.78125 227.929688 343.894531 228.085938 342.0625 C 229.5 341.800781 230.910156 339.710938 230.125 338.769531 C 229.339844 337.828125 226.621094 335.476562 226.621094 331.449219 C 225.992188 333.488281 223.429688 336.730469 222.90625 337.253906 C 222.433594 337.828125 221.386719 338.351562 221.703125 337.878906 C 223.375 335.84375 223.480469 330.667969 223.480469 330.667969 C 220.339844 341.695312 213.957031 340.285156 213.171875 338.925781 C 212.386719 337.566406 208.410156 337.148438 208.722656 340.757812 C 209.039062 344.363281 212.960938 345.929688 216.941406 345.410156 Z M 216.941406 345.410156 " fill-opacity="1" fill-rule="nonzero"/></g><path fill="#a44c3d" d="M 318.351562 469.832031 C 318.25 472.550781 318.351562 489.332031 317.882812 490.011719 C 317.046875 490.21875 316.46875 439.144531 317.882812 437.835938 C 319.296875 436.53125 318.457031 467.113281 318.351562 469.832031 Z M 341.117188 456.550781 C 339.964844 453.992188 339.128906 453.101562 339.285156 454.511719 C 339.496094 455.925781 341.953125 461.570312 342.792969 464.863281 C 343.628906 468.210938 346.035156 472.652344 347.1875 473.386719 C 348.757812 473.542969 345.722656 469.726562 344.78125 468.367188 C 343.835938 467.058594 342.214844 459.0625 341.117188 456.550781 Z M 332.480469 312.109375 C 332.117188 312.210938 331.332031 313.988281 327.878906 315.558594 C 328.296875 316.5 328.558594 317.386719 328.765625 318.222656 C 331.4375 317.179688 332.796875 312.003906 332.480469 312.109375 Z M 338.082031 293.078125 C 337.085938 293.652344 336.617188 295.847656 337.085938 296.894531 C 337.402344 297.261719 337.347656 296.632812 337.402344 295.902344 C 337.402344 295.585938 337.714844 293.96875 338.082031 293.601562 C 338.34375 293.339844 338.5 292.972656 338.082031 293.078125 Z M 330.023438 381.742188 C 329.917969 381.691406 329.394531 382.109375 329.027344 382.421875 L 329.1875 382.890625 C 329.761719 382.472656 330.335938 381.847656 330.023438 381.742188 Z M 329.96875 385.035156 L 330.128906 385.453125 C 330.546875 384.929688 330.859375 384.511719 330.753906 384.460938 C 330.597656 384.410156 330.285156 384.667969 329.96875 385.035156 Z M 329.1875 379.285156 C 328.925781 379.179688 328.191406 380.121094 328.191406 380.121094 L 328.296875 380.488281 C 328.820312 379.914062 329.289062 379.335938 329.1875 379.285156 Z M 331.90625 383.730469 C 331.75 383.730469 331.59375 383.832031 331.539062 383.988281 C 331.539062 384.042969 331.488281 384.09375 331.488281 384.148438 C 331.488281 384.199219 331.539062 384.25 331.59375 384.25 C 331.644531 384.25 331.699219 384.25 331.75 384.25 C 331.855469 384.199219 332.011719 384.148438 332.0625 384.042969 C 332.117188 383.988281 332.117188 383.988281 332.117188 383.9375 C 332.117188 383.886719 332.0625 383.832031 332.011719 383.78125 C 332.0625 383.730469 332.011719 383.730469 331.90625 383.730469 Z M 331.800781 381.375 C 331.699219 381.273438 331.539062 381.21875 331.382812 381.273438 C 331.226562 381.273438 331.070312 381.375 330.964844 381.480469 C 330.914062 381.53125 330.914062 381.585938 330.964844 381.636719 C 330.964844 381.691406 331.015625 381.691406 331.070312 381.691406 C 331.332031 381.742188 331.644531 381.585938 331.800781 381.375 Z M 330.753906 378.65625 Z M 330.597656 378.710938 L 330.753906 378.710938 C 330.703125 378.65625 330.652344 378.65625 330.597656 378.710938 Z M 330.753906 378.65625 C 330.492188 378.65625 330.179688 378.867188 330.128906 379.128906 C 330.230469 379.179688 330.390625 379.179688 330.546875 379.128906 C 330.652344 379.128906 330.753906 379.074219 330.808594 378.972656 C 330.859375 378.867188 330.914062 378.761719 330.859375 378.65625 C 330.859375 378.710938 330.808594 378.65625 330.753906 378.65625 Z M 235.308594 389.949219 C 234.941406 389.898438 234.050781 390.996094 232.796875 391.257812 C 231.539062 391.519531 228.871094 391.101562 228.871094 391.101562 C 227.980469 391.203125 230.648438 392.355469 232.636719 392.144531 C 232.636719 398.941406 232.898438 516.359375 233.003906 517.5625 C 233.109375 518.761719 233.683594 517.769531 233.789062 517.039062 C 233.894531 516.304688 233.84375 397.6875 233.84375 391.882812 C 235.097656 391.203125 235.570312 390.003906 235.308594 389.949219 Z M 226.726562 402.757812 C 220.96875 402.707031 193.808594 402.601562 193.234375 403.175781 C 193.128906 403.488281 220.917969 403.855469 226.726562 403.960938 L 226.726562 409.761719 L 227.773438 409.761719 L 227.773438 401.398438 L 226.726562 401.398438 Z M 194.175781 429.628906 L 192.242188 429.628906 L 192.242188 422.675781 L 194.175781 421.210938 C 194.175781 420.636719 192.136719 422.207031 191.664062 422.570312 C 191.664062 417.917969 191.664062 413.527344 191.664062 409.660156 C 191.875 410.023438 194.175781 413.214844 194.175781 413.214844 L 194.175781 409.710938 L 192.242188 409.710938 L 192.242188 402.757812 L 194.175781 401.292969 C 194.492188 400.144531 191.664062 402.652344 191.664062 402.652344 C 191.664062 402.652344 191.664062 402.707031 191.664062 402.757812 C 191.664062 396.535156 191.664062 392.40625 191.664062 391.464844 C 192.972656 390.839844 193.445312 389.636719 193.183594 389.582031 C 192.816406 389.53125 191.925781 390.628906 190.671875 390.890625 C 189.414062 391.152344 186.746094 390.734375 186.746094 390.734375 C 185.855469 390.839844 188.523438 391.988281 190.511719 391.78125 C 190.511719 398.574219 190.773438 515.992188 190.878906 517.195312 C 190.984375 518.398438 191.558594 517.40625 191.664062 516.671875 C 191.71875 516.203125 191.71875 466.484375 191.71875 429.839844 C 192.398438 431.980469 194.386719 433.757812 194.230469 433.289062 L 194.230469 429.628906 Z M 226.726562 422.726562 C 221.074219 422.726562 194.648438 422.78125 193.914062 422.726562 C 193.128906 422.675781 193.863281 423.304688 195.378906 423.40625 C 196.742188 423.460938 221.28125 423.722656 226.726562 423.828125 L 226.726562 429.679688 L 227.773438 429.679688 L 227.773438 421.265625 L 226.726562 421.265625 Z M 262.675781 465.179688 L 257.703125 465.179688 L 257.703125 466.484375 L 262.675781 466.484375 C 262.726562 493.355469 262.832031 510.660156 262.882812 511.183594 C 262.988281 512.386719 263.566406 511.390625 263.667969 510.660156 C 263.722656 510.347656 263.722656 493.25 263.722656 466.484375 L 266.128906 466.484375 L 266.128906 465.179688 Z M 215.632812 466.957031 L 220.601562 466.957031 C 220.65625 493.617188 220.761719 510.660156 220.8125 511.183594 C 220.917969 512.386719 221.492188 511.390625 221.597656 510.660156 C 221.648438 510.347656 221.648438 493.566406 221.648438 467.007812 L 224.054688 467.007812 L 224.054688 465.230469 L 215.632812 465.230469 Z M 305.480469 453.730469 C 304.066406 455.035156 304.644531 506.058594 305.480469 505.902344 C 305.953125 505.222656 305.847656 488.441406 305.953125 485.722656 C 306.054688 482.953125 306.894531 452.421875 305.480469 453.730469 Z M 376.804688 453.730469 C 375.390625 455.035156 375.96875 506.058594 376.804688 505.902344 C 377.277344 505.222656 377.171875 488.441406 377.277344 485.722656 C 377.433594 482.953125 378.269531 452.421875 376.804688 453.730469 Z M 389.207031 437.835938 C 387.792969 439.144531 388.371094 490.167969 389.207031 490.011719 C 389.679688 489.332031 389.574219 472.550781 389.679688 469.832031 C 389.78125 467.113281 390.621094 436.53125 389.207031 437.835938 Z M 211.078125 341.015625 C 211.601562 341.175781 212.074219 341.539062 212.441406 342.011719 C 212.597656 342.273438 212.753906 342.535156 212.960938 342.742188 C 213.015625 342.847656 213.121094 342.898438 213.222656 342.847656 C 213.328125 342.792969 213.328125 342.742188 213.277344 342.636719 C 213.121094 342.0625 212.804688 341.539062 212.335938 341.121094 C 211.863281 340.757812 211.289062 340.496094 210.660156 340.496094 C 210.554688 340.546875 210.660156 340.808594 210.765625 340.914062 C 210.816406 340.964844 210.921875 340.964844 211.078125 341.015625 Z M 245.722656 395.597656 C 246.085938 396.796875 246.191406 399.046875 246.503906 399.152344 C 246.765625 399.253906 246.976562 396.640625 246.820312 394.863281 C 246.296875 395.125 245.929688 395.335938 245.722656 395.597656 Z M 264.875 395.910156 C 264.664062 395.910156 263.773438 396.535156 263.773438 396.535156 C 263.984375 396.695312 264.191406 396.796875 264.402344 396.851562 C 264.664062 396.433594 265.03125 395.910156 264.875 395.910156 Z M 272.878906 389.636719 C 272.773438 389.6875 272.042969 390.578125 271.625 390.996094 C 271.832031 390.839844 272.199219 390.628906 272.671875 390.578125 C 272.773438 390.105469 272.933594 389.582031 272.878906 389.636719 Z M 274.238281 390.996094 C 274.34375 391.046875 274.5 391.101562 274.605469 391.152344 C 274.816406 390.839844 274.921875 390.628906 274.816406 390.628906 C 274.761719 390.628906 274.5 390.785156 274.238281 390.996094 Z M 220.917969 356.074219 L 220.917969 353.40625 C 218.929688 353.144531 218.089844 352.152344 217.726562 352.363281 C 217.410156 352.519531 219.085938 355.082031 220.917969 356.074219 Z M 220.917969 356.074219 " fill-opacity="1" fill-rule="nonzero"/><path fill="#260e0d" d="M 320.027344 308.1875 C 317.570312 308.65625 317.097656 306.042969 317.046875 304.476562 C 316.992188 303.429688 316.261719 302.800781 316.261719 302.800781 C 315.839844 302.382812 316.417969 302.175781 316.992188 302.957031 C 317.570312 303.742188 317.308594 305.050781 317.777344 306.410156 C 318.25 307.769531 319.347656 307.871094 319.765625 307.871094 C 320.132812 307.769531 320.707031 308.03125 320.027344 308.1875 Z M 323.273438 308.132812 C 322.957031 308.972656 321.492188 309.546875 321.386719 309.597656 C 321.179688 309.703125 321.285156 309.910156 321.648438 309.859375 C 322.015625 309.753906 322.75 309.441406 323.273438 308.8125 C 323.640625 309.230469 323.953125 310.382812 323.480469 310.589844 C 323.011719 310.851562 322.957031 311.167969 323.480469 311.113281 C 325.050781 310.644531 323.273438 308.132812 323.273438 308.132812 Z M 321.703125 302.382812 C 322.121094 302.121094 322.070312 301.390625 321.648438 300.710938 C 321.230469 300.082031 320.550781 299.71875 320.132812 299.980469 C 319.714844 300.242188 319.765625 300.972656 320.183594 301.652344 C 320.605469 302.332031 321.285156 302.644531 321.703125 302.382812 Z M 313.433594 303.429688 C 313.066406 303.636719 313.121094 304.265625 313.488281 304.839844 C 313.851562 305.414062 314.429688 305.675781 314.742188 305.46875 C 315.109375 305.257812 315.058594 304.632812 314.691406 304.054688 C 314.324219 303.480469 313.800781 303.21875 313.433594 303.429688 Z M 318.511719 298.933594 C 318.929688 298.828125 321.859375 297.523438 322.277344 296.945312 C 322.855469 296.164062 318.457031 297.261719 317.832031 297.835938 C 317.570312 298.097656 318.09375 299.039062 318.511719 298.933594 Z M 312.804688 300.03125 C 312.285156 300.136719 311.289062 301.964844 311.027344 302.855469 C 310.816406 303.742188 311.183594 303.953125 311.289062 303.691406 C 311.339844 303.585938 312.230469 301.914062 313.589844 301.285156 C 313.90625 300.921875 313.328125 299.925781 312.804688 300.03125 Z M 225.261719 336 C 224.789062 336 224.421875 336.679688 224.421875 337.515625 C 224.421875 338.351562 224.789062 339.03125 225.261719 339.03125 C 225.730469 339.03125 226.097656 338.351562 226.097656 337.515625 C 226.097656 336.679688 225.730469 336 225.261719 336 Z M 226.464844 346.035156 C 226.308594 346.140625 227.5625 346.820312 228.820312 346.507812 C 228.714844 346.191406 228.503906 346.035156 228.503906 346.035156 C 227.667969 346.351562 226.671875 345.929688 226.464844 346.035156 Z M 226.464844 346.035156 " fill-opacity="1" fill-rule="nonzero"/></svg>