<?xml version="1.0" encoding="UTF-8" standalone="no"?>
<svg
   width="816"
   zoomAndPan="magnify"
   viewBox="0 0 612 791.999994"
   height="1056"
   preserveAspectRatio="xMidYMid meet"
   version="1.0"
   id="svg56"
   sodipodi:docname="sm_logo.svg"
   inkscape:version="1.2.2 (732a01da63, 2022-12-09)"
   xmlns:inkscape="http://www.inkscape.org/namespaces/inkscape"
   xmlns:sodipodi="http://sodipodi.sourceforge.net/DTD/sodipodi-0.dtd"
   xmlns="http://www.w3.org/2000/svg"
   xmlns:svg="http://www.w3.org/2000/svg">
  <sodipodi:namedview
     id="namedview58"
     pagecolor="#ffffff"
     bordercolor="#000000"
     borderopacity="0.25"
     inkscape:showpageshadow="2"
     inkscape:pageopacity="0.0"
     inkscape:pagecheckerboard="0"
     inkscape:deskcolor="#d1d1d1"
     showgrid="false"
     inkscape:zoom="0.79261364"
     inkscape:cx="779.69892"
     inkscape:cy="93.362007"
     inkscape:window-width="1920"
     inkscape:window-height="1017"
     inkscape:window-x="-8"
     inkscape:window-y="-8"
     inkscape:window-maximized="1"
     inkscape:current-layer="svg56" />
  <defs
     id="defs34">
    <clipPath
       id="783f85c6f4">
      <path
         d="M 183.601562 273.601562 L 428.101562 273.601562 L 428.101562 518.101562 L 183.601562 518.101562 Z M 183.601562 273.601562 "
         clip-rule="nonzero"
         id="path31" />
    </clipPath>
  </defs>
  <rect
     x="29.638834"
     width="180.85162"
     fill="#ffffff"
     y="21.101089"
     height="196.2494"
     fill-opacity="1"
     id="rect40"
     style="stroke-width:0.225499" />
  <path
     fill="#fabec0"
     d="m 58.862571,69.085653 c 2.52344,2.26562 5.42969,4.33984 8.71484,6.23437 3.28907,1.89063 6.70704,3.88281 10.25782,5.98438 3.125,1.86718 6.09765,3.54687 8.92187,5.03906 2.82422,1.49219 5.29688,3.05469 7.42188,4.6914 2.12109,1.63282 3.8125,3.48829 5.07422,5.56641 1.261709,2.07422 1.890619,4.632807 1.890619,7.667967 0,1.10156 -0.125,2.17969 -0.37109,3.23437 -1.347659,1.58204 -2.687499,3.16797 -4.023439,4.75782 -1.50391,1.78906 -2.98828,3.59765 -4.48047,5.39453 -0.67187,0.32422 -1.37109,0.625 -2.10937,0.89453 -2.33204,0.83984 -4.96875,1.26172 -7.90625,1.26172 -2.47657,0 -4.89063,-0.29297 -7.25,-0.87891 -2.35547,-0.58203 -4.55079,-1.39844 -6.58204,-2.44922 -2.02734,-1.05078 -3.86328,-2.29687 -5.49218,-3.74609 -1.63672,-1.44531 -2.96485,-3.01172 -3.9961,-4.69141 -1.02343,-1.72656 -1.94531,-3.85937 -2.76172,-6.40625 -0.8125,-2.542967 -1.52734,-5.519527 -2.13671,-8.925777 h -2.58985 v 32.554687 h 2.58985 c 0.32812,-2.19531 0.83203,-3.64063 1.50781,-4.33984 0.67578,-0.70313 1.59765,-1.05079 2.76562,-1.05079 0.1875,0 0.6211,0.0703 1.29688,0.20704 0.67969,0.14062 1.50781,0.32812 2.48828,0.55859 0.97656,0.23828 2.05469,0.52344 3.21875,0.87891 1.16406,0.34765 2.3125,0.73046 3.42969,1.15234 1.58203,0.60547 2.95312,1.08594 4.09375,1.43359 1.14453,0.35157 2.25,0.60547 3.32812,0.76953 1.07031,0.16407 2.19141,0.26954 3.36328,0.3125 1.16797,0.0469 2.56641,0.0742 4.19532,0.0742 0.80078,0 1.57812,-0.0312 2.35546,-0.082 -1.63281,1.9961 -3.26562,3.99219 -4.88281,5.9961 l -3.83203,4.77734 -0.47656,0.59766 -0.23828,0.30078 c -0.0586,0.0742 -0.13672,0.16406 -0.20703,0.25 -0.3086,0.34765 -0.64063,0.6914 -0.99219,1.01953 -0.69531,0.65234 -1.44922,1.23437 -2.24219,1.72265 -0.79687,0.48829 -1.64062,0.86719 -2.50391,1.07422 -0.42968,0.10547 -0.86328,0.16407 -1.30078,0.1875 -0.4375,0.0156 -0.86718,-0.0156 -1.29687,-0.0976 -0.85547,-0.16407 -1.67578,-0.53516 -2.4336,-1.04688 -0.3789,-0.25781 -0.74609,-0.54687 -1.09375,-0.86719 -0.0859,-0.0742 -0.17187,-0.15625 -0.2539,-0.23828 l -0.12891,-0.125 -0.11719,-0.11718 c -0.14843,-0.15235 -0.28515,-0.31641 -0.40625,-0.49219 -0.125,-0.17578 -0.23437,-0.35547 -0.33203,-0.54688 -0.10937,-0.20312 -0.20312,-0.40625 -0.28906,-0.61718 -0.0859,-0.21094 -0.16016,-0.42579 -0.21875,-0.64063 -0.0586,-0.21484 -0.11328,-0.43359 -0.14844,-0.65625 -0.14843,-0.875 -0.0781,-1.77734 0.23047,-2.60937 0.30078,-0.82813 0.85547,-1.57813 1.5586,-2.13672 0.35156,-0.28125 0.74218,-0.51563 1.16406,-0.69141 0.41797,-0.17578 0.87109,-0.29687 1.30859,-0.34766 0.44141,-0.0469 0.88672,-0.0234 1.29688,0.11719 0.20703,0.0625 0.40234,0.16016 0.58984,0.26953 l 0.14063,0.0899 c 0.0469,0.0312 0.0859,0.0664 0.13281,0.0976 0.0898,0.0586 0.17187,0.14063 0.2539,0.21485 0.32813,0.30859 0.59766,0.6875 0.77735,1.10547 0.17187,0.42187 0.27344,0.88281 0.2539,1.34765 -0.008,0.46875 -0.13671,0.92578 -0.36328,1.34375 -0.10156,0.19141 -0.25781,0.35547 -0.4414,0.50391 -0.1875,0.13672 -0.39844,0.26172 -0.6211,0.35937 -0.89453,0.37891 -1.96484,0.48438 -2.92578,0.11719 0.45313,0.24609 0.96875,0.375 1.48828,0.39844 0.52344,0.0195 1.05078,-0.0352 1.5586,-0.19531 0.125,-0.0391 0.25,-0.0859 0.37109,-0.14454 0.125,-0.0508 0.24219,-0.12109 0.36719,-0.1875 0.10937,-0.082 0.23047,-0.15234 0.33203,-0.25781 0.0508,-0.043 0.10547,-0.0976 0.15234,-0.15625 l 0.0742,-0.0898 c 0.0234,-0.0312 0.043,-0.0547 0.0586,-0.0859 0.30468,-0.45703 0.50781,-0.98828 0.57421,-1.54297 0.0742,-0.55469 0.0117,-1.1289 -0.16796,-1.66015 -0.17969,-0.53516 -0.47266,-1.03516 -0.85157,-1.46094 -0.0976,-0.10156 -0.19531,-0.21094 -0.30078,-0.30078 -0.0586,-0.0469 -0.10937,-0.0977 -0.16406,-0.14453 l -0.17578,-0.13282 c -0.24219,-0.16406 -0.49219,-0.32031 -0.76953,-0.42578 -0.26953,-0.10937 -0.5586,-0.1914 -0.85157,-0.23828 -0.28515,-0.043 -0.57812,-0.0586 -0.86328,-0.0508 -0.57422,0.0234 -1.1289,0.14062 -1.66797,0.32422 -0.53906,0.18359 -1.04296,0.4414 -1.51562,0.76953 -0.93359,0.64844 -1.69531,1.56641 -2.16016,2.63281 -0.23047,0.53516 -0.38672,1.09375 -0.46484,1.67188 -0.0781,0.57422 -0.0781,1.16015 -0.0117,1.73437 0.0312,0.28516 0.0898,0.56641 0.14844,0.84375 0.0742,0.27735 0.14453,0.55469 0.24219,0.82031 0.0937,0.26563 0.19921,0.53125 0.32421,0.78907 0.1211,0.26172 0.26954,0.52734 0.42969,0.77343 0.16406,0.2461 0.34375,0.48829 0.53906,0.71485 l 0.0742,0.082 0.0742,0.0742 0.13672,0.14844 c 0.0937,0.10546 0.19141,0.20312 0.28906,0.29296 0.38672,0.39063 0.8086,0.75391 1.26563,1.08594 0.90625,0.66797 1.96875,1.1836 3.11719,1.44531 0.21484,0.0547 0.43359,0.0781 0.64843,0.10938 -0.49609,0.49609 -0.92187,1.09766 -1.21484,1.78516 -0.12109,0.29687 -0.22266,0.60156 -0.28906,0.92968 -0.0234,0.082 -0.0312,0.17188 -0.043,0.25391 -0.0117,0.0898 -0.0195,0.16797 -0.0273,0.28906 v 0.24219 c 0,0.0781 0,0.16016 0.008,0.23828 0,0.15234 0.0195,0.31641 0.0312,0.47656 l 0.0195,0.23828 0.0391,0.24219 0.043,0.24219 c 0.0156,0.082 0.0391,0.16406 0.0625,0.23828 l 0.0664,0.24219 c 0.0195,0.082 0.0547,0.16406 0.082,0.24219 0.22265,0.64453 0.60547,1.28906 1.14062,1.80859 0.27344,0.25391 0.57422,0.48047 0.89844,0.66016 0.32422,0.17968 0.66797,0.32421 1.00391,0.42187 0.34375,0.0977 0.6914,0.16797 1.03125,0.19922 0.34375,0.0312 0.67968,0.0469 1.01562,0.0234 0.33203,-0.0156 0.66016,-0.0508 0.98438,-0.10547 0.16406,-0.0273 0.32031,-0.0625 0.48437,-0.0977 0.082,-0.0195 0.16016,-0.043 0.24609,-0.0625 l 0.125,-0.0351 0.0664,-0.0195 0.082,-0.0273 0.11719,-0.0352 0.082,-0.0508 c 0.11719,-0.0703 0.24219,-0.14453 0.35938,-0.22265 0.11718,-0.082 0.23437,-0.15625 0.35156,-0.25 0.23828,-0.16797 0.45703,-0.37891 0.66797,-0.59766 0.41406,-0.45312 0.76953,-1.01953 0.9414,-1.66406 0.0234,-0.082 0.043,-0.15625 0.0586,-0.23828 0.0156,-0.082 0.0312,-0.16407 0.0391,-0.24219 0.0234,-0.16406 0.0312,-0.32422 0.0273,-0.49219 0,-0.34765 -0.0664,-0.6914 -0.17968,-1.00781 -0.23438,-0.64063 -0.66016,-1.19531 -1.22657,-1.54297 -0.27343,-0.17969 -0.58203,-0.30859 -0.90234,-0.38672 l -0.23828,-0.0391 c -0.082,-0.0117 -0.16016,-0.0156 -0.24219,-0.0195 -0.082,-0.0117 -0.16016,0 -0.23437,0 -0.0781,0 -0.16016,0.008 -0.23829,0.0117 -0.3125,0.0391 -0.61718,0.13672 -0.89062,0.26953 -0.26953,0.13281 -0.50781,0.3125 -0.70703,0.5 -0.20313,0.19531 -0.375,0.40625 -0.51953,0.62109 -0.14844,0.21485 -0.26563,0.44531 -0.3711,0.67578 -0.20703,0.46094 -0.35547,0.9375 -0.41797,1.42578 0.27735,-0.39843 0.57422,-0.77343 0.89844,-1.10156 0.16016,-0.16406 0.32813,-0.3164 0.4961,-0.45312 0.17578,-0.13282 0.35156,-0.25 0.52734,-0.33985 0.17969,-0.0937 0.35937,-0.15625 0.53516,-0.1914 0.17578,-0.0352 0.34375,-0.0352 0.5039,-0.0156 0.32813,0.043 0.60156,0.19141 0.81641,0.39453 0.0586,0.0508 0.0977,0.10938 0.14453,0.16797 0.0195,0.0312 0.043,0.0625 0.0625,0.0899 0.0156,0.0312 0.0352,0.0586 0.0547,0.0898 0.0664,0.12891 0.11328,0.26172 0.13672,0.40234 0.0234,0.13282 0.0273,0.26563 0.008,0.39453 -0.0156,0.14063 -0.0547,0.29688 -0.10547,0.42969 -0.10938,0.26953 -0.28906,0.51563 -0.53516,0.75391 -0.21875,0.21094 -0.5,0.39844 -0.80468,0.5664 l -0.0469,0.0117 c -0.0547,0.0156 -0.11328,0.0274 -0.17187,0.043 -0.1211,0.0234 -0.23829,0.0508 -0.35938,0.0664 -0.24219,0.0352 -0.48437,0.0664 -0.72266,0.082 -0.24218,0.0156 -0.47265,0.0156 -0.70312,-0.008 -0.23047,-0.0156 -0.44531,-0.043 -0.65625,-0.0977 -0.21094,-0.0391 -0.40625,-0.11719 -0.58984,-0.19141 l -0.13672,-0.0664 c -0.0469,-0.0234 -0.0899,-0.0547 -0.12891,-0.0781 -0.0937,-0.0469 -0.16406,-0.11328 -0.25,-0.16406 -0.32031,-0.24609 -0.58594,-0.57812 -0.80078,-0.98437 -0.0273,-0.0508 -0.0625,-0.0977 -0.082,-0.15235 l -0.0703,-0.16406 c -0.0234,-0.0586 -0.0547,-0.10938 -0.0742,-0.16406 l -0.0625,-0.17578 -0.0664,-0.17579 -0.0508,-0.18359 c -0.0312,-0.12109 -0.0742,-0.24219 -0.0977,-0.375 -0.0156,-0.0586 -0.0234,-0.12891 -0.0391,-0.1875 l -0.0195,-0.0977 -0.0117,-0.0469 -0.004,-0.0273 c 0,-0.004 -0.008,-0.0195 -0.008,-0.0156 -0.008,-0.0195 -0.0156,-0.0859 -0.0195,-0.13672 -0.004,-0.0547 -0.0117,-0.11328 -0.0117,-0.17578 -0.004,-0.23828 0.008,-0.49219 0.043,-0.74609 0.0703,-0.50782 0.21875,-1.02735 0.4375,-1.53125 0.0742,-0.17969 0.16797,-0.35547 0.25391,-0.53125 0.16015,0.0117 0.3164,0.0273 0.47656,0.0273 0.58594,0 1.16797,-0.0781 1.73437,-0.19922 1.125,-0.2539 2.17188,-0.70312 3.12891,-1.25781 0.96094,-0.55859 1.83203,-1.22266 2.63672,-1.95703 0.40625,-0.36719 0.78516,-0.75 1.15625,-1.16406 0.0937,-0.10157 0.1875,-0.21094 0.28906,-0.33204 l 0.24219,-0.29687 0.48047,-0.59375 3.85547,-4.76563 c 5.12109,-6.35937 10.18359,-12.76562 15.17578,-19.23046 4.410149,-5.71485 8.765619,-11.47266 13.003899,-17.324217 l 2,-2.45703 c -0.3789,-1.97266 -0.98828,-3.76954 -1.83593,-5.39063 -1.53516,-2.96484 -3.60157,-5.60156 -6.19532,-7.91016 -2.58984,-2.3125 -5.589839,-4.42187 -8.996089,-6.33593 -3.41016,-1.91016 -7.00391,-3.875 -10.78125,-5.87891 -3.36328,-1.77344 -6.47266,-3.42969 -9.34375,-4.97266 -2.87109,-1.53515 -5.36719,-3.125 -7.48828,-4.76171 -2.12109,-1.63282 -3.79297,-3.41797 -5.00781,-5.35547 -1.21485,-1.9375 -1.82032,-4.21485 -1.82032,-6.82813 0,-1.86328 0.42188,-3.675781 1.26172,-5.421871 0.83985,-1.75 2.01953,-3.30078 3.53516,-4.65625 1.51953,-1.35157 3.30078,-2.4375 5.35937,-3.25391 2.05469,-0.8125 4.26954,-1.22266 6.64844,-1.22266 2.14453,0 4.27735,0.28907 6.40625,0.875 2.1211,0.58594 4.12891,1.39844 6.02344,2.44922 1.89062,1.05078 3.63672,2.32422 5.24609,3.8125 1.60938,1.5 2.95313,3.17578 4.023439,5.03907 2.19531,3.738281 3.71094,8.750001 4.55469,15.050781 h 2.58594 V 25.999512 h -2.58594 c -0.46875,2.1914 -1.08985,3.65234 -1.85547,4.375 -0.76953,0.72265 -1.76563,1.08594 -2.972659,1.08594 -1.17187,0 -3.01172,-0.58204 -5.53125,-1.7461 -5.74218,-2.47656 -11.08984,-3.71094 -16.03515,-3.71094 -4.01172,0 -7.71485,0.66797 -11.09766,1.99219 -3.38281,1.33594 -6.3125,3.13672 -8.78516,5.42578 -2.47656,2.28516 -4.40625,4.94532 -5.8125,7.98047 -1.39843,3.035161 -2.10156,6.230471 -2.10156,9.589851 0,4.01171 0.75781,7.46875 2.27735,10.35937 1.5039,2.89453 3.52343,5.47266 6.04687,7.73438 z m 0,0"
     fill-opacity="1"
     fill-rule="nonzero"
     id="path42" />
  <path
     fill="#fabec0"
     d="m 62.198511,143.94893 c -0.26563,0.0156 -0.53125,0.0664 -0.79688,0.10547 -0.13281,0.0273 -0.26172,0.0625 -0.39453,0.0937 -0.0664,0.0156 -0.13672,0.0312 -0.19531,0.0469 l -0.19141,0.0586 c -0.51172,0.15625 -1.0039,0.375 -1.46484,0.63282 -0.23438,0.12109 -0.45313,0.26953 -0.67188,0.41406 -0.21093,0.15234 -0.42187,0.30859 -0.61328,0.47656 -0.79297,0.66797 -1.42578,1.46485 -1.92968,2.31641 -0.2461,0.42578 -0.46485,0.86719 -0.64063,1.32422 -0.17578,0.45703 -0.32422,0.91797 -0.39844,1.39843 0.30469,-0.375 0.6211,-0.72265 0.9375,-1.0625 0.31641,-0.33593 0.64063,-0.66015 0.98047,-0.96093 0.66406,-0.60938 1.36328,-1.14453 2.09375,-1.5586 0.36328,-0.21093 0.73828,-0.39453 1.11719,-0.54297 0.37891,-0.14843 0.75781,-0.27734 1.15625,-0.35546 l 0.14062,-0.0352 0.14844,-0.0273 c 0.0977,-0.0156 0.19531,-0.0352 0.29297,-0.043 0.0195,0 0.0352,-0.008 0.0586,-0.008 l -0.0117,0.0156 c -0.0312,0.0352 -0.0586,0.0742 -0.0937,0.10937 l -0.20313,0.21094 c -0.12891,0.14063 -0.28906,0.26953 -0.4375,0.41016 -0.0742,0.0664 -0.14844,0.13672 -0.22266,0.19922 l -0.24609,0.1875 c -0.32031,0.26953 -0.67969,0.5 -1.02734,0.75 -0.17969,0.12109 -0.36719,0.23047 -0.54688,0.34765 l -0.27734,0.17578 -0.14063,0.0898 -0.14062,0.082 c -0.19141,0.10937 -0.38672,0.22266 -0.57422,0.33594 l -0.28906,0.17187 c -0.0977,0.0586 -0.19922,0.10156 -0.29688,0.16016 -0.19531,0.10547 -0.39453,0.21484 -0.59375,0.32812 -0.19531,0.11328 -0.41406,0.23047 -0.55859,0.32422 -0.16406,0.0937 -0.33203,0.21875 -0.53906,0.33985 -0.20313,0.1289 -0.44532,0.24609 -0.71094,0.35546 0.16797,-0.0273 0.36328,-0.0312 0.59375,-0.0352 0.23047,-0.004 0.49219,-0.0156 0.76953,-0.0469 0.29297,-0.0312 0.49609,-0.0703 0.73047,-0.10937 0.23047,-0.0352 0.46094,-0.082 0.69531,-0.1211 0.11719,-0.0195 0.23047,-0.043 0.33984,-0.0703 l 0.34375,-0.0898 c 0.23047,-0.0586 0.45704,-0.1211 0.6875,-0.1875 l 0.17188,-0.0508 0.50391,-0.1875 0.33984,-0.1211 c 0.11328,-0.0469 0.22656,-0.0781 0.33203,-0.13281 0.88672,-0.38672 1.75391,-0.86719 2.54688,-1.53516 l 0.30078,-0.2539 c 0.0508,-0.043 0.0976,-0.0937 0.14062,-0.14063 l 0.14063,-0.14062 0.13672,-0.14844 c 0.0469,-0.0547 0.0937,-0.0977 0.13281,-0.15625 l 0.25781,-0.32812 c 0.0859,-0.10547 0.16016,-0.23829 0.23438,-0.36329 0.0781,-0.11718 0.14453,-0.26171 0.21093,-0.39453 l 0.0508,-0.10156 c 0.0156,-0.0352 0.0312,-0.0781 0.0469,-0.11328 l 0.082,-0.23047 c 0.0273,-0.082 0.0469,-0.16797 0.0703,-0.25781 0.008,-0.0195 0.0117,-0.0469 0.0156,-0.0703 l 0.0156,-0.0781 0.0117,-0.0742 0.004,-0.0312 0.004,-0.0391 0.008,-0.0703 0.0742,-1.07422 -1.08594,-0.0937 c -0.5586,-0.0586 -1.08985,-0.0781 -1.625,-0.0195 z m 0,0"
     fill-opacity="1"
     fill-rule="nonzero"
     id="path44" />
  <path
     fill="#fabec0"
     d="m 109.80788,112.13643 -14.527339,17.82812 v 58.30469 c 0,5.36719 -0.51172,8.77734 -1.53516,10.22266 -1.68359,2.42968 -4.52734,3.63671 -8.54297,3.63671 h -3.35937 v 2.58985 h 33.042969 v -2.58985 h -3.35938 c -3.73828,0 -6.46484,-0.97656 -8.1914,-2.9414 -1.26172,-1.44531 -1.89063,-5.08203 -1.89063,-10.92188 v -63.41797 l 36.68356,79.88282 h 2.3125 l 36.6133,-79.88282 v 63.42969 c 0,5.36328 -0.5117,8.77344 -1.539,10.21875 -1.6797,2.42969 -4.5274,3.64063 -8.5391,3.64063 h -3.3633 v 2.58593 h 40.3242 v -2.58593 h -3.289 c -3.7383,0 -6.4649,-0.98047 -8.1914,-2.94141 -1.3086,-1.44531 -1.9571,-5.08594 -1.9571,-10.92578 v -62.01953 c 0,-5.36719 0.5117,-8.77735 1.5352,-10.22266 1.6836,-2.42578 4.5547,-3.64062 8.6133,-3.64062 h 3.289 v -2.58594 h -26.8828 l -33.8828,74.27734 z m 0,0"
     fill-opacity="1"
     fill-rule="nonzero"
     id="path46" />
  <path
     fill="#fabec0"
     d="m 95.675071,129.18721 c 5.328129,-6.21094 10.472659,-12.5586 15.562499,-18.94531 5.08589,-6.39454 10.09769,-12.839847 15.05079,-19.335937 l 3.6992,-4.87891 0.4609,-0.60937 0.2305,-0.3086 c 0.059,-0.0781 0.1328,-0.16797 0.207,-0.25781 0.2969,-0.35937 0.625,-0.71094 0.9649,-1.04297 0.6758,-0.67187 1.4141,-1.27734 2.1953,-1.78515 0.7852,-0.50782 1.6172,-0.90625 2.4766,-1.14454 0.4297,-0.11328 0.8632,-0.1875 1.2968,-0.21484 0.4375,-0.0234 0.8711,-0.004 1.2969,0.0664 0.8555,0.14453 1.6914,0.48828 2.461,0.98047 0.3828,0.24609 0.7578,0.52734 1.1132,0.83593 0.086,0.0781 0.1797,0.15235 0.2618,0.23438 l 0.1289,0.125 0.066,0.0586 0.055,0.0586 c 0.1484,0.14843 0.2929,0.3125 0.4218,0.48046 0.125,0.17579 0.2461,0.34766 0.3477,0.54297 0.1133,0.19922 0.2109,0.40235 0.3008,0.60938 0.094,0.20703 0.1718,0.42187 0.2422,0.63281 0.066,0.21484 0.121,0.42969 0.164,0.65234 0.1758,0.8711 0.1211,1.77344 -0.164,2.61329 -0.2813,0.83984 -0.8165,1.59765 -1.504,2.17578 -0.3398,0.29297 -0.7304,0.53906 -1.1445,0.72265 -0.418,0.1875 -0.8633,0.32422 -1.3047,0.38672 -0.4414,0.0547 -0.8789,0.0391 -1.2968,-0.082 -0.211,-0.0586 -0.4024,-0.14844 -0.5977,-0.25781 l -0.1445,-0.0859 c -0.047,-0.0312 -0.094,-0.0664 -0.1368,-0.0977 -0.094,-0.0625 -0.1757,-0.13671 -0.2617,-0.21093 -0.3398,-0.30078 -0.6133,-0.67188 -0.8047,-1.08594 -0.1875,-0.41406 -0.2968,-0.875 -0.2929,-1.33594 0,-0.46875 0.1133,-0.92969 0.3281,-1.35547 0.098,-0.19531 0.2461,-0.35937 0.4258,-0.51172 0.1836,-0.14453 0.3867,-0.27343 0.6133,-0.375 0.8867,-0.40625 1.9531,-0.53906 2.9218,-0.19531 -0.457,-0.23437 -0.9726,-0.34765 -1.4961,-0.35937 -0.5234,-0.008 -1.0507,0.0625 -1.5546,0.23828 -0.1211,0.0469 -0.25,0.0898 -0.3711,0.15234 -0.125,0.0586 -0.2422,0.12891 -0.3594,0.19922 -0.1133,0.082 -0.2266,0.16016 -0.3281,0.26953 -0.051,0.0508 -0.1016,0.0937 -0.1485,0.15625 l -0.066,0.0899 c -0.027,0.0273 -0.047,0.0586 -0.062,0.0859 -0.293,0.46485 -0.4805,1 -0.5351,1.5586 -0.055,0.55859 0.023,1.125 0.2109,1.65625 0.1953,0.52734 0.5,1.02343 0.8945,1.43359 0.1016,0.0977 0.1992,0.20313 0.3125,0.29297 0.055,0.0469 0.1055,0.0898 0.168,0.13672 l 0.1797,0.1289 c 0.2383,0.16016 0.5,0.30079 0.7773,0.40625 0.2774,0.10157 0.5664,0.17969 0.8555,0.20704 0.293,0.0391 0.5859,0.0469 0.8711,0.0273 0.5742,-0.0352 1.125,-0.16797 1.6562,-0.36719 0.5352,-0.19531 1.0352,-0.47265 1.4961,-0.8125 0.918,-0.67578 1.6563,-1.61328 2.0899,-2.6914 0.2148,-0.53516 0.3633,-1.10157 0.4219,-1.67969 0.062,-0.57813 0.047,-1.16406 -0.035,-1.73438 -0.039,-0.28515 -0.1016,-0.5625 -0.168,-0.83984 -0.078,-0.27734 -0.1601,-0.54688 -0.2617,-0.8125 -0.1016,-0.26953 -0.2148,-0.53125 -0.3437,-0.78125 -0.1289,-0.26172 -0.2813,-0.51563 -0.4493,-0.76172 -0.1718,-0.24609 -0.3554,-0.47656 -0.5586,-0.69922 l -0.078,-0.082 -0.2148,-0.21484 c -0.098,-0.0977 -0.1953,-0.19532 -0.2969,-0.28516 -0.4023,-0.375 -0.832,-0.73437 -1.293,-1.05078 -0.9218,-0.64063 -2,-1.13281 -3.1523,-1.36719 -0.2149,-0.0391 -0.4336,-0.0664 -0.6563,-0.0898 0.4883,-0.51172 0.8907,-1.125 1.1641,-1.81641 0.1133,-0.29687 0.2109,-0.60937 0.2656,-0.9414 0.016,-0.082 0.027,-0.16797 0.035,-0.25782 0.012,-0.0898 0.016,-0.16797 0.016,-0.29297 v -0.23828 c 0,-0.0781 0,-0.15625 -0.012,-0.23828 0,-0.15234 -0.024,-0.3164 -0.043,-0.47656 l -0.031,-0.23828 -0.047,-0.24219 -0.051,-0.24219 c -0.016,-0.082 -0.047,-0.15625 -0.066,-0.23828 l -0.074,-0.24219 c -0.019,-0.082 -0.055,-0.16015 -0.086,-0.24218 -0.2421,-0.64063 -0.6367,-1.27344 -1.1953,-1.77344 -0.2773,-0.24609 -0.582,-0.46484 -0.9179,-0.63281 -0.3282,-0.17188 -0.668,-0.30469 -1.0196,-0.39063 -0.3437,-0.0937 -0.6914,-0.14844 -1.0351,-0.17578 -0.3438,-0.0234 -0.6797,-0.0234 -1.0156,0 -0.3321,0.0273 -0.6602,0.0664 -0.9766,0.13281 -0.1602,0.0312 -0.3242,0.0664 -0.4844,0.10938 -0.082,0.0195 -0.1562,0.0469 -0.2383,0.0664 l -0.125,0.043 -0.066,0.0195 -0.074,0.0234 -0.1133,0.043 -0.078,0.0508 c -0.1172,0.0781 -0.2344,0.14844 -0.3555,0.23047 -0.1172,0.0859 -0.2304,0.16406 -0.3398,0.26172 -0.2344,0.17969 -0.4492,0.39062 -0.6524,0.62109 -0.4062,0.46094 -0.7421,1.03907 -0.8984,1.6836 -0.016,0.082 -0.035,0.16015 -0.051,0.24218 -0.012,0.082 -0.023,0.16407 -0.031,0.2461 -0.016,0.16406 -0.02,0.32422 -0.016,0.49219 0.012,0.34765 0.082,0.6875 0.207,1.0039 0.25,0.63281 0.6914,1.17578 1.2656,1.51172 0.2813,0.17188 0.5938,0.29297 0.9102,0.35938 l 0.2422,0.0351 c 0.082,0.0117 0.164,0.0117 0.2421,0.0156 0.082,0.008 0.1563,-0.004 0.2344,-0.004 0.078,0 0.1602,-0.0156 0.2383,-0.0273 0.3125,-0.0391 0.6133,-0.14844 0.8789,-0.28907 0.2656,-0.14453 0.5,-0.32421 0.6992,-0.52343 0.1992,-0.19922 0.3633,-0.41407 0.5,-0.63672 0.1446,-0.21875 0.2578,-0.44922 0.3555,-0.6875 0.1953,-0.46485 0.3281,-0.94531 0.3789,-1.4336 -0.2656,0.41016 -0.5547,0.78907 -0.8672,1.12891 -0.1523,0.16797 -0.3164,0.32813 -0.4844,0.46484 -0.1718,0.13672 -0.3437,0.26172 -0.5195,0.35938 -0.1758,0.0977 -0.3555,0.16406 -0.5273,0.20312 -0.1758,0.043 -0.3399,0.0469 -0.5039,0.0312 -0.3282,-0.0312 -0.6094,-0.16796 -0.8282,-0.375 -0.059,-0.0508 -0.1054,-0.10546 -0.1484,-0.16406 -0.023,-0.0273 -0.043,-0.0547 -0.066,-0.0859 -0.024,-0.0312 -0.039,-0.0625 -0.059,-0.0937 -0.07,-0.125 -0.1172,-0.25781 -0.1445,-0.39453 -0.024,-0.13281 -0.035,-0.26562 -0.02,-0.39453 0.012,-0.14062 0.047,-0.29687 0.098,-0.42969 0.1015,-0.27734 0.2773,-0.52734 0.5117,-0.76953 0.2148,-0.21484 0.4883,-0.41015 0.7891,-0.58984 l 0.047,-0.008 c 0.059,-0.0156 0.1133,-0.0312 0.168,-0.0469 0.1211,-0.0312 0.2383,-0.0547 0.3555,-0.0781 0.2422,-0.0469 0.4804,-0.0742 0.7187,-0.0977 0.2383,-0.0195 0.4688,-0.0234 0.6992,-0.0156 0.2344,0.008 0.4532,0.0391 0.6641,0.0781 0.2149,0.0352 0.4024,0.10938 0.5938,0.17969 l 0.1367,0.0625 c 0.047,0.0195 0.09,0.0469 0.1367,0.0703 0.09,0.043 0.168,0.10938 0.25,0.16016 0.3203,0.23437 0.5977,0.5625 0.8281,0.96484 0.027,0.0508 0.062,0.0937 0.09,0.15234 l 0.074,0.16016 c 0.027,0.0547 0.059,0.10547 0.078,0.16406 l 0.066,0.17188 0.066,0.17578 0.059,0.17969 c 0.035,0.12109 0.082,0.23828 0.1055,0.36718 0.016,0.0625 0.031,0.12891 0.047,0.19141 l 0.027,0.0977 0.01,0.043 v 0.0273 c 0,0.004 0.01,0.0195 0.01,0.0156 0.01,0.0195 0.02,0.0859 0.024,0.13672 0.01,0.0586 0.012,0.11328 0.016,0.17578 0.012,0.24219 0.01,0.49219 -0.023,0.75 -0.062,0.51172 -0.1954,1.02735 -0.3946,1.54297 -0.074,0.17969 -0.1601,0.35547 -0.2422,0.53125 -0.1601,-0.004 -0.3164,-0.0156 -0.4765,-0.0117 -0.586,0.0156 -1.1641,0.10938 -1.7227,0.24219 -1.1172,0.28125 -2.1562,0.75781 -3.1015,1.33985 -0.9414,0.58203 -1.7969,1.26953 -2.5821,2.02343 -0.3945,0.37891 -0.7695,0.76953 -1.1289,1.19532 -0.09,0.10546 -0.1797,0.21484 -0.2773,0.33593 l -0.2344,0.30469 -0.4648,0.60547 -3.7266,4.86328 c -4.9531,6.49219 -9.84375,13.035157 -14.66016,19.624997 -4.80469,6.63281 -9.5664,13.27734 -14.144529,20.05469 z m 0,0"
     fill-opacity="1"
     fill-rule="nonzero"
     id="path48" />
  <path
     fill="#fabec0"
     d="m 144.92896,77.644243 c 0.2656,-0.0234 0.5352,-0.082 0.7969,-0.13281 0.1328,-0.0312 0.2617,-0.0664 0.3867,-0.10157 0.066,-0.0156 0.1289,-0.0351 0.1953,-0.0508 l 0.1914,-0.0664 c 0.5117,-0.16797 0.9922,-0.40235 1.4492,-0.66797 0.2305,-0.13281 0.4454,-0.28125 0.6563,-0.4336 0.207,-0.16015 0.4141,-0.32031 0.6016,-0.49218 0.7656,-0.6875 1.3867,-1.50391 1.8593,-2.36328 0.2344,-0.4375 0.4414,-0.88282 0.6055,-1.33985 0.1641,-0.45312 0.2969,-0.92578 0.3633,-1.41015 -0.2969,0.38281 -0.6016,0.73828 -0.9063,1.08984 -0.3125,0.34375 -0.625,0.67578 -0.9531,0.98828 -0.6484,0.625 -1.3359,1.17969 -2.0586,1.61328 -0.3555,0.22266 -0.7265,0.41797 -1.1015,0.57422 -0.3711,0.16016 -0.754,0.29297 -1.1407,0.38672 l -0.1445,0.0352 -0.1484,0.0312 c -0.098,0.0195 -0.1954,0.0391 -0.293,0.0547 -0.02,0 -0.035,0.004 -0.055,0.004 l 0.01,-0.0156 c 0.031,-0.0351 0.059,-0.0742 0.094,-0.10546 l 0.1992,-0.21485 c 0.125,-0.14844 0.2773,-0.28125 0.4258,-0.42187 0.078,-0.0664 0.1445,-0.14453 0.2187,-0.21094 l 0.2422,-0.19141 c 0.3086,-0.27734 0.668,-0.51562 1.0039,-0.77734 0.1758,-0.12109 0.3594,-0.23828 0.5391,-0.36328 l 0.2734,-0.1836 0.1367,-0.0937 0.1446,-0.0859 c 0.1875,-0.11328 0.3789,-0.23047 0.5664,-0.34766 l 0.2851,-0.17969 c 0.09,-0.0625 0.1914,-0.10937 0.2891,-0.16797 0.1953,-0.11328 0.3906,-0.22656 0.5859,-0.34375 0.1914,-0.11718 0.4063,-0.24218 0.5469,-0.33984 0.1602,-0.10156 0.3281,-0.23047 0.5352,-0.35937 0.2031,-0.13282 0.4414,-0.25391 0.7031,-0.375 -0.1719,0.0273 -0.3672,0.043 -0.5977,0.0547 -0.2304,0.008 -0.4922,0.0234 -0.7617,0.0664 -0.293,0.0352 -0.4961,0.0859 -0.7344,0.125 -0.2304,0.0469 -0.457,0.0977 -0.6875,0.14453 -0.1093,0.0273 -0.2304,0.0469 -0.3398,0.082 l -0.3399,0.0977 c -0.2265,0.0664 -0.4531,0.13281 -0.6757,0.20703 l -0.1719,0.0508 -0.168,0.0586 -0.332,0.13672 -0.332,0.13282 c -0.1133,0.0469 -0.2266,0.0859 -0.336,0.14062 -0.8711,0.41016 -1.7265,0.91406 -2.5039,1.60156 l -0.2891,0.26563 c -0.047,0.043 -0.094,0.0937 -0.1367,0.14453 l -0.1328,0.14844 -0.1367,0.14843 c -0.043,0.0508 -0.09,0.0977 -0.125,0.16016 l -0.2461,0.33594 c -0.082,0.11328 -0.1562,0.24609 -0.2266,0.37109 -0.078,0.1211 -0.1406,0.26563 -0.1992,0.39844 l -0.047,0.10156 c -0.016,0.0352 -0.027,0.0781 -0.043,0.11328 l -0.074,0.23047 c -0.024,0.082 -0.043,0.17578 -0.062,0.26172 0,0.0195 -0.012,0.0469 -0.016,0.0703 l -0.012,0.0781 -0.01,0.082 -0.01,0.0312 v 0.0352 0.0742 l -0.047,1.07422 1.0899,0.0625 c 0.5312,0.0352 1.0703,0.0469 1.6015,-0.0273 z m 0,0"
     fill-opacity="1"
     fill-rule="nonzero"
     id="path50" />
</svg>
