<svg xmlns="http://www.w3.org/2000/svg" xmlns:xlink="http://www.w3.org/1999/xlink" width="500" zoomAndPan="magnify" viewBox="0 0 375 374.999991" height="500" preserveAspectRatio="xMidYMid meet" version="1.0"><defs><clipPath id="88f2197f6d"><path d="M 90.664062 83.539062 L 284.335938 83.539062 L 284.335938 277.207031 L 90.664062 277.207031 Z M 90.664062 83.539062 " clip-rule="nonzero"/></clipPath><clipPath id="0ee4ca5ee4"><path d="M 187.5 83.539062 C 134.019531 83.539062 90.664062 126.894531 90.664062 180.375 C 90.664062 233.855469 134.019531 277.207031 187.5 277.207031 C 240.980469 277.207031 284.332031 233.855469 284.332031 180.375 C 284.332031 126.894531 240.980469 83.539062 187.5 83.539062 " clip-rule="nonzero"/></clipPath><clipPath id="bb7525821a"><path d="M 140 167 L 261.214844 167 L 261.214844 213 L 140 213 Z M 140 167 " clip-rule="nonzero"/></clipPath><clipPath id="2893753f52"><path d="M 166 198 L 261.214844 198 L 261.214844 244 L 166 244 Z M 166 198 " clip-rule="nonzero"/></clipPath><clipPath id="d7e7f4d3f7"><path d="M 120.386719 131 L 212 131 L 212 231 L 120.386719 231 Z M 120.386719 131 " clip-rule="nonzero"/></clipPath><clipPath id="5bf0ba1c57"><path d="M 126 137 L 261.214844 137 L 261.214844 243 L 126 243 Z M 126 137 " clip-rule="nonzero"/></clipPath></defs><g clip-path="url(#88f2197f6d)"><g clip-path="url(#0ee4ca5ee4)"><path fill="#f4cbcb" d="M 90.664062 83.539062 L 284.332031 83.539062 L 284.332031 277.207031 L 90.664062 277.207031 Z M 90.664062 83.539062 " fill-opacity="1" fill-rule="nonzero"/></g></g><path fill="#8fcdb6" d="M 126.1875 208.1875 C 126.1875 208.1875 129.226562 206.578125 136.070312 209.289062 C 140.828125 211.152344 158.5625 206.128906 162.054688 207.539062 C 164.054688 207.933594 165.828125 209.964844 166.558594 211.628906 C 166.8125 212.167969 170.953125 215.636719 170.953125 216.035156 C 170.953125 216.203125 166.417969 213.464844 165.433594 213.691406 C 158.28125 215.273438 127.847656 217.5 126.890625 214.59375 C 125.792969 211.292969 126.1875 208.1875 126.1875 208.1875 Z M 126.1875 208.1875 " fill-opacity="1" fill-rule="nonzero"/><path fill="#260e0d" d="M 211.296875 223.203125 C 211.296875 223.203125 212.675781 224.78125 212.875 225.542969 C 213.070312 226.304688 212.453125 228.675781 212.875 229.917969 C 213.296875 231.160156 214.816406 233.445312 214.871094 234.574219 C 215.238281 239.261719 211.691406 245.722656 207.804688 244.398438 C 203.921875 243.070312 204.175781 237.398438 204.933594 235.308594 C 198.824219 240.558594 194.628906 235.621094 195.25 234.179688 C 195.867188 232.742188 198.570312 229.917969 198.570312 229.917969 Z M 167.910156 226.558594 C 167.347656 227.265625 167.09375 228.960938 167.09375 228.960938 L 166.589844 228.085938 C 166.363281 227.6875 165.96875 227.070312 165.742188 226.671875 C 165.660156 226.53125 165.574219 226.363281 165.460938 226.25 C 165.320312 226.082031 165.125 225.996094 164.957031 225.855469 C 164.503906 225.515625 164.25 224.980469 163.941406 224.527344 C 163.632812 224.078125 163.152344 223.625 162.589844 223.597656 C 162.394531 223.597656 162.195312 223.652344 162 223.710938 C 161.097656 223.992188 160.367188 224.527344 159.664062 225.121094 C 159.664062 225.121094 157.691406 227.070312 157.523438 228.761719 C 157.523438 228.761719 168.839844 240.359375 169.964844 239.851562 C 170.8125 239.484375 171.09375 236.324219 170.191406 234.800781 C 171.769531 234.097656 179.425781 239.851562 179.765625 239.515625 C 180.101562 239.175781 180.441406 235.789062 178.496094 233.984375 C 176.554688 232.175781 175.117188 229.355469 174.921875 228.085938 C 173.824219 224.699219 168.476562 225.855469 167.910156 226.558594 Z M 167.910156 226.558594 " fill-opacity="1" fill-rule="nonzero"/><path fill="#de7760" d="M 235.539062 145.308594 L 235.539062 174.066406 L 229.625 174.066406 L 229.625 157.667969 L 212.761719 157.667969 L 212.761719 153.4375 L 229.625 153.4375 L 229.625 146.859375 L 231.003906 145.308594 Z M 191.25 232.175781 L 194.882812 232.175781 L 197.164062 229.804688 L 197.164062 199.832031 L 191.25 199.832031 Z M 184.578125 240.757812 L 188.210938 240.757812 L 190.492188 238.386719 L 190.492188 208.386719 L 184.578125 208.386719 Z M 222.980469 240.757812 L 226.613281 240.757812 L 228.894531 238.386719 L 228.894531 208.386719 L 222.980469 208.386719 Z M 229.625 232.175781 L 233.257812 232.175781 L 235.539062 229.804688 L 235.539062 199.832031 L 229.625 199.832031 Z M 204.257812 207.539062 C 204.203125 207.652344 204.117188 208.582031 204.003906 209.910156 C 201.753906 210.21875 197.191406 211.855469 197.191406 211.855469 C 197.191406 211.855469 200.964844 217.867188 203.046875 222.269531 C 202.625 223.964844 201.5 226.871094 198.542969 229.945312 C 198.429688 231.667969 202.570312 233.050781 205.160156 230.257812 C 205.355469 232.203125 205.414062 233.925781 205.527344 234.96875 C 205.722656 236.863281 205.863281 238.753906 208.003906 238.753906 C 210.144531 238.753906 212.027344 237.058594 210.988281 231.726562 C 209.945312 226.390625 211.269531 223.203125 211.269531 223.203125 C 211.070312 222.976562 210.820312 222.664062 210.566406 222.328125 C 210.425781 219.757812 210.144531 213.859375 211.578125 209.851562 C 213.097656 205.589844 204.457031 207.144531 204.257812 207.539062 Z M 204.257812 207.539062 " fill-opacity="1" fill-rule="nonzero"/><g clip-path="url(#bb7525821a)"><path fill="#a44c3d" d="M 141.953125 201.554688 L 140.601562 176.128906 L 154.847656 167.464844 L 261.1875 167.464844 L 261.1875 204.660156 L 251.894531 212.816406 L 171.207031 211.6875 Z M 141.953125 201.554688 " fill-opacity="1" fill-rule="nonzero"/></g><path fill="#de7760" d="M 176.441406 210.246094 C 176.1875 211.519531 175.964844 213.097656 175.738281 214.792969 C 167.09375 222.949219 160.789062 217.925781 160.675781 216.9375 C 160.648438 216.597656 160.621094 216.371094 160.621094 216.371094 C 160.621094 216.371094 160.929688 216.257812 162.898438 214.679688 C 164.449219 214.085938 166.953125 213.042969 166.953125 213.042969 C 166.953125 212.84375 166.925781 212.675781 166.898438 212.503906 C 171.992188 205.449219 172.78125 204.011719 174.640625 198.367188 C 175.542969 198.648438 177.511719 204.800781 176.441406 210.246094 Z M 176.441406 210.246094 " fill-opacity="1" fill-rule="nonzero"/><g clip-path="url(#2893753f52)"><path fill="#a44c3d" d="M 166.335938 211.546875 C 169.402344 208.441406 172.753906 204.011719 174.613281 198.367188 C 174.753906 198.394531 173.683594 205 166.871094 212.503906 C 166.785156 212.140625 166.617188 211.828125 166.335938 211.546875 Z M 251.894531 211.40625 L 245.984375 211.40625 L 245.984375 243.746094 L 249.613281 243.746094 L 251.894531 241.378906 Z M 261.1875 198.535156 L 255.273438 198.535156 L 255.273438 230.878906 L 258.90625 230.878906 L 261.1875 228.507812 Z M 261.1875 198.535156 " fill-opacity="1" fill-rule="nonzero"/></g><path fill="#260e0d" d="M 205.160156 230.230469 C 204.820312 230.597656 204.457031 230.90625 204.0625 231.132812 C 203.949219 229.269531 203.582031 226.222656 202.542969 223.824219 C 202.765625 223.230469 202.933594 222.695312 203.046875 222.242188 C 203.074219 222.242188 205.582031 227.070312 205.160156 230.230469 Z M 202.484375 177.367188 C 202.484375 177.367188 205.863281 176.832031 209.859375 176.691406 C 213.859375 176.550781 226.164062 176.691406 229.90625 169.496094 C 230.1875 168.761719 230.273438 168.082031 230.246094 167.492188 L 206.734375 167.492188 Z M 202.484375 177.367188 " fill-opacity="0.2471" fill-rule="nonzero"/><path fill="#a44c3d" d="M 167.96875 231.359375 C 170.980469 230.484375 172.839844 232.09375 174.640625 234.011719 C 176.441406 235.929688 179.144531 237.117188 179.679688 238.5 C 180.214844 239.882812 178.695312 241.828125 176.1875 240.050781 C 173.683594 238.273438 169.09375 233.953125 167.941406 233.078125 C 166.503906 231.949219 167.96875 231.359375 167.96875 231.359375 Z M 164.757812 238.328125 C 167.601562 240.613281 170.023438 240.613281 170.191406 239.402344 C 170.359375 238.1875 167.855469 236.464844 165.378906 233.164062 C 162.898438 229.835938 157.886719 227.632812 157.523438 228.761719 C 156.847656 230.792969 159.296875 233.898438 164.757812 238.328125 Z M 233.453125 147.253906 C 233.453125 147.253906 233.625 167.265625 233.960938 166.953125 C 234.300781 166.644531 233.960938 147.171875 233.960938 147.171875 C 233.960938 147.171875 235.3125 145.84375 235.117188 145.789062 C 234.917969 145.730469 233.875 146.832031 233.484375 146.832031 C 233.089844 146.832031 230.246094 146.832031 230.246094 146.832031 C 229.683594 147.171875 233.453125 147.253906 233.453125 147.253906 Z M 229.117188 153.410156 L 229.117188 157.640625 L 229.625 157.640625 C 229.625 157.640625 229.652344 153.519531 229.625 153.410156 Z M 229.117188 153.410156 " fill-opacity="1" fill-rule="nonzero"/><path fill="#260e0d" d="M 215.492188 138.449219 C 215.40625 138.789062 215.070312 139.015625 214.703125 139.070312 C 214.367188 139.15625 214 139.097656 213.660156 139.042969 C 212.253906 138.84375 210.847656 138.734375 209.4375 138.675781 C 208.144531 138.648438 206.765625 138.648438 205.636719 137.96875 C 205.046875 137.605469 204.597656 137.097656 204.0625 136.644531 C 203.554688 136.191406 202.933594 135.796875 202.230469 135.796875 C 201.472656 135.769531 200.765625 136.222656 200.0625 136.53125 C 198.683594 137.097656 196.964844 137.066406 195.757812 136.164062 C 195.277344 135.824219 194.882812 135.347656 194.488281 134.921875 C 193.363281 133.679688 192.207031 132.523438 190.855469 131.507812 C 190.855469 131.507812 187.902344 128.429688 189.363281 122.109375 C 190.800781 117.339844 194.292969 115.757812 195.109375 115.84375 C 198.121094 114.601562 203.78125 113.925781 207.074219 119.203125 C 210.367188 124.480469 208.425781 131.140625 208.425781 131.140625 C 208.425781 131.140625 208.144531 132.214844 209.042969 132.496094 C 209.945312 132.777344 213.804688 133.679688 215.152344 137.238281 C 215.324219 137.660156 215.632812 138.027344 215.492188 138.449219 Z M 136.125 210.277344 C 144.460938 211.601562 155.636719 209.261719 160.28125 209.628906 C 163.433594 209.882812 165.40625 210.585938 166.308594 211.574219 C 169.769531 208.074219 173.597656 202.910156 175.261719 196.164062 C 173.035156 196.25 171.234375 193.792969 165.238281 194.078125 C 165.238281 194.078125 163.378906 193.003906 160.648438 193.230469 C 157.917969 193.457031 151.328125 193.878906 149.246094 194.613281 L 128.214844 198.929688 C 128.242188 198.929688 128.1875 206.917969 136.125 210.277344 Z M 136.125 210.277344 " fill-opacity="1" fill-rule="nonzero"/><path fill="#8fcdb6" d="M 211.859375 136.898438 C 221.066406 138.5625 222.953125 140.3125 225.964844 146.351562 C 229.34375 154.621094 230.640625 167.746094 229.511719 169.464844 C 223.714844 177.621094 211.070312 175.167969 207.160156 175.816406 C 207.160156 175.816406 190.265625 172.542969 189.84375 163.625 C 189.421875 154.707031 192.152344 145.253906 193.503906 142.9375 C 194.855469 140.625 198.851562 139.496094 198.851562 139.496094 L 201.414062 138.902344 Z M 211.859375 136.898438 " fill-opacity="1" fill-rule="nonzero"/><g clip-path="url(#d7e7f4d3f7)"><path fill="#efd9c2" d="M 208.398438 131.28125 C 208.398438 131.28125 209.015625 132.070312 209.042969 132.496094 C 209.042969 132.496094 208.398438 134.160156 207.804688 134.359375 C 207.1875 134.554688 206.960938 133.597656 206.960938 133.597656 C 206.960938 133.597656 208.3125 131.707031 208.398438 131.28125 Z M 200.457031 137.632812 C 200.457031 137.746094 198.851562 139.523438 198.851562 139.523438 C 198.851562 139.523438 197.585938 142.515625 200.148438 146.605469 C 200.992188 147.792969 201.105469 153.011719 200.878906 154.199219 C 200.65625 155.382812 200.65625 159.136719 202.0625 162.609375 C 203.5 166.078125 205.1875 170.792969 205.1875 170.792969 C 205.1875 170.792969 208.792969 170.90625 211.296875 168.703125 C 211.296875 168.703125 208.03125 160.972656 207.496094 157.558594 C 206.960938 154.171875 207.804688 146.71875 208.257812 146.269531 C 208.707031 145.816406 212.3125 140.738281 211.832031 136.898438 C 211.832031 136.898438 209.609375 135.457031 209.296875 135.234375 C 208.988281 135.007812 208.003906 134.695312 208.003906 134.695312 Z M 204.425781 173.472656 L 200.089844 171.214844 L 196.65625 160.351562 C 196.542969 160.011719 196.261719 159.816406 195.925781 159.816406 L 172.5 159.816406 C 171.65625 159.816406 171.035156 160.660156 171.316406 161.480469 L 176.078125 176.097656 C 176.328125 176.890625 177.0625 177.398438 177.878906 177.398438 L 202.542969 177.398438 L 205.273438 176.15625 Z M 155.269531 178.328125 C 154.59375 174.09375 152.003906 166.785156 151.019531 165.515625 C 150.035156 164.246094 145.585938 161.820312 145.585938 161.820312 C 145.585938 161.820312 145.191406 161.339844 144.964844 161.140625 C 144.742188 160.945312 142.601562 160.179688 142.601562 160.179688 C 142.601562 160.179688 137.25 157.921875 136.039062 158.148438 C 134.832031 158.375 134.070312 158.433594 133.84375 160.125 C 133.84375 160.125 129.820312 161.621094 128.75 162.496094 L 128.46875 163.371094 C 128.46875 163.371094 125.90625 164.921875 125.203125 166.191406 C 124.527344 167.433594 120.695312 179.316406 120.386719 182.589844 C 120.386719 182.589844 122.46875 184.425781 126.328125 185.300781 L 128.214844 198.960938 C 128.214844 198.960938 143.785156 207.003906 152.566406 194.894531 C 152.566406 192.804688 150.144531 182.589844 150.144531 182.589844 Z M 175.738281 214.792969 C 175.007812 214.507812 174.191406 214.398438 173.402344 214.339844 C 170.925781 214.199219 168.25 214.734375 166.476562 216.484375 C 166.164062 216.796875 165.882812 217.105469 165.519531 217.332031 C 164.363281 217.953125 163.011719 217.191406 161.71875 216.992188 C 161.378906 216.9375 161.042969 216.9375 160.703125 216.964844 C 160.816406 217.980469 161.015625 220.152344 160.902344 221.820312 C 160.816406 223.03125 159.664062 225.148438 159.664062 225.148438 C 159.664062 225.148438 160.984375 225.09375 162.363281 225.207031 C 163.746094 225.320312 166.589844 228.113281 166.589844 228.113281 C 166.277344 226.082031 167.910156 221.789062 167.910156 221.789062 C 168.277344 223.003906 167.910156 226.589844 167.910156 226.589844 C 167.910156 226.589844 168.980469 226.222656 170.558594 226.222656 C 172.132812 226.222656 174.921875 228.113281 174.921875 228.113281 C 174.667969 226.925781 175.0625 220.296875 175.738281 214.792969 Z M 167.433594 230.484375 C 167.433594 230.484375 169.207031 229.777344 170.613281 230.199219 L 170.613281 228.707031 C 170.613281 228.707031 167.828125 228.054688 167.574219 229.183594 C 167.546875 229.410156 167.375 230.257812 167.433594 230.484375 Z M 159.804688 228.085938 L 160.339844 227.097656 C 160.339844 227.097656 159.238281 226.757812 158.28125 226.8125 C 158.058594 227.152344 157.859375 227.519531 157.71875 227.886719 C 157.972656 227.773438 158.929688 227.464844 159.804688 228.085938 Z M 159.804688 228.085938 " fill-opacity="1" fill-rule="nonzero"/></g><path fill="#260e0d" d="M 139.054688 159.617188 C 138.96875 160.011719 137.984375 160.945312 137.898438 160.914062 C 137.816406 160.886719 137.644531 159.644531 137.644531 159.644531 C 137.644531 159.644531 137.222656 160.972656 137.027344 160.945312 C 136.828125 160.914062 136.773438 159.816406 136.773438 159.816406 C 136.773438 159.816406 135.816406 161.167969 135.675781 161.113281 C 135.535156 161.054688 135.535156 159.730469 135.535156 159.730469 C 135.535156 159.730469 134.71875 161.199219 134.632812 161.113281 C 134.546875 161.054688 134.632812 160.265625 134.324219 159.136719 C 134.324219 159.136719 134.125 160.71875 133.957031 160.519531 C 133.730469 158.628906 131.789062 157.078125 131.789062 157.078125 C 131.789062 157.078125 131.761719 157.894531 131.675781 157.894531 C 131.59375 157.894531 131.480469 156.765625 130.945312 156.285156 C 130.410156 155.808594 125.117188 152.054688 127.117188 145.449219 C 129.113281 138.84375 135.871094 137.546875 137.027344 138.507812 C 139.84375 136.730469 146.234375 138.761719 146.796875 142.34375 C 147.359375 145.929688 146.035156 147.398438 146.035156 147.398438 " fill-opacity="1" fill-rule="nonzero"/><g clip-path="url(#5bf0ba1c57)"><path fill="#260e0d" d="M 218.984375 160.039062 C 219.152344 157.867188 218.84375 155.554688 217.660156 151.546875 C 217.378906 150.53125 218.25 151.546875 219.097656 153.664062 C 219.855469 155.554688 221.011719 162.15625 221.234375 163.539062 C 224.5 163.398438 224.894531 164.472656 224.585938 164.414062 C 224.25 164.359375 222.585938 163.738281 219.882812 164.246094 C 217.210938 164.78125 211.296875 168.734375 211.296875 168.734375 C 210.960938 169.015625 210.621094 169.269531 210.253906 169.496094 C 209.042969 165.996094 208.144531 161.394531 207.695312 158.6875 C 208.453125 161.761719 210.394531 166.617188 211.042969 168.195312 C 211.042969 168.195312 214.085938 165.996094 217.179688 164.613281 C 217.351562 163.03125 218.8125 162.214844 218.984375 160.039062 Z M 218.503906 142.230469 C 218.703125 141.808594 218.871094 141.355469 219.066406 140.933594 C 219.347656 140.339844 219.773438 139.804688 220.277344 139.382812 C 220.054688 139.269531 219.828125 139.128906 219.574219 139.015625 C 218.84375 139.972656 218.390625 141.160156 218.25 142.34375 C 218.363281 142.429688 218.449219 142.316406 218.503906 142.230469 Z M 208.875 148.1875 C 208.453125 148.667969 209.46875 148.527344 210.566406 147.113281 C 211.664062 145.703125 213.269531 143.839844 213.773438 141.101562 C 214.28125 138.367188 213.859375 137.574219 213.773438 138.167969 C 213.773438 138.195312 213.296875 144.855469 208.875 148.1875 Z M 209.4375 146.859375 C 209.46875 146.777344 209.46875 146.691406 209.410156 146.605469 C 209.355469 146.523438 209.296875 146.464844 209.242188 146.410156 C 209.128906 146.296875 209.015625 146.183594 208.875 146.097656 C 208.59375 146.324219 209.4375 146.859375 209.4375 146.859375 Z M 210.480469 144.09375 C 210.566406 144.40625 211.15625 144.546875 211.4375 144.546875 C 211.410156 144.433594 211.296875 144.347656 211.183594 144.265625 C 211.042969 144.179688 210.394531 143.699219 210.480469 144.09375 Z M 212.058594 142.515625 C 212.113281 142.484375 212.140625 142.429688 212.113281 142.375 C 212.085938 142.316406 212.058594 142.289062 212 142.230469 C 211.804688 142.0625 211.523438 141.949219 211.242188 142.007812 L 211.242188 142.0625 C 211.4375 142.230469 211.664062 142.402344 211.917969 142.484375 C 211.972656 142.515625 212.027344 142.542969 212.058594 142.515625 Z M 212.675781 140.003906 C 212.734375 139.972656 212.789062 139.917969 212.761719 139.863281 C 212.761719 139.832031 212.703125 139.777344 212.675781 139.777344 C 212.480469 139.636719 212.199219 139.609375 211.972656 139.75 L 211.945312 139.804688 C 212.113281 139.917969 212.28125 139.972656 212.480469 140.03125 C 212.5625 140.03125 212.621094 140.03125 212.675781 140.003906 Z M 210.566406 142.515625 C 210.707031 142.230469 210.820312 141.949219 210.960938 141.640625 C 210.144531 142.148438 207.804688 143.558594 207.777344 143.757812 C 207.777344 143.925781 209.636719 142.996094 210.566406 142.515625 Z M 208.058594 146.917969 C 208.117188 146.664062 208.171875 146.492188 208.226562 146.382812 C 208.171875 146.492188 204.117188 149.597656 204.117188 149.796875 C 204.117188 149.964844 207.101562 147.652344 208.058594 146.917969 Z M 203.414062 149.796875 C 203.46875 149.65625 200.402344 147.113281 200.316406 146.859375 C 200.402344 147.058594 200.515625 147.339844 200.570312 147.652344 C 201.554688 148.441406 203.386719 149.910156 203.414062 149.796875 Z M 198.570312 147 C 197.023438 144.207031 197.699219 139.945312 197.699219 139.945312 L 197.109375 140.199219 C 197.109375 140.199219 196.9375 141.921875 197.332031 144.546875 C 197.699219 147.144531 198.796875 147.511719 198.570312 147 Z M 194.011719 151.628906 C 194.207031 151.882812 194.515625 152.589844 194.796875 152.703125 C 194.796875 152.476562 194.65625 152.25 194.515625 152.054688 C 194.09375 151.40625 193.671875 150.785156 193.195312 150.191406 C 193.136719 150.132812 193.082031 150.050781 192.96875 150.050781 C 192.96875 150.21875 193.054688 150.359375 193.136719 150.5 C 193.449219 150.867188 193.730469 151.234375 194.011719 151.628906 Z M 194.292969 155.777344 C 194.039062 157.050781 193.898438 158.796875 194.207031 159.816406 L 195.617188 159.816406 C 195.109375 158.320312 194.769531 156.0625 195.304688 154.453125 C 195.980469 152.449219 196.09375 149.175781 195.953125 148.328125 C 195.757812 147.820312 195.558594 147.90625 195.617188 149.910156 C 195.699219 151.914062 194.796875 153.265625 194.292969 155.777344 Z M 195.050781 160.4375 C 195.082031 160.632812 199.808594 176.859375 200.34375 177.113281 C 200.878906 177.367188 200.289062 176.15625 200.289062 176.15625 C 200.289062 176.15625 195.390625 160.832031 195.304688 160.4375 C 195.25 160.039062 194.941406 159.816406 195.050781 160.4375 Z M 145.585938 161.789062 C 145.585938 161.789062 145.277344 170.738281 144.964844 171.1875 C 139.417969 173.21875 128.890625 171.132812 128.804688 170.960938 C 128.722656 170.792969 128.46875 163.34375 128.46875 163.34375 C 128.46875 163.34375 128.328125 163.425781 128.074219 163.597656 C 128.074219 163.597656 128.101562 170.878906 128.636719 171.613281 C 133.253906 173.898438 143.980469 172.964844 145.417969 172.34375 C 146.175781 171.046875 146.234375 164.695312 146.234375 162.15625 C 145.839844 161.929688 145.585938 161.789062 145.585938 161.789062 Z M 136.574219 209.289062 C 134.859375 208.695312 131.085938 210.21875 131.535156 210.445312 C 131.988281 210.644531 133.816406 210.023438 136.125 210.304688 C 136.125 210.277344 138.292969 209.882812 136.574219 209.289062 Z M 168.332031 233.363281 C 167.601562 232.742188 167.375 232.402344 167.375 232.402344 C 166.644531 231.640625 167.09375 228.929688 167.09375 228.929688 L 166.953125 228.675781 L 166.953125 232.65625 C 167.910156 233.898438 169.683594 235.367188 170.640625 236.097656 C 170.585938 235.761719 170.472656 235.421875 170.359375 235.140625 C 170.332031 235.140625 169.09375 234.011719 168.332031 233.363281 Z M 166.953125 217.894531 L 166.953125 221.394531 L 167.40625 223.285156 C 167.6875 222.410156 167.910156 221.789062 167.910156 221.789062 C 167.628906 219.335938 167.265625 216.910156 166.953125 214.960938 Z M 168.726562 224.558594 C 168.757812 224.414062 168.757812 223.144531 168.785156 222.75 C 168.785156 222.101562 168.785156 221.453125 168.757812 220.804688 C 168.726562 219.53125 168.726562 218.207031 168.53125 216.964844 C 167.855469 216.765625 168.390625 219.082031 168.417969 219.53125 C 168.503906 220.660156 168.53125 221.820312 168.476562 222.949219 C 168.445312 223.511719 168.476562 224.667969 168.726562 224.558594 Z M 170.332031 223.625 C 170.332031 223.878906 170.359375 224.472656 170.53125 224.300781 C 170.53125 221.734375 170.5 219.167969 170.417969 216.597656 C 170.417969 216.429688 170.390625 216.257812 170.277344 216.144531 C 169.742188 215.636719 170.078125 217.050781 170.109375 217.164062 C 170.191406 217.785156 170.21875 218.402344 170.21875 219.023438 C 170.277344 220.550781 170.304688 222.074219 170.332031 223.625 Z M 172.667969 215.835938 C 172.445312 215.890625 172.527344 216.542969 172.527344 216.683594 C 172.527344 217.417969 172.527344 218.148438 172.527344 218.882812 C 172.527344 220.351562 172.558594 221.847656 172.558594 223.316406 C 172.558594 223.511719 172.5 223.9375 172.640625 223.851562 C 172.78125 223.792969 172.78125 223.597656 172.78125 223.457031 C 172.808594 221.113281 172.839844 218.742188 172.867188 216.402344 C 172.894531 216.230469 172.894531 215.78125 172.667969 215.835938 Z M 126.441406 172.429688 C 126.128906 172.429688 126.1875 176.691406 126.1875 176.691406 L 127.058594 176.691406 C 127.058594 176.691406 126.75 172.429688 126.441406 172.429688 Z M 146.542969 174.800781 C 146.34375 174.828125 146.796875 177.566406 146.796875 177.566406 L 147.21875 177.113281 C 147.191406 177.113281 146.738281 174.746094 146.542969 174.800781 Z M 150.203125 165.824219 C 150.203125 165.824219 147.472656 166.589844 146.796875 170.03125 C 146.851562 170.625 147.132812 169.464844 147.445312 168.957031 C 147.753906 168.449219 148.203125 167.011719 149.386719 166.503906 C 150.570312 165.996094 150.511719 165.683594 150.203125 165.824219 Z M 207.382812 156.371094 Z M 207.019531 171.328125 C 207.019531 171.359375 207.074219 171.359375 207.101562 171.359375 C 207.382812 171.386719 207.695312 171.359375 207.945312 171.246094 C 208.003906 171.214844 208.058594 171.1875 208.085938 171.132812 C 207.777344 170.992188 207.382812 171.105469 207.074219 171.214844 C 207.046875 171.273438 207.019531 171.300781 207.019531 171.328125 Z M 207.582031 172.457031 C 207.777344 172.429688 207.976562 172.375 208.171875 172.261719 C 208.339844 172.148438 208.3125 172.007812 208.144531 171.976562 C 207.945312 171.949219 207.636719 172.089844 207.496094 172.203125 C 207.441406 172.234375 207.355469 172.316406 207.382812 172.375 C 207.382812 172.457031 207.496094 172.457031 207.582031 172.457031 Z M 207.636719 173.925781 C 207.777344 173.953125 208.707031 173.871094 208.453125 173.585938 C 208.285156 173.390625 207.636719 173.585938 207.523438 173.757812 C 207.496094 173.785156 207.496094 173.839844 207.523438 173.871094 C 207.582031 173.925781 207.609375 173.925781 207.636719 173.925781 Z M 207.804688 175.28125 C 207.945312 175.308594 208.761719 175.28125 208.621094 175.027344 C 208.511719 174.773438 207.917969 175 207.777344 175.082031 C 207.722656 175.109375 207.664062 175.167969 207.695312 175.222656 C 207.695312 175.253906 207.75 175.28125 207.804688 175.28125 Z M 209.777344 174.378906 C 209.890625 174.320312 209.890625 174.179688 209.890625 174.066406 C 209.859375 172.964844 209.550781 171.921875 209.269531 170.851562 C 209.1875 170.59375 209.128906 170.3125 208.988281 170.085938 C 208.933594 170.117188 208.480469 170.257812 208.480469 170.257812 C 209.269531 171.300781 209.46875 172.628906 209.636719 173.925781 C 209.664062 174.09375 209.691406 174.234375 209.777344 174.378906 Z M 184.777344 167.941406 C 184.636719 168.027344 184.496094 168.140625 184.382812 168.253906 C 183.988281 168.675781 183.789062 169.296875 183.875 169.890625 C 183.960938 170.453125 184.242188 170.960938 184.71875 171.273438 C 185.199219 171.582031 185.816406 171.640625 186.324219 171.414062 C 186.464844 171.328125 186.605469 171.246094 186.71875 171.132812 C 187.253906 170.652344 187.535156 169.890625 187.421875 169.183594 C 187.28125 168.335938 186.578125 167.773438 185.816406 167.71875 C 185.789062 167.125 185.902344 166.558594 186.042969 165.9375 C 185.929688 165.796875 185.734375 165.769531 185.5625 165.769531 C 185.367188 166.023438 185.3125 166.335938 185.28125 166.644531 C 185.28125 166.898438 185.28125 167.125 185.3125 167.378906 C 185.171875 167.207031 185 167.097656 184.804688 167.011719 C 184.496094 166.871094 184.128906 166.871094 183.820312 167.011719 C 183.988281 167.464844 184.355469 167.800781 184.777344 167.941406 Z M 204.34375 154.226562 C 204.597656 154.226562 204.738281 153.972656 204.792969 153.71875 C 204.878906 153.351562 204.820312 152.703125 204.34375 152.644531 C 203.78125 152.589844 203.894531 153.324219 203.949219 153.691406 C 203.949219 153.917969 204.089844 154.199219 204.34375 154.226562 Z M 204.371094 158.882812 C 203.863281 158.855469 204.175781 159.898438 204.285156 160.125 C 204.34375 160.210938 204.398438 160.292969 204.484375 160.351562 C 204.566406 160.40625 204.679688 160.4375 204.765625 160.378906 C 204.878906 160.324219 204.90625 160.179688 204.933594 160.070312 C 204.960938 159.785156 204.792969 158.941406 204.371094 158.882812 Z M 205.695312 165.0625 C 205.328125 165.207031 205.667969 165.9375 205.777344 166.136719 C 205.863281 166.304688 206.03125 166.476562 206.203125 166.476562 C 206.34375 166.304688 206.398438 166.050781 206.371094 165.824219 C 206.34375 165.570312 206.03125 164.921875 205.695312 165.0625 Z M 260.339844 168.421875 C 259.496094 168.5625 250.289062 179.683594 250.289062 179.683594 C 250.289062 179.683594 170.277344 179.683594 169.402344 179.683594 C 168.53125 179.683594 168.726562 180.644531 171.570312 180.644531 C 174.414062 180.644531 248.742188 180.558594 249.953125 180.644531 C 249.953125 180.644531 249.332031 241.574219 249.390625 242.308594 C 249.445312 243.042969 249.953125 242.535156 249.953125 241.941406 C 249.953125 241.320312 250.882812 180.671875 250.882812 180.671875 C 250.882812 180.671875 261.1875 168.28125 260.339844 168.421875 Z M 169.515625 178.976562 C 169.628906 178.863281 169.742188 178.78125 169.882812 178.695312 C 170.109375 178.609375 170.332031 178.609375 170.585938 178.609375 C 170.925781 178.609375 172.246094 178.554688 172.359375 178.132812 C 172.359375 178.101562 172.359375 178.074219 172.359375 178.046875 C 171.851562 178.046875 171.148438 177.707031 170.753906 177.621094 C 170.191406 177.511719 169.824219 177.878906 169.824219 177.878906 C 168.164062 180.558594 166.558594 181.519531 165.6875 180.8125 C 164.195312 181.6875 160.339844 189.082031 155.328125 188.941406 C 155.4375 189.335938 155.550781 189.730469 155.804688 190.039062 C 156.425781 190.804688 157.605469 191.648438 158.5625 191.566406 C 160.367188 191.394531 163.519531 190.292969 165.460938 184.03125 C 165.6875 183.351562 165.882812 182.617188 166.476562 182.195312 C 166.699219 182.027344 166.984375 181.941406 167.207031 181.828125 C 168.304688 181.261719 168.644531 179.851562 169.515625 178.976562 Z M 259.242188 206.382812 L 258.566406 206.972656 L 255.273438 209.882812 L 258.371094 209.515625 C 258.285156 217.867188 258.511719 230.089844 258.820312 230.003906 C 259.074219 229.636719 259.019531 220.578125 259.074219 219.109375 C 259.101562 218.320312 259.242188 213.296875 259.273438 208.863281 L 261.214844 206.351562 L 261.214844 204.660156 Z M 259.242188 206.382812 " fill-opacity="0.2471" fill-rule="nonzero"/></g><path fill="#de7760" d="M 200.175781 137.097656 C 194.996094 139.496094 190.886719 131.507812 190.886719 131.507812 C 191.335938 130.972656 190.011719 123.859375 192.066406 123.351562 C 194.941406 126.570312 203.527344 127.867188 204.992188 124.085938 C 206.59375 124.113281 207.328125 126.171875 205.808594 127.867188 C 206.144531 133.539062 209.015625 135.488281 209.015625 136.730469 C 206.847656 139.269531 204.117188 148.582031 204.117188 148.582031 C 204.117188 148.582031 202.257812 145.195312 201.441406 143.078125 C 200.65625 140.933594 201.160156 139.464844 200.175781 137.097656 Z M 201.78125 170.171875 C 201.21875 170.285156 200.0625 171.214844 200.0625 171.214844 L 201.695312 175.84375 C 201.695312 175.84375 202.625 175.054688 202.878906 175.28125 C 203.75 176.128906 205.667969 176.410156 207.160156 175.84375 C 207.410156 173.757812 206.3125 170.792969 206.3125 170.792969 C 205.328125 170.851562 202.371094 170.03125 201.78125 170.171875 Z M 172.839844 177.878906 C 172.417969 178.414062 171.289062 177.765625 170.726562 177.652344 C 170.164062 177.539062 169.796875 177.90625 169.796875 177.90625 C 168.136719 180.585938 166.53125 181.546875 165.660156 180.839844 C 164.140625 181.742188 160.054688 189.617188 154.792969 188.941406 C 153.160156 188.742188 151.863281 187.925781 150.851562 186.9375 L 150.851562 213.042969 L 166.925781 213.042969 L 166.925781 242.476562 L 165.40625 243.550781 L 162.394531 243.550781 L 162.394531 217.867188 L 150.820312 217.867188 L 150.820312 245.921875 L 149.300781 246.992188 L 146.316406 246.992188 L 146.316406 217.894531 L 144.316406 217.894531 L 144.316406 242.476562 L 142.796875 243.550781 L 139.785156 243.550781 L 139.785156 217.867188 L 128.242188 217.867188 L 128.242188 245.921875 L 126.722656 246.992188 L 123.710938 246.992188 L 123.710938 177.765625 L 125.117188 176.691406 L 128.214844 176.691406 L 128.214844 183.4375 C 128.214844 183.4375 143.472656 183.4375 146.316406 183.4375 L 146.316406 177.765625 L 147.726562 176.691406 L 150.820312 176.691406 L 150.820312 180.699219 C 153.1875 179.769531 155.242188 178.328125 155.242188 178.328125 L 155.945312 180.332031 C 156.679688 179.484375 161.125 178.949219 162.335938 177.679688 C 162.730469 177.257812 164.5625 174.828125 165.097656 174.179688 C 165.660156 173.53125 166.449219 173.757812 166.839844 173.8125 C 167.234375 173.839844 167.855469 173.871094 168.082031 174.179688 C 168.277344 174.492188 168.617188 174.292969 169.09375 174.601562 C 169.574219 174.914062 170.980469 175.929688 171.207031 176.15625 C 171.457031 176.382812 173.035156 177.453125 172.839844 177.878906 Z M 146.316406 198.703125 L 128.242188 198.703125 L 128.242188 213.042969 L 146.316406 213.042969 Z M 146.316406 187.953125 L 128.242188 187.953125 L 128.242188 194.191406 C 128.242188 194.191406 143.5 194.191406 146.34375 194.191406 L 146.34375 187.953125 Z M 140.488281 153.238281 C 140.488281 153.238281 140.066406 153.917969 139.363281 154.027344 C 139.558594 157.8125 139.054688 159.589844 139.054688 159.589844 C 140.910156 159.589844 142.628906 160.152344 142.628906 160.152344 L 142.628906 157.527344 C 142.628906 157.527344 143.53125 157.613281 144.710938 157.445312 C 147.445312 157.132812 146.289062 154.820312 146.710938 154.425781 C 147.132812 154 146.710938 153.578125 146.710938 153.578125 C 147.472656 152.898438 146.402344 152.421875 146.484375 151.433594 C 147.246094 151.292969 148.007812 150.164062 147.585938 149.65625 C 147.160156 149.148438 145.699219 147.875 145.699219 145.703125 C 145.359375 146.804688 143.980469 148.554688 143.699219 148.835938 C 143.445312 149.148438 142.882812 149.429688 143.050781 149.175781 C 143.953125 148.074219 144.007812 145.28125 144.007812 145.28125 C 142.320312 151.234375 138.882812 150.472656 138.460938 149.738281 C 138.039062 149.003906 135.898438 148.78125 136.070312 150.726562 C 136.238281 152.675781 138.351562 153.519531 140.488281 153.238281 Z M 140.488281 153.238281 " fill-opacity="1" fill-rule="nonzero"/><path fill="#a44c3d" d="M 195.050781 220.40625 C 194.996094 221.875 195.050781 230.933594 194.796875 231.300781 C 194.347656 231.414062 194.039062 203.839844 194.796875 203.136719 C 195.558594 202.429688 195.109375 218.941406 195.050781 220.40625 Z M 207.300781 213.238281 C 206.679688 211.855469 206.230469 211.375 206.3125 212.140625 C 206.425781 212.902344 207.75 215.949219 208.199219 217.726562 C 208.652344 219.53125 209.945312 221.933594 210.566406 222.328125 C 211.410156 222.410156 209.777344 220.351562 209.269531 219.617188 C 208.761719 218.914062 207.890625 214.59375 207.300781 213.238281 Z M 202.652344 135.261719 C 202.457031 135.316406 202.035156 136.277344 200.175781 137.125 C 200.402344 137.632812 200.542969 138.113281 200.65625 138.5625 C 202.089844 138 202.824219 135.203125 202.652344 135.261719 Z M 205.667969 124.988281 C 205.132812 125.300781 204.878906 126.484375 205.132812 127.046875 C 205.300781 127.246094 205.273438 126.90625 205.300781 126.511719 C 205.300781 126.34375 205.46875 125.46875 205.667969 125.269531 C 205.808594 125.128906 205.890625 124.933594 205.667969 124.988281 Z M 201.332031 172.851562 C 201.273438 172.824219 200.992188 173.050781 200.796875 173.21875 L 200.878906 173.472656 C 201.191406 173.25 201.5 172.910156 201.332031 172.851562 Z M 201.300781 174.632812 L 201.386719 174.855469 C 201.613281 174.574219 201.78125 174.347656 201.726562 174.320312 C 201.640625 174.292969 201.472656 174.433594 201.300781 174.632812 Z M 200.878906 171.527344 C 200.738281 171.46875 200.34375 171.976562 200.34375 171.976562 L 200.402344 172.175781 C 200.683594 171.867188 200.9375 171.554688 200.878906 171.527344 Z M 202.34375 173.925781 C 202.257812 173.925781 202.175781 173.980469 202.148438 174.066406 C 202.148438 174.09375 202.117188 174.125 202.117188 174.152344 C 202.117188 174.179688 202.148438 174.207031 202.175781 174.207031 C 202.203125 174.207031 202.230469 174.207031 202.257812 174.207031 C 202.316406 174.179688 202.402344 174.152344 202.429688 174.09375 C 202.457031 174.066406 202.457031 174.066406 202.457031 174.039062 C 202.457031 174.011719 202.429688 173.980469 202.402344 173.953125 C 202.429688 173.925781 202.402344 173.925781 202.34375 173.925781 Z M 202.289062 172.65625 C 202.230469 172.597656 202.148438 172.570312 202.0625 172.597656 C 201.976562 172.597656 201.894531 172.65625 201.835938 172.710938 C 201.808594 172.742188 201.808594 172.769531 201.835938 172.796875 C 201.835938 172.824219 201.867188 172.824219 201.894531 172.824219 C 202.035156 172.851562 202.203125 172.769531 202.289062 172.65625 Z M 201.726562 171.1875 Z M 201.640625 171.214844 L 201.726562 171.214844 C 201.695312 171.1875 201.667969 171.1875 201.640625 171.214844 Z M 201.726562 171.1875 C 201.582031 171.1875 201.414062 171.300781 201.386719 171.441406 C 201.441406 171.46875 201.527344 171.46875 201.613281 171.441406 C 201.667969 171.441406 201.726562 171.414062 201.753906 171.359375 C 201.78125 171.300781 201.808594 171.246094 201.78125 171.1875 C 201.78125 171.214844 201.753906 171.1875 201.726562 171.1875 Z M 150.371094 177.285156 C 150.175781 177.257812 149.695312 177.847656 149.019531 177.988281 C 148.34375 178.132812 146.910156 177.90625 146.910156 177.90625 C 146.429688 177.960938 147.867188 178.582031 148.9375 178.46875 C 148.9375 182.136719 149.078125 245.527344 149.132812 246.175781 C 149.1875 246.824219 149.5 246.289062 149.554688 245.894531 C 149.609375 245.496094 149.582031 181.460938 149.582031 178.328125 C 150.257812 177.960938 150.511719 177.3125 150.371094 177.285156 Z M 145.753906 184.199219 C 142.65625 184.171875 128.046875 184.113281 127.734375 184.425781 C 127.679688 184.59375 142.628906 184.792969 145.753906 184.847656 L 145.753906 187.980469 L 146.316406 187.980469 L 146.316406 183.464844 L 145.753906 183.464844 Z M 128.242188 198.703125 L 127.199219 198.703125 L 127.199219 194.953125 L 128.242188 194.160156 C 128.242188 193.851562 127.144531 194.699219 126.890625 194.894531 C 126.890625 192.382812 126.890625 190.011719 126.890625 187.925781 C 127.003906 188.121094 128.242188 189.84375 128.242188 189.84375 L 128.242188 187.953125 L 127.199219 187.953125 L 127.199219 184.199219 L 128.242188 183.410156 C 128.410156 182.789062 126.890625 184.140625 126.890625 184.140625 C 126.890625 184.140625 126.890625 184.171875 126.890625 184.199219 C 126.890625 180.839844 126.890625 178.609375 126.890625 178.101562 C 127.59375 177.765625 127.847656 177.113281 127.707031 177.085938 C 127.511719 177.058594 127.03125 177.652344 126.355469 177.792969 C 125.679688 177.933594 124.246094 177.707031 124.246094 177.707031 C 123.765625 177.765625 125.203125 178.386719 126.273438 178.273438 C 126.273438 181.941406 126.414062 245.328125 126.46875 245.976562 C 126.523438 246.625 126.835938 246.089844 126.890625 245.695312 C 126.917969 245.441406 126.917969 218.601562 126.917969 198.816406 C 127.285156 199.976562 128.355469 200.933594 128.269531 200.679688 L 128.269531 198.703125 Z M 145.753906 194.980469 C 142.714844 194.980469 128.496094 195.007812 128.101562 194.980469 C 127.679688 194.953125 128.074219 195.289062 128.890625 195.347656 C 129.621094 195.375 142.824219 195.515625 145.753906 195.574219 L 145.753906 198.734375 L 146.316406 198.734375 L 146.316406 194.191406 L 145.753906 194.191406 Z M 165.097656 217.894531 L 162.421875 217.894531 L 162.421875 218.601562 L 165.097656 218.601562 C 165.125 233.109375 165.179688 242.449219 165.207031 242.730469 C 165.265625 243.382812 165.574219 242.84375 165.632812 242.449219 C 165.660156 242.28125 165.660156 233.050781 165.660156 218.601562 L 166.953125 218.601562 L 166.953125 217.894531 Z M 139.785156 218.855469 L 142.460938 218.855469 C 142.488281 233.25 142.542969 242.449219 142.574219 242.730469 C 142.628906 243.382812 142.9375 242.84375 142.996094 242.449219 C 143.023438 242.28125 143.023438 233.222656 143.023438 218.882812 L 144.316406 218.882812 L 144.316406 217.925781 L 139.785156 217.925781 Z M 188.125 211.714844 C 187.367188 212.421875 187.675781 239.964844 188.125 239.882812 C 188.378906 239.515625 188.324219 230.457031 188.378906 228.988281 C 188.4375 227.492188 188.886719 211.011719 188.125 211.714844 Z M 226.5 211.714844 C 225.742188 212.421875 226.050781 239.964844 226.5 239.882812 C 226.753906 239.515625 226.699219 230.457031 226.753906 228.988281 C 226.839844 227.492188 227.289062 211.011719 226.5 211.714844 Z M 233.171875 203.136719 C 232.414062 203.839844 232.722656 231.386719 233.171875 231.300781 C 233.425781 230.933594 233.371094 221.875 233.425781 220.40625 C 233.484375 218.941406 233.933594 202.429688 233.171875 203.136719 Z M 137.335938 150.867188 C 137.617188 150.953125 137.871094 151.152344 138.066406 151.40625 C 138.152344 151.546875 138.238281 151.6875 138.351562 151.800781 C 138.378906 151.855469 138.433594 151.882812 138.492188 151.855469 C 138.546875 151.828125 138.546875 151.800781 138.519531 151.742188 C 138.433594 151.433594 138.265625 151.152344 138.011719 150.925781 C 137.757812 150.726562 137.449219 150.585938 137.109375 150.585938 C 137.054688 150.613281 137.109375 150.753906 137.167969 150.8125 C 137.195312 150.839844 137.25 150.839844 137.335938 150.867188 Z M 155.972656 180.332031 C 156.171875 180.980469 156.226562 182.195312 156.394531 182.25 C 156.539062 182.308594 156.648438 180.898438 156.566406 179.9375 C 156.285156 180.078125 156.085938 180.191406 155.972656 180.332031 Z M 166.277344 180.5 C 166.164062 180.5 165.6875 180.839844 165.6875 180.839844 C 165.800781 180.925781 165.914062 180.980469 166.023438 181.007812 C 166.164062 180.785156 166.363281 180.5 166.277344 180.5 Z M 170.585938 177.113281 C 170.53125 177.144531 170.136719 177.621094 169.910156 177.847656 C 170.023438 177.765625 170.21875 177.652344 170.472656 177.621094 C 170.53125 177.367188 170.613281 177.085938 170.585938 177.113281 Z M 171.316406 177.847656 C 171.375 177.878906 171.457031 177.90625 171.515625 177.933594 C 171.628906 177.765625 171.683594 177.652344 171.628906 177.652344 C 171.601562 177.652344 171.457031 177.734375 171.316406 177.847656 Z M 142.628906 158.996094 L 142.628906 157.558594 C 141.558594 157.414062 141.109375 156.878906 140.910156 156.992188 C 140.742188 157.078125 141.644531 158.460938 142.628906 158.996094 Z M 142.628906 158.996094 " fill-opacity="1" fill-rule="nonzero"/><path fill="#260e0d" d="M 195.953125 133.144531 C 194.628906 133.398438 194.375 131.988281 194.347656 131.140625 C 194.320312 130.578125 193.925781 130.238281 193.925781 130.238281 C 193.699219 130.011719 194.011719 129.898438 194.320312 130.324219 C 194.628906 130.746094 194.488281 131.453125 194.742188 132.183594 C 194.996094 132.917969 195.585938 132.976562 195.8125 132.976562 C 196.007812 132.917969 196.320312 133.058594 195.953125 133.144531 Z M 197.699219 133.117188 C 197.53125 133.566406 196.742188 133.878906 196.683594 133.90625 C 196.574219 133.964844 196.628906 134.074219 196.824219 134.046875 C 197.023438 133.992188 197.417969 133.820312 197.699219 133.484375 C 197.894531 133.710938 198.066406 134.328125 197.8125 134.441406 C 197.558594 134.582031 197.53125 134.753906 197.8125 134.726562 C 198.65625 134.472656 197.699219 133.117188 197.699219 133.117188 Z M 196.855469 130.011719 C 197.078125 129.871094 197.050781 129.476562 196.824219 129.109375 C 196.601562 128.769531 196.234375 128.574219 196.007812 128.714844 C 195.785156 128.855469 195.8125 129.25 196.039062 129.617188 C 196.261719 129.984375 196.628906 130.152344 196.855469 130.011719 Z M 192.40625 130.578125 C 192.207031 130.6875 192.238281 131.027344 192.433594 131.339844 C 192.632812 131.648438 192.941406 131.789062 193.109375 131.675781 C 193.304688 131.5625 193.277344 131.226562 193.082031 130.914062 C 192.882812 130.605469 192.601562 130.464844 192.40625 130.578125 Z M 195.136719 128.148438 C 195.363281 128.09375 196.9375 127.386719 197.164062 127.078125 C 197.472656 126.652344 195.109375 127.246094 194.769531 127.554688 C 194.628906 127.699219 194.910156 128.207031 195.136719 128.148438 Z M 192.066406 128.742188 C 191.785156 128.796875 191.25 129.785156 191.109375 130.265625 C 190.996094 130.746094 191.195312 130.859375 191.25 130.71875 C 191.28125 130.660156 191.757812 129.757812 192.488281 129.417969 C 192.660156 129.222656 192.347656 128.683594 192.066406 128.742188 Z M 144.964844 148.160156 C 144.710938 148.160156 144.515625 148.527344 144.515625 148.976562 C 144.515625 149.429688 144.710938 149.796875 144.964844 149.796875 C 145.21875 149.796875 145.417969 149.429688 145.417969 148.976562 C 145.417969 148.527344 145.21875 148.160156 144.964844 148.160156 Z M 145.613281 153.578125 C 145.527344 153.632812 146.203125 154 146.878906 153.832031 C 146.824219 153.664062 146.710938 153.578125 146.710938 153.578125 C 146.261719 153.746094 145.726562 153.519531 145.613281 153.578125 Z M 145.613281 153.578125 " fill-opacity="1" fill-rule="nonzero"/></svg>